<mxfile host="app.diagrams.net" agent="Mozilla/5.0 (Windows NT 10.0; Win64; x64; rv:142.0) Gecko/20100101 Firefox/142.0" version="28.1.2" pages="5">
  <diagram name="Top Level" id="e-soX2WCUKk2pZRMj5sG">
    <mxGraphModel dx="1418" dy="786" grid="1" gridSize="10" guides="1" tooltips="1" connect="1" arrows="1" fold="1" page="1" pageScale="1" pageWidth="1169" pageHeight="827" math="0" shadow="0">
      <root>
        <mxCell id="0" />
        <mxCell id="1" parent="0" />
        <UserObject label="PPU" link="data:page/id,fhpvUHNCYDzhRqWh7Ifu" id="7u9qZ77tVXH9AAFwuAX2-1">
          <mxCell style="rounded=0;whiteSpace=wrap;html=1;" parent="1" vertex="1">
            <mxGeometry x="760" y="490" width="120" height="60" as="geometry" />
          </mxCell>
        </UserObject>
        <UserObject label="Cartridge" link="data:page/id,dN9VRw3_IIokzgKD2sei" id="7u9qZ77tVXH9AAFwuAX2-2">
          <mxCell style="rounded=0;whiteSpace=wrap;html=1;" parent="1" vertex="1">
            <mxGeometry x="250" y="490" width="120" height="60" as="geometry" />
          </mxCell>
        </UserObject>
        <UserObject label="CPU" link="data:page/id,pjBFiiTbQYuyNwO_qx_P" id="7u9qZ77tVXH9AAFwuAX2-3">
          <mxCell style="rounded=0;whiteSpace=wrap;html=1;" parent="1" vertex="1">
            <mxGeometry x="510" y="120" width="120" height="60" as="geometry" />
          </mxCell>
        </UserObject>
        <mxCell id="pH8SqsxWgnGX5VRnkgVK-4" value="WRAM/&lt;div&gt;SRAM&lt;/div&gt;" style="rounded=0;whiteSpace=wrap;html=1;" parent="1" vertex="1">
          <mxGeometry x="510" y="180" width="50" height="60" as="geometry" />
        </mxCell>
        <mxCell id="pH8SqsxWgnGX5VRnkgVK-7" value="CHR-ROM/RAM" style="rounded=0;whiteSpace=wrap;html=1;" parent="1" vertex="1">
          <mxGeometry x="250" y="550" width="60" height="60" as="geometry" />
        </mxCell>
        <mxCell id="pH8SqsxWgnGX5VRnkgVK-8" value="PRG-ROM" style="rounded=0;whiteSpace=wrap;html=1;" parent="1" vertex="1">
          <mxGeometry x="310" y="550" width="60" height="60" as="geometry" />
        </mxCell>
        <mxCell id="pH8SqsxWgnGX5VRnkgVK-9" value="74LS139&lt;div&gt;discrete logic&lt;/div&gt;" style="rounded=0;whiteSpace=wrap;html=1;" parent="1" vertex="1">
          <mxGeometry x="510" y="290" width="120" height="60" as="geometry" />
        </mxCell>
        <mxCell id="pH8SqsxWgnGX5VRnkgVK-11" value="74LS373&lt;div&gt;Latch&lt;/div&gt;" style="rounded=0;whiteSpace=wrap;html=1;" parent="1" vertex="1">
          <mxGeometry x="510" y="490" width="120" height="60" as="geometry" />
        </mxCell>
        <mxCell id="pH8SqsxWgnGX5VRnkgVK-13" value="VRAM" style="rounded=0;whiteSpace=wrap;html=1;" parent="1" vertex="1">
          <mxGeometry x="760" y="550" width="60" height="60" as="geometry" />
        </mxCell>
        <mxCell id="pH8SqsxWgnGX5VRnkgVK-14" value="" style="endArrow=classic;html=1;rounded=0;exitX=0.5;exitY=1;exitDx=0;exitDy=0;entryX=0.5;entryY=0;entryDx=0;entryDy=0;fillColor=#60a917;strokeColor=#2D7600;" parent="1" source="7u9qZ77tVXH9AAFwuAX2-3" target="pH8SqsxWgnGX5VRnkgVK-9" edge="1">
          <mxGeometry width="50" height="50" relative="1" as="geometry">
            <mxPoint x="560" y="430" as="sourcePoint" />
            <mxPoint x="610" y="380" as="targetPoint" />
          </mxGeometry>
        </mxCell>
        <mxCell id="pH8SqsxWgnGX5VRnkgVK-15" value="" style="endArrow=classic;startArrow=classic;html=1;rounded=0;entryX=0;entryY=0.5;entryDx=0;entryDy=0;exitX=0;exitY=0.5;exitDx=0;exitDy=0;fillColor=#60a917;strokeColor=#2D7600;" parent="1" source="7u9qZ77tVXH9AAFwuAX2-2" target="7u9qZ77tVXH9AAFwuAX2-3" edge="1">
          <mxGeometry width="50" height="50" relative="1" as="geometry">
            <mxPoint x="120" y="520" as="sourcePoint" />
            <mxPoint x="610" y="380" as="targetPoint" />
            <Array as="points">
              <mxPoint x="120" y="520" />
              <mxPoint x="120" y="150" />
            </Array>
          </mxGeometry>
        </mxCell>
        <mxCell id="pH8SqsxWgnGX5VRnkgVK-16" value="" style="endArrow=classic;html=1;rounded=0;entryX=1;entryY=0.75;entryDx=0;entryDy=0;fillColor=#60a917;strokeColor=#2D7600;" parent="1" target="7u9qZ77tVXH9AAFwuAX2-1" edge="1">
          <mxGeometry width="50" height="50" relative="1" as="geometry">
            <mxPoint x="120" y="520" as="sourcePoint" />
            <mxPoint x="900" y="530" as="targetPoint" />
            <Array as="points">
              <mxPoint x="120" y="680" />
              <mxPoint x="900" y="680" />
              <mxPoint x="900" y="535" />
            </Array>
          </mxGeometry>
        </mxCell>
        <mxCell id="pH8SqsxWgnGX5VRnkgVK-17" value="" style="endArrow=classic;html=1;rounded=0;entryX=0;entryY=0.5;entryDx=0;entryDy=0;fillColor=#60a917;strokeColor=#2D7600;" parent="1" target="pH8SqsxWgnGX5VRnkgVK-4" edge="1">
          <mxGeometry width="50" height="50" relative="1" as="geometry">
            <mxPoint x="120" y="150" as="sourcePoint" />
            <mxPoint x="610" y="380" as="targetPoint" />
            <Array as="points">
              <mxPoint x="120" y="210" />
            </Array>
          </mxGeometry>
        </mxCell>
        <mxCell id="pH8SqsxWgnGX5VRnkgVK-19" value="" style="endArrow=classic;html=1;rounded=0;entryX=0.5;entryY=0;entryDx=0;entryDy=0;fillColor=#1ba1e2;strokeColor=#006EAF;" parent="1" target="7u9qZ77tVXH9AAFwuAX2-2" edge="1">
          <mxGeometry width="50" height="50" relative="1" as="geometry">
            <mxPoint x="570" y="400" as="sourcePoint" />
            <mxPoint x="610" y="380" as="targetPoint" />
            <Array as="points">
              <mxPoint x="310" y="400" />
            </Array>
          </mxGeometry>
        </mxCell>
        <mxCell id="pH8SqsxWgnGX5VRnkgVK-20" value="" style="endArrow=classic;html=1;rounded=0;entryX=0.5;entryY=0;entryDx=0;entryDy=0;fillColor=#1ba1e2;strokeColor=#006EAF;" parent="1" target="7u9qZ77tVXH9AAFwuAX2-1" edge="1">
          <mxGeometry width="50" height="50" relative="1" as="geometry">
            <mxPoint x="570" y="400" as="sourcePoint" />
            <mxPoint x="610" y="380" as="targetPoint" />
            <Array as="points">
              <mxPoint x="820" y="400" />
            </Array>
          </mxGeometry>
        </mxCell>
        <mxCell id="pH8SqsxWgnGX5VRnkgVK-21" value="" style="endArrow=none;html=1;rounded=0;entryX=0.5;entryY=1;entryDx=0;entryDy=0;fillColor=#1ba1e2;strokeColor=#006EAF;" parent="1" target="pH8SqsxWgnGX5VRnkgVK-9" edge="1">
          <mxGeometry width="50" height="50" relative="1" as="geometry">
            <mxPoint x="570" y="400" as="sourcePoint" />
            <mxPoint x="610" y="380" as="targetPoint" />
          </mxGeometry>
        </mxCell>
        <mxCell id="pH8SqsxWgnGX5VRnkgVK-22" value="" style="endArrow=classic;html=1;rounded=0;entryX=0;entryY=0.75;entryDx=0;entryDy=0;fillColor=#1ba1e2;strokeColor=#006EAF;" parent="1" target="pH8SqsxWgnGX5VRnkgVK-4" edge="1">
          <mxGeometry width="50" height="50" relative="1" as="geometry">
            <mxPoint x="440" y="400" as="sourcePoint" />
            <mxPoint x="440" y="230" as="targetPoint" />
            <Array as="points">
              <mxPoint x="440" y="225" />
            </Array>
          </mxGeometry>
        </mxCell>
        <mxCell id="pH8SqsxWgnGX5VRnkgVK-24" value="" style="endArrow=classic;startArrow=classic;html=1;rounded=0;entryX=1;entryY=0.5;entryDx=0;entryDy=0;exitX=1;exitY=0.25;exitDx=0;exitDy=0;fillColor=#e51400;strokeColor=#B20000;" parent="1" source="7u9qZ77tVXH9AAFwuAX2-1" target="7u9qZ77tVXH9AAFwuAX2-3" edge="1">
          <mxGeometry width="50" height="50" relative="1" as="geometry">
            <mxPoint x="560" y="430" as="sourcePoint" />
            <mxPoint x="610" y="380" as="targetPoint" />
            <Array as="points">
              <mxPoint x="900" y="505" />
              <mxPoint x="900" y="150" />
            </Array>
          </mxGeometry>
        </mxCell>
        <mxCell id="pH8SqsxWgnGX5VRnkgVK-25" value="" style="endArrow=classic;html=1;rounded=0;entryX=0;entryY=0.75;entryDx=0;entryDy=0;fillColor=#e51400;strokeColor=#B20000;" parent="1" target="7u9qZ77tVXH9AAFwuAX2-2" edge="1">
          <mxGeometry width="50" height="50" relative="1" as="geometry">
            <mxPoint x="900" y="480" as="sourcePoint" />
            <mxPoint x="590" y="420" as="targetPoint" />
            <Array as="points">
              <mxPoint x="960" y="480" />
              <mxPoint x="960" y="720" />
              <mxPoint x="200" y="720" />
              <mxPoint x="200" y="535" />
            </Array>
          </mxGeometry>
        </mxCell>
        <mxCell id="pH8SqsxWgnGX5VRnkgVK-26" value="" style="endArrow=classic;html=1;rounded=0;entryX=0;entryY=0.75;entryDx=0;entryDy=0;fillColor=#e51400;strokeColor=#B20000;" parent="1" target="7u9qZ77tVXH9AAFwuAX2-3" edge="1">
          <mxGeometry width="50" height="50" relative="1" as="geometry">
            <mxPoint x="200" y="540" as="sourcePoint" />
            <mxPoint x="220" y="160" as="targetPoint" />
            <Array as="points">
              <mxPoint x="200" y="165" />
            </Array>
          </mxGeometry>
        </mxCell>
        <mxCell id="pH8SqsxWgnGX5VRnkgVK-28" value="" style="endArrow=classic;html=1;rounded=0;exitX=0;exitY=0.5;exitDx=0;exitDy=0;entryX=1;entryY=0.5;entryDx=0;entryDy=0;fillColor=#60a917;strokeColor=#2D7600;" parent="1" source="7u9qZ77tVXH9AAFwuAX2-1" target="pH8SqsxWgnGX5VRnkgVK-11" edge="1">
          <mxGeometry width="50" height="50" relative="1" as="geometry">
            <mxPoint x="520" y="400" as="sourcePoint" />
            <mxPoint x="570" y="350" as="targetPoint" />
          </mxGeometry>
        </mxCell>
        <mxCell id="pH8SqsxWgnGX5VRnkgVK-29" value="" style="endArrow=classic;html=1;rounded=0;exitX=0;exitY=0.25;exitDx=0;exitDy=0;entryX=1;entryY=0.25;entryDx=0;entryDy=0;fillColor=#60a917;strokeColor=#2D7600;" parent="1" source="pH8SqsxWgnGX5VRnkgVK-11" target="7u9qZ77tVXH9AAFwuAX2-2" edge="1">
          <mxGeometry width="50" height="50" relative="1" as="geometry">
            <mxPoint x="520" y="400" as="sourcePoint" />
            <mxPoint x="570" y="350" as="targetPoint" />
          </mxGeometry>
        </mxCell>
        <mxCell id="pH8SqsxWgnGX5VRnkgVK-30" value="" style="endArrow=classic;html=1;rounded=0;entryX=0;entryY=0.25;entryDx=0;entryDy=0;fillColor=#60a917;strokeColor=#2D7600;" parent="1" target="pH8SqsxWgnGX5VRnkgVK-13" edge="1">
          <mxGeometry width="50" height="50" relative="1" as="geometry">
            <mxPoint x="480" y="565" as="sourcePoint" />
            <mxPoint x="480" y="580" as="targetPoint" />
            <Array as="points">
              <mxPoint x="480" y="565" />
            </Array>
          </mxGeometry>
        </mxCell>
        <mxCell id="pH8SqsxWgnGX5VRnkgVK-31" value="" style="endArrow=classic;startArrow=classic;html=1;rounded=0;exitX=0.75;exitY=1;exitDx=0;exitDy=0;entryX=1;entryY=0.75;entryDx=0;entryDy=0;fillColor=#e51400;strokeColor=#B20000;" parent="1" source="7u9qZ77tVXH9AAFwuAX2-1" target="7u9qZ77tVXH9AAFwuAX2-2" edge="1">
          <mxGeometry width="50" height="50" relative="1" as="geometry">
            <mxPoint x="520" y="400" as="sourcePoint" />
            <mxPoint x="850" y="640" as="targetPoint" />
            <Array as="points">
              <mxPoint x="850" y="640" />
              <mxPoint x="400" y="640" />
              <mxPoint x="400" y="535" />
            </Array>
          </mxGeometry>
        </mxCell>
        <mxCell id="pH8SqsxWgnGX5VRnkgVK-32" value="" style="endArrow=classic;html=1;rounded=0;entryX=0.5;entryY=1;entryDx=0;entryDy=0;fillColor=#e51400;strokeColor=#B20000;" parent="1" target="pH8SqsxWgnGX5VRnkgVK-13" edge="1">
          <mxGeometry width="50" height="50" relative="1" as="geometry">
            <mxPoint x="790" y="640" as="sourcePoint" />
            <mxPoint x="570" y="350" as="targetPoint" />
          </mxGeometry>
        </mxCell>
        <mxCell id="pH8SqsxWgnGX5VRnkgVK-33" value="" style="endArrow=classic;html=1;rounded=0;exitX=1;exitY=0.5;exitDx=0;exitDy=0;entryX=0;entryY=0.75;entryDx=0;entryDy=0;fillColor=#1ba1e2;strokeColor=#006EAF;" parent="1" source="7u9qZ77tVXH9AAFwuAX2-2" target="pH8SqsxWgnGX5VRnkgVK-13" edge="1">
          <mxGeometry width="50" height="50" relative="1" as="geometry">
            <mxPoint x="520" y="400" as="sourcePoint" />
            <mxPoint x="570" y="350" as="targetPoint" />
            <Array as="points">
              <mxPoint x="440" y="520" />
              <mxPoint x="440" y="595" />
            </Array>
          </mxGeometry>
        </mxCell>
        <mxCell id="pH8SqsxWgnGX5VRnkgVK-34" value="" style="endArrow=none;html=1;rounded=0;fillColor=#60a917;strokeColor=#2D7600;" parent="1" edge="1">
          <mxGeometry width="50" height="50" relative="1" as="geometry">
            <mxPoint x="480" y="565" as="sourcePoint" />
            <mxPoint x="480" y="505" as="targetPoint" />
          </mxGeometry>
        </mxCell>
        <mxCell id="pH8SqsxWgnGX5VRnkgVK-35" value="&lt;font style=&quot;color: light-dark(rgb(0, 0, 0), rgb(102, 178, 255));&quot;&gt;Chip select&lt;/font&gt;" style="text;html=1;align=center;verticalAlign=middle;whiteSpace=wrap;rounded=0;" parent="1" vertex="1">
          <mxGeometry x="570" y="370" width="70" height="30" as="geometry" />
        </mxCell>
        <mxCell id="pH8SqsxWgnGX5VRnkgVK-36" value="&lt;font style=&quot;color: light-dark(rgb(0, 0, 0), rgb(51, 255, 51));&quot;&gt;Adressbus&lt;/font&gt;" style="text;html=1;align=center;verticalAlign=middle;whiteSpace=wrap;rounded=0;" parent="1" vertex="1">
          <mxGeometry x="400" y="120" width="60" height="30" as="geometry" />
        </mxCell>
        <mxCell id="pH8SqsxWgnGX5VRnkgVK-37" value="&lt;font style=&quot;color: light-dark(rgb(0, 0, 0), rgb(255, 102, 102));&quot;&gt;Databus&lt;/font&gt;" style="text;html=1;align=center;verticalAlign=middle;whiteSpace=wrap;rounded=0;" parent="1" vertex="1">
          <mxGeometry x="660" y="120" width="60" height="30" as="geometry" />
        </mxCell>
        <mxCell id="pH8SqsxWgnGX5VRnkgVK-38" value="&lt;font style=&quot;color: light-dark(rgb(0, 0, 0), rgb(51, 255, 51));&quot;&gt;Adress&lt;/font&gt;" style="text;html=1;align=center;verticalAlign=middle;whiteSpace=wrap;rounded=0;" parent="1" vertex="1">
          <mxGeometry x="670" y="490" width="60" height="30" as="geometry" />
        </mxCell>
        <mxCell id="pH8SqsxWgnGX5VRnkgVK-39" value="&lt;font style=&quot;color: light-dark(rgb(0, 0, 0), rgb(51, 255, 51));&quot;&gt;Adress&lt;/font&gt;" style="text;html=1;align=center;verticalAlign=middle;whiteSpace=wrap;rounded=0;" parent="1" vertex="1">
          <mxGeometry x="420" y="480" width="60" height="30" as="geometry" />
        </mxCell>
        <mxCell id="pH8SqsxWgnGX5VRnkgVK-40" value="&lt;font style=&quot;color: light-dark(rgb(0, 0, 0), rgb(102, 178, 255));&quot;&gt;Chip select&lt;/font&gt;" style="text;html=1;align=center;verticalAlign=middle;whiteSpace=wrap;rounded=0;" parent="1" vertex="1">
          <mxGeometry x="560" y="570" width="70" height="30" as="geometry" />
        </mxCell>
        <mxCell id="pH8SqsxWgnGX5VRnkgVK-41" value="&lt;font style=&quot;color: light-dark(rgb(0, 0, 0), rgb(255, 102, 102));&quot;&gt;Data + Adress&lt;/font&gt;" style="text;html=1;align=center;verticalAlign=middle;whiteSpace=wrap;rounded=0;" parent="1" vertex="1">
          <mxGeometry x="560" y="610" width="85" height="30" as="geometry" />
        </mxCell>
        <mxCell id="pH8SqsxWgnGX5VRnkgVK-42" value="APU" style="rounded=0;whiteSpace=wrap;html=1;" parent="1" vertex="1">
          <mxGeometry x="580" y="180" width="50" height="60" as="geometry" />
        </mxCell>
        <mxCell id="XM-miEspWKbVtbNxy1s8-1" value="Hex-Inverter" style="rounded=0;whiteSpace=wrap;html=1;" parent="1" vertex="1">
          <mxGeometry x="810" y="30" width="70" height="60" as="geometry" />
        </mxCell>
      </root>
    </mxGraphModel>
  </diagram>
  <diagram id="fhpvUHNCYDzhRqWh7Ifu" name="PPU">
    <mxGraphModel dx="1402" dy="1604" grid="1" gridSize="10" guides="1" tooltips="1" connect="1" arrows="1" fold="1" page="1" pageScale="1" pageWidth="1169" pageHeight="827" math="0" shadow="0">
      <root>
        <mxCell id="0" />
        <mxCell id="1" parent="0" />
        <mxCell id="-WLyqiIy7ouEO3viHSd7-15" value="" style="shape=flexArrow;endArrow=classic;startArrow=classic;html=1;rounded=0;" parent="1" edge="1">
          <mxGeometry width="100" height="100" relative="1" as="geometry">
            <mxPoint x="240" y="277" as="sourcePoint" />
            <mxPoint x="520" y="277" as="targetPoint" />
          </mxGeometry>
        </mxCell>
        <mxCell id="-WLyqiIy7ouEO3viHSd7-16" value="&lt;div&gt;Databus&lt;/div&gt;&lt;div&gt;(_io_db)&lt;/div&gt;" style="text;html=1;align=center;verticalAlign=middle;whiteSpace=wrap;rounded=0;" parent="1" vertex="1">
          <mxGeometry x="310" y="240" width="60" height="30" as="geometry" />
        </mxCell>
        <mxCell id="-WLyqiIy7ouEO3viHSd7-14" value="&lt;div&gt;Latch&lt;/div&gt;8-bit" style="rounded=0;whiteSpace=wrap;html=1;" parent="1" vertex="1">
          <mxGeometry x="400" y="257" width="80" height="40" as="geometry" />
        </mxCell>
        <mxCell id="IdrlgetaaiCS8J09bMFq-10" value="&lt;div&gt;MUX&lt;/div&gt;(mux_prio)" style="rounded=0;whiteSpace=wrap;html=1;" parent="1" vertex="1">
          <mxGeometry x="2990" y="480" width="120" height="60" as="geometry" />
        </mxCell>
        <mxCell id="IdrlgetaaiCS8J09bMFq-11" value="" style="endArrow=classic;html=1;rounded=0;exitX=0.5;exitY=1;exitDx=0;exitDy=0;entryX=0.25;entryY=0;entryDx=0;entryDy=0;" parent="1" target="IdrlgetaaiCS8J09bMFq-10" edge="1">
          <mxGeometry width="50" height="50" relative="1" as="geometry">
            <mxPoint x="3019.4700000000003" y="380" as="sourcePoint" />
            <mxPoint x="3019.4700000000003" y="430" as="targetPoint" />
          </mxGeometry>
        </mxCell>
        <mxCell id="IdrlgetaaiCS8J09bMFq-13" value="" style="endArrow=classic;html=1;rounded=0;exitX=0.5;exitY=1;exitDx=0;exitDy=0;entryX=0.5;entryY=0;entryDx=0;entryDy=0;" parent="1" source="IdrlgetaaiCS8J09bMFq-10" target="PWImsXqPBMbIbsKMf3on-2" edge="1">
          <mxGeometry width="50" height="50" relative="1" as="geometry">
            <mxPoint x="2920" y="200" as="sourcePoint" />
            <mxPoint x="3060" y="590" as="targetPoint" />
          </mxGeometry>
        </mxCell>
        <mxCell id="IdrlgetaaiCS8J09bMFq-14" value="&lt;div align=&quot;left&quot;&gt;o_color_pixel&lt;/div&gt;" style="text;html=1;align=left;verticalAlign=middle;whiteSpace=wrap;rounded=0;" parent="1" vertex="1">
          <mxGeometry x="3060" y="780" width="80" height="30" as="geometry" />
        </mxCell>
        <mxCell id="40SjHxVpbjJjj8Rf09kr-1" value="VGA Encoder" style="rounded=0;whiteSpace=wrap;html=1;" parent="1" vertex="1">
          <mxGeometry x="2990" y="880" width="120" height="60" as="geometry" />
        </mxCell>
        <mxCell id="40SjHxVpbjJjj8Rf09kr-31" value="" style="endArrow=none;dashed=1;html=1;rounded=0;dashPattern=1 4;" parent="1" edge="1">
          <mxGeometry width="50" height="50" relative="1" as="geometry">
            <mxPoint x="360" y="490" as="sourcePoint" />
            <mxPoint x="360" y="40" as="targetPoint" />
            <Array as="points">
              <mxPoint x="760" y="490" />
              <mxPoint x="760" y="40" />
            </Array>
          </mxGeometry>
        </mxCell>
        <mxCell id="40SjHxVpbjJjj8Rf09kr-32" value="CPU address space" style="text;html=1;align=center;verticalAlign=middle;whiteSpace=wrap;rounded=0;" parent="1" vertex="1">
          <mxGeometry x="360" y="40" width="120" height="30" as="geometry" />
        </mxCell>
        <mxCell id="40SjHxVpbjJjj8Rf09kr-38" value="" style="endArrow=none;dashed=1;html=1;dashPattern=8 8;strokeWidth=1;rounded=0;" parent="1" edge="1">
          <mxGeometry width="50" height="50" relative="1" as="geometry">
            <mxPoint x="680" y="-400" as="sourcePoint" />
            <mxPoint x="1280" y="-400" as="targetPoint" />
            <Array as="points">
              <mxPoint x="680" />
              <mxPoint x="1280" />
            </Array>
          </mxGeometry>
        </mxCell>
        <mxCell id="40SjHxVpbjJjj8Rf09kr-52" style="edgeStyle=orthogonalEdgeStyle;rounded=0;orthogonalLoop=1;jettySize=auto;html=1;exitX=0.5;exitY=1;exitDx=0;exitDy=0;" parent="1" edge="1">
          <mxGeometry relative="1" as="geometry">
            <mxPoint x="2285" y="470" as="sourcePoint" />
            <mxPoint x="2285" y="470" as="targetPoint" />
          </mxGeometry>
        </mxCell>
        <mxCell id="40SjHxVpbjJjj8Rf09kr-58" style="edgeStyle=orthogonalEdgeStyle;rounded=0;orthogonalLoop=1;jettySize=auto;html=1;exitX=0.5;exitY=1;exitDx=0;exitDy=0;" parent="1" edge="1">
          <mxGeometry relative="1" as="geometry">
            <mxPoint x="1615" y="1113" as="sourcePoint" />
            <mxPoint x="1615" y="1113" as="targetPoint" />
          </mxGeometry>
        </mxCell>
        <mxCell id="40SjHxVpbjJjj8Rf09kr-63" value="" style="shape=flexArrow;endArrow=classic;startArrow=classic;html=1;rounded=0;" parent="1" edge="1">
          <mxGeometry width="100" height="100" relative="1" as="geometry">
            <mxPoint x="720" y="300" as="sourcePoint" />
            <mxPoint x="1360" y="300" as="targetPoint" />
          </mxGeometry>
        </mxCell>
        <mxCell id="40SjHxVpbjJjj8Rf09kr-64" value="&lt;div&gt;Cartridge&lt;/div&gt;&lt;font style=&quot;font-size: 10px;&quot;&gt;CHR-RAM/ROM&lt;/font&gt;" style="text;html=1;align=center;verticalAlign=middle;whiteSpace=wrap;rounded=0;" parent="1" vertex="1">
          <mxGeometry x="680" y="-370" width="80" height="30" as="geometry" />
        </mxCell>
        <mxCell id="40SjHxVpbjJjj8Rf09kr-65" value="&lt;div&gt;&lt;a href=&quot;https://www.nesdev.org/wiki/PPU_OAM&quot;&gt;OAM&lt;/a&gt;&lt;/div&gt;&lt;div&gt;&lt;font style=&quot;font-size: 10px;&quot;&gt;(Object Attribute Memory)&lt;/font&gt;&lt;/div&gt;&lt;div&gt;for Sprites&lt;/div&gt;" style="rounded=0;whiteSpace=wrap;html=1;" parent="1" vertex="1">
          <mxGeometry x="1360" y="720" width="120" height="60" as="geometry" />
        </mxCell>
        <mxCell id="40SjHxVpbjJjj8Rf09kr-85" value="" style="group" parent="1" vertex="1" connectable="0">
          <mxGeometry x="720" y="-300" width="430" height="260" as="geometry" />
        </mxCell>
        <mxCell id="WBwW-7SIIHxNUQilmxh3-1" value="" style="rounded=0;whiteSpace=wrap;html=1;" parent="40SjHxVpbjJjj8Rf09kr-85" vertex="1">
          <mxGeometry width="430" height="260" as="geometry" />
        </mxCell>
        <mxCell id="40SjHxVpbjJjj8Rf09kr-12" value="&lt;div&gt;&lt;a href=&quot;https://www.nesdev.org/wiki/PPU_pattern_tables&quot;&gt;&lt;u&gt;Pattern tables&lt;/u&gt;&lt;/a&gt;&lt;/div&gt;for the shape of background- and sprite-tiles" style="text;html=1;align=center;verticalAlign=middle;whiteSpace=wrap;rounded=0;" parent="40SjHxVpbjJjj8Rf09kr-85" vertex="1">
          <mxGeometry width="430" height="40" as="geometry" />
        </mxCell>
        <mxCell id="40SjHxVpbjJjj8Rf09kr-13" value="" style="rounded=0;whiteSpace=wrap;html=1;dashed=1;strokeColor=default;dashPattern=1 4;" parent="40SjHxVpbjJjj8Rf09kr-85" vertex="1">
          <mxGeometry x="10" y="50" width="200" height="200" as="geometry" />
        </mxCell>
        <mxCell id="40SjHxVpbjJjj8Rf09kr-14" value="" style="rounded=0;whiteSpace=wrap;html=1;dashed=1;dashPattern=1 4;" parent="40SjHxVpbjJjj8Rf09kr-85" vertex="1">
          <mxGeometry x="220" y="50" width="200" height="200" as="geometry" />
        </mxCell>
        <mxCell id="40SjHxVpbjJjj8Rf09kr-21" style="edgeStyle=orthogonalEdgeStyle;rounded=0;orthogonalLoop=1;jettySize=auto;html=1;exitX=0.5;exitY=1;exitDx=0;exitDy=0;" parent="40SjHxVpbjJjj8Rf09kr-85" source="WBwW-7SIIHxNUQilmxh3-1" target="WBwW-7SIIHxNUQilmxh3-1" edge="1">
          <mxGeometry relative="1" as="geometry" />
        </mxCell>
        <mxCell id="40SjHxVpbjJjj8Rf09kr-22" value="Pattern table &quot;left&quot; ($0000 - $0FFF)" style="text;html=1;align=center;verticalAlign=middle;whiteSpace=wrap;rounded=0;" parent="40SjHxVpbjJjj8Rf09kr-85" vertex="1">
          <mxGeometry x="10" y="50" width="200" height="20" as="geometry" />
        </mxCell>
        <mxCell id="40SjHxVpbjJjj8Rf09kr-23" value="Pattern table &quot;right&quot; ($1000 - $1FFF)" style="text;html=1;align=center;verticalAlign=middle;whiteSpace=wrap;rounded=0;" parent="40SjHxVpbjJjj8Rf09kr-85" vertex="1">
          <mxGeometry x="220" y="50" width="200" height="20" as="geometry" />
        </mxCell>
        <mxCell id="40SjHxVpbjJjj8Rf09kr-24" value="" style="rounded=0;whiteSpace=wrap;html=1;" parent="40SjHxVpbjJjj8Rf09kr-85" vertex="1">
          <mxGeometry x="50" y="90" width="150" height="150" as="geometry" />
        </mxCell>
        <mxCell id="40SjHxVpbjJjj8Rf09kr-25" value="" style="rounded=0;whiteSpace=wrap;html=1;" parent="40SjHxVpbjJjj8Rf09kr-85" vertex="1">
          <mxGeometry x="230" y="90" width="150" height="150" as="geometry" />
        </mxCell>
        <mxCell id="40SjHxVpbjJjj8Rf09kr-26" value="0 1 2 3 4 5 6 7 8 9 a b c d e f" style="text;html=1;align=center;verticalAlign=middle;whiteSpace=wrap;rounded=0;fontSize=11;" parent="40SjHxVpbjJjj8Rf09kr-85" vertex="1">
          <mxGeometry x="50" y="70" width="150" height="20" as="geometry" />
        </mxCell>
        <mxCell id="40SjHxVpbjJjj8Rf09kr-27" value="&lt;div&gt;00&lt;/div&gt;&lt;div&gt;10&lt;/div&gt;&lt;div&gt;20&lt;/div&gt;&lt;div&gt;30&lt;/div&gt;&lt;div&gt;40&lt;/div&gt;&lt;div&gt;50&lt;/div&gt;&lt;div&gt;60&lt;/div&gt;&lt;div&gt;70&lt;/div&gt;&lt;div&gt;80&lt;/div&gt;&lt;div&gt;90&lt;/div&gt;&lt;div&gt;a0&lt;/div&gt;&lt;div&gt;b0&lt;/div&gt;&lt;div&gt;c0&lt;/div&gt;&lt;div&gt;d0&lt;/div&gt;&lt;div&gt;e0&lt;/div&gt;&lt;div&gt;f0&lt;/div&gt;" style="text;html=1;align=center;verticalAlign=middle;whiteSpace=wrap;rounded=0;fontSize=8;" parent="40SjHxVpbjJjj8Rf09kr-85" vertex="1">
          <mxGeometry x="30" y="90" width="20" height="150" as="geometry" />
        </mxCell>
        <mxCell id="40SjHxVpbjJjj8Rf09kr-28" value="0 1 2 3 4 5 6 7 8 9 a b c d e f" style="text;html=1;align=center;verticalAlign=middle;whiteSpace=wrap;rounded=0;fontSize=11;" parent="40SjHxVpbjJjj8Rf09kr-85" vertex="1">
          <mxGeometry x="230" y="70" width="150" height="20" as="geometry" />
        </mxCell>
        <mxCell id="40SjHxVpbjJjj8Rf09kr-86" value="" style="group" parent="1" vertex="1" connectable="0">
          <mxGeometry x="1360" y="80" width="430" height="430" as="geometry" />
        </mxCell>
        <mxCell id="40SjHxVpbjJjj8Rf09kr-39" value="" style="rounded=0;whiteSpace=wrap;html=1;" parent="40SjHxVpbjJjj8Rf09kr-86" vertex="1">
          <mxGeometry width="430" height="430" as="geometry" />
        </mxCell>
        <mxCell id="40SjHxVpbjJjj8Rf09kr-40" value="&lt;div&gt;&lt;a href=&quot;https://www.nesdev.org/wiki/PPU_nametables&quot;&gt;&lt;u&gt;Nametables&lt;/u&gt;&lt;/a&gt;&lt;/div&gt;for Background layouts" style="text;html=1;align=center;verticalAlign=middle;whiteSpace=wrap;rounded=0;" parent="40SjHxVpbjJjj8Rf09kr-86" vertex="1">
          <mxGeometry width="430" height="40" as="geometry" />
        </mxCell>
        <mxCell id="40SjHxVpbjJjj8Rf09kr-41" value="" style="rounded=0;whiteSpace=wrap;html=1;dashed=1;strokeColor=default;dashPattern=1 4;" parent="40SjHxVpbjJjj8Rf09kr-86" vertex="1">
          <mxGeometry x="30" y="50" width="180" height="180" as="geometry" />
        </mxCell>
        <mxCell id="40SjHxVpbjJjj8Rf09kr-42" value="" style="rounded=0;whiteSpace=wrap;html=1;dashed=1;dashPattern=1 4;" parent="40SjHxVpbjJjj8Rf09kr-86" vertex="1">
          <mxGeometry x="220" y="50" width="180" height="180" as="geometry" />
        </mxCell>
        <mxCell id="40SjHxVpbjJjj8Rf09kr-43" style="edgeStyle=orthogonalEdgeStyle;rounded=0;orthogonalLoop=1;jettySize=auto;html=1;exitX=0.5;exitY=1;exitDx=0;exitDy=0;" parent="40SjHxVpbjJjj8Rf09kr-86" source="40SjHxVpbjJjj8Rf09kr-39" target="40SjHxVpbjJjj8Rf09kr-39" edge="1">
          <mxGeometry relative="1" as="geometry" />
        </mxCell>
        <mxCell id="40SjHxVpbjJjj8Rf09kr-44" value="nametable top left ($2000)" style="text;html=1;align=center;verticalAlign=middle;whiteSpace=wrap;rounded=0;" parent="40SjHxVpbjJjj8Rf09kr-86" vertex="1">
          <mxGeometry x="30" y="50" width="190" height="20" as="geometry" />
        </mxCell>
        <mxCell id="40SjHxVpbjJjj8Rf09kr-45" value="nametable top right ($2400)" style="text;html=1;align=center;verticalAlign=middle;whiteSpace=wrap;rounded=0;" parent="40SjHxVpbjJjj8Rf09kr-86" vertex="1">
          <mxGeometry x="220" y="50" width="180" height="20" as="geometry" />
        </mxCell>
        <mxCell id="40SjHxVpbjJjj8Rf09kr-51" value="" style="rounded=0;whiteSpace=wrap;html=1;dashed=1;strokeColor=default;dashPattern=1 4;" parent="40SjHxVpbjJjj8Rf09kr-86" vertex="1">
          <mxGeometry x="30" y="240" width="180" height="180" as="geometry" />
        </mxCell>
        <mxCell id="40SjHxVpbjJjj8Rf09kr-53" value="nametable bottom left ($2800)" style="text;html=1;align=center;verticalAlign=middle;whiteSpace=wrap;rounded=0;" parent="40SjHxVpbjJjj8Rf09kr-86" vertex="1">
          <mxGeometry x="30" y="240" width="180" height="20" as="geometry" />
        </mxCell>
        <mxCell id="40SjHxVpbjJjj8Rf09kr-57" value="" style="rounded=0;whiteSpace=wrap;html=1;dashed=1;strokeColor=default;dashPattern=1 4;" parent="40SjHxVpbjJjj8Rf09kr-86" vertex="1">
          <mxGeometry x="220" y="240" width="180" height="180" as="geometry" />
        </mxCell>
        <mxCell id="40SjHxVpbjJjj8Rf09kr-59" value="nametable bottom right ($2C00)" style="text;html=1;align=center;verticalAlign=middle;whiteSpace=wrap;rounded=0;" parent="40SjHxVpbjJjj8Rf09kr-86" vertex="1">
          <mxGeometry x="220" y="240" width="180" height="20" as="geometry" />
        </mxCell>
        <mxCell id="40SjHxVpbjJjj8Rf09kr-81" value="&lt;div&gt;&lt;a href=&quot;https://www.nesdev.org/wiki/PPU_attribute_tables&quot;&gt;Attribute table&lt;/a&gt;&lt;/div&gt;&lt;div&gt;&lt;font style=&quot;font-size: 10px;&quot;&gt;for palette assignment&lt;/font&gt;&lt;/div&gt;" style="rounded=0;whiteSpace=wrap;html=1;dashed=1;dashPattern=1 4;" parent="40SjHxVpbjJjj8Rf09kr-86" vertex="1">
          <mxGeometry x="30" y="200" width="180" height="30" as="geometry" />
        </mxCell>
        <mxCell id="40SjHxVpbjJjj8Rf09kr-82" value="&lt;div&gt;Attribute table&lt;/div&gt;&lt;div&gt;&lt;font style=&quot;font-size: 10px;&quot;&gt;for palette assignment&lt;/font&gt;&lt;/div&gt;" style="rounded=0;whiteSpace=wrap;html=1;dashed=1;dashPattern=1 4;" parent="40SjHxVpbjJjj8Rf09kr-86" vertex="1">
          <mxGeometry x="220" y="200" width="180" height="30" as="geometry" />
        </mxCell>
        <mxCell id="40SjHxVpbjJjj8Rf09kr-83" value="&lt;div&gt;Attribute table&lt;/div&gt;&lt;div&gt;&lt;font style=&quot;font-size: 10px;&quot;&gt;for palette assignment&lt;/font&gt;&lt;/div&gt;" style="rounded=0;whiteSpace=wrap;html=1;dashed=1;dashPattern=1 4;" parent="40SjHxVpbjJjj8Rf09kr-86" vertex="1">
          <mxGeometry x="30" y="390" width="180" height="30" as="geometry" />
        </mxCell>
        <mxCell id="40SjHxVpbjJjj8Rf09kr-84" value="&lt;div&gt;Attribute table&lt;/div&gt;&lt;div&gt;&lt;font style=&quot;font-size: 10px;&quot;&gt;for palette assignment&lt;/font&gt;&lt;/div&gt;" style="rounded=0;whiteSpace=wrap;html=1;dashed=1;dashPattern=1 4;" parent="40SjHxVpbjJjj8Rf09kr-86" vertex="1">
          <mxGeometry x="220" y="390" width="180" height="30" as="geometry" />
        </mxCell>
        <mxCell id="40SjHxVpbjJjj8Rf09kr-88" value="" style="group" parent="1" vertex="1" connectable="0">
          <mxGeometry x="520" y="80" width="200" height="400" as="geometry" />
        </mxCell>
        <mxCell id="-WLyqiIy7ouEO3viHSd7-12" value="" style="rounded=0;whiteSpace=wrap;html=1;" parent="40SjHxVpbjJjj8Rf09kr-88" vertex="1">
          <mxGeometry width="200" height="400" as="geometry" />
        </mxCell>
        <mxCell id="-WLyqiIy7ouEO3viHSd7-1" value="PPUCTRL" style="rounded=0;whiteSpace=wrap;html=1;" parent="40SjHxVpbjJjj8Rf09kr-88" vertex="1">
          <mxGeometry x="30.769999999999996" y="39.99829268292683" width="89.23" height="39.02439024390244" as="geometry" />
        </mxCell>
        <mxCell id="-WLyqiIy7ouEO3viHSd7-2" value="PPUMASK" style="rounded=0;whiteSpace=wrap;html=1;" parent="40SjHxVpbjJjj8Rf09kr-88" vertex="1">
          <mxGeometry x="30.769999999999996" y="79.02268292682925" width="89.23" height="39.02439024390244" as="geometry" />
        </mxCell>
        <mxCell id="-WLyqiIy7ouEO3viHSd7-3" value="PPUSTATUS" style="rounded=0;whiteSpace=wrap;html=1;" parent="40SjHxVpbjJjj8Rf09kr-88" vertex="1">
          <mxGeometry x="30.769999999999996" y="118.04707317073166" width="89.23" height="39.02439024390244" as="geometry" />
        </mxCell>
        <mxCell id="-WLyqiIy7ouEO3viHSd7-4" value="OAMADDR" style="rounded=0;whiteSpace=wrap;html=1;" parent="40SjHxVpbjJjj8Rf09kr-88" vertex="1">
          <mxGeometry x="30.769999999999996" y="157.07146341463408" width="89.23" height="39.02439024390244" as="geometry" />
        </mxCell>
        <mxCell id="-WLyqiIy7ouEO3viHSd7-6" value="OAMDMA" style="rounded=0;whiteSpace=wrap;html=1;" parent="40SjHxVpbjJjj8Rf09kr-88" vertex="1">
          <mxGeometry x="30.769999999999996" y="352.1934146341464" width="89.23" height="39.02439024390244" as="geometry" />
        </mxCell>
        <mxCell id="-WLyqiIy7ouEO3viHSd7-7" value="PPUDATA" style="rounded=0;whiteSpace=wrap;html=1;" parent="40SjHxVpbjJjj8Rf09kr-88" vertex="1">
          <mxGeometry x="30.769999999999996" y="313.169024390244" width="89.23" height="39.02439024390244" as="geometry" />
        </mxCell>
        <mxCell id="-WLyqiIy7ouEO3viHSd7-8" value="PPUADDR" style="rounded=0;whiteSpace=wrap;html=1;" parent="40SjHxVpbjJjj8Rf09kr-88" vertex="1">
          <mxGeometry x="30.769999999999996" y="274.14463414634156" width="89.23" height="39.02439024390244" as="geometry" />
        </mxCell>
        <mxCell id="-WLyqiIy7ouEO3viHSd7-9" value="PPUSCROLL" style="rounded=0;whiteSpace=wrap;html=1;" parent="40SjHxVpbjJjj8Rf09kr-88" vertex="1">
          <mxGeometry x="30.769999999999996" y="235.12024390243903" width="89.23" height="39.02439024390244" as="geometry" />
        </mxCell>
        <mxCell id="-WLyqiIy7ouEO3viHSd7-10" value="OAMDATA" style="rounded=0;whiteSpace=wrap;html=1;" parent="40SjHxVpbjJjj8Rf09kr-88" vertex="1">
          <mxGeometry x="30.769999999999996" y="196.0958536585366" width="89.23" height="39.02439024390244" as="geometry" />
        </mxCell>
        <mxCell id="-WLyqiIy7ouEO3viHSd7-13" value="&lt;div&gt;&lt;a href=&quot;https://www.nesdev.org/wiki/PPU_registers&quot;&gt;MMIO registers&lt;/a&gt;&lt;/div&gt;&lt;font style=&quot;font-size: 10px;&quot;&gt;memory mapped to CPU&lt;/font&gt;" style="text;html=1;align=center;verticalAlign=middle;whiteSpace=wrap;rounded=0;" parent="40SjHxVpbjJjj8Rf09kr-88" vertex="1">
          <mxGeometry x="30.769230769230774" width="138.46153846153848" height="29.268292682926827" as="geometry" />
        </mxCell>
        <mxCell id="40SjHxVpbjJjj8Rf09kr-2" value="&lt;div&gt;$2000&lt;/div&gt;&lt;div&gt;W&lt;/div&gt;" style="text;html=1;align=center;verticalAlign=middle;whiteSpace=wrap;rounded=0;" parent="40SjHxVpbjJjj8Rf09kr-88" vertex="1">
          <mxGeometry x="120" y="39.99829268292683" width="50" height="39.02439024390244" as="geometry" />
        </mxCell>
        <mxCell id="40SjHxVpbjJjj8Rf09kr-4" value="&lt;div&gt;$2001&lt;/div&gt;&lt;div&gt;W&lt;/div&gt;" style="text;html=1;align=center;verticalAlign=middle;whiteSpace=wrap;rounded=0;" parent="40SjHxVpbjJjj8Rf09kr-88" vertex="1">
          <mxGeometry x="120" y="79.02268292682925" width="50" height="39.02439024390244" as="geometry" />
        </mxCell>
        <mxCell id="40SjHxVpbjJjj8Rf09kr-5" value="&lt;div&gt;$2002&lt;/div&gt;&lt;div&gt;R&lt;/div&gt;" style="text;html=1;align=center;verticalAlign=middle;whiteSpace=wrap;rounded=0;" parent="40SjHxVpbjJjj8Rf09kr-88" vertex="1">
          <mxGeometry x="120" y="118.04707317073166" width="50" height="39.02439024390244" as="geometry" />
        </mxCell>
        <mxCell id="40SjHxVpbjJjj8Rf09kr-6" value="&lt;div&gt;$2003&lt;/div&gt;&lt;div&gt;W&lt;/div&gt;" style="text;html=1;align=center;verticalAlign=middle;whiteSpace=wrap;rounded=0;" parent="40SjHxVpbjJjj8Rf09kr-88" vertex="1">
          <mxGeometry x="120" y="157.07146341463408" width="50" height="39.02439024390244" as="geometry" />
        </mxCell>
        <mxCell id="40SjHxVpbjJjj8Rf09kr-7" value="&lt;div&gt;$2004&lt;/div&gt;&lt;div&gt;RW&lt;/div&gt;" style="text;html=1;align=center;verticalAlign=middle;whiteSpace=wrap;rounded=0;" parent="40SjHxVpbjJjj8Rf09kr-88" vertex="1">
          <mxGeometry x="120" y="196.0958536585366" width="50" height="39.02439024390244" as="geometry" />
        </mxCell>
        <mxCell id="40SjHxVpbjJjj8Rf09kr-8" value="&lt;div&gt;$2005&lt;/div&gt;&lt;div&gt;Wx2&lt;/div&gt;" style="text;html=1;align=center;verticalAlign=middle;whiteSpace=wrap;rounded=0;" parent="40SjHxVpbjJjj8Rf09kr-88" vertex="1">
          <mxGeometry x="119.22999999999999" y="235.12024390243903" width="50" height="39.02439024390244" as="geometry" />
        </mxCell>
        <mxCell id="40SjHxVpbjJjj8Rf09kr-9" value="&lt;div&gt;$2006&lt;/div&gt;&lt;div&gt;Wx2&lt;/div&gt;" style="text;html=1;align=center;verticalAlign=middle;whiteSpace=wrap;rounded=0;" parent="40SjHxVpbjJjj8Rf09kr-88" vertex="1">
          <mxGeometry x="120" y="274.14463414634156" width="50" height="39.02439024390244" as="geometry" />
        </mxCell>
        <mxCell id="40SjHxVpbjJjj8Rf09kr-10" value="&lt;div&gt;$2007&lt;/div&gt;&lt;div&gt;RW&lt;/div&gt;" style="text;html=1;align=center;verticalAlign=middle;whiteSpace=wrap;rounded=0;" parent="40SjHxVpbjJjj8Rf09kr-88" vertex="1">
          <mxGeometry x="120" y="313.169024390244" width="50" height="39.02439024390244" as="geometry" />
        </mxCell>
        <mxCell id="40SjHxVpbjJjj8Rf09kr-11" value="&lt;div&gt;$4014&lt;/div&gt;&lt;div&gt;W&lt;/div&gt;" style="text;html=1;align=center;verticalAlign=middle;whiteSpace=wrap;rounded=0;" parent="40SjHxVpbjJjj8Rf09kr-88" vertex="1">
          <mxGeometry x="120" y="352.1934146341464" width="50" height="39.02439024390244" as="geometry" />
        </mxCell>
        <mxCell id="40SjHxVpbjJjj8Rf09kr-70" value="" style="rounded=0;whiteSpace=wrap;html=1;" parent="1" vertex="1">
          <mxGeometry x="2240" y="370" width="200" height="320" as="geometry" />
        </mxCell>
        <mxCell id="40SjHxVpbjJjj8Rf09kr-71" value="&lt;div&gt;&lt;a href=&quot;https://www.nesdev.org/wiki/PPU_scrolling&quot;&gt;Internal registers&lt;/a&gt;&lt;/div&gt;" style="text;html=1;align=center;verticalAlign=middle;whiteSpace=wrap;rounded=0;" parent="1" vertex="1">
          <mxGeometry x="2240" y="370" width="200" height="30" as="geometry" />
        </mxCell>
        <mxCell id="40SjHxVpbjJjj8Rf09kr-72" value="&lt;div&gt;v&lt;/div&gt;&lt;div&gt;&lt;font style=&quot;font-size: 10px;&quot;&gt;(Current VRAM address, 15 bits)&lt;/font&gt;&lt;/div&gt;" style="rounded=0;whiteSpace=wrap;html=1;" parent="1" vertex="1">
          <mxGeometry x="2260" y="410" width="120" height="60" as="geometry" />
        </mxCell>
        <mxCell id="40SjHxVpbjJjj8Rf09kr-73" value="&lt;div&gt;t&lt;/div&gt;&lt;div&gt;&lt;font style=&quot;font-size: 10px;&quot;&gt;(Temp. VRAM address, 15 bits, can also be address of top left onscreen tile)&lt;/font&gt;&lt;/div&gt;" style="rounded=0;whiteSpace=wrap;html=1;" parent="1" vertex="1">
          <mxGeometry x="2260" y="480" width="120" height="60" as="geometry" />
        </mxCell>
        <mxCell id="40SjHxVpbjJjj8Rf09kr-74" value="&lt;div&gt;x&lt;/div&gt;&lt;div&gt;&lt;font style=&quot;font-size: 10px;&quot;&gt;(Fine X scroll, 3 bits)&lt;/font&gt;&lt;/div&gt;" style="rounded=0;whiteSpace=wrap;html=1;" parent="1" vertex="1">
          <mxGeometry x="2260" y="550" width="120" height="60" as="geometry" />
        </mxCell>
        <mxCell id="40SjHxVpbjJjj8Rf09kr-75" value="&lt;div&gt;w&lt;/div&gt;&lt;div&gt;&lt;font style=&quot;font-size: 10px;&quot;&gt;(First or second write toggle, 1 bit)&lt;/font&gt;&lt;/div&gt;" style="rounded=0;whiteSpace=wrap;html=1;" parent="1" vertex="1">
          <mxGeometry x="2260" y="620" width="120" height="60" as="geometry" />
        </mxCell>
        <mxCell id="PWImsXqPBMbIbsKMf3on-1" value="CPU" style="text;html=1;align=center;verticalAlign=middle;whiteSpace=wrap;rounded=0;" parent="1" vertex="1">
          <mxGeometry x="170" y="262" width="60" height="30" as="geometry" />
        </mxCell>
        <mxCell id="PWImsXqPBMbIbsKMf3on-2" value="&lt;div&gt;MUX&lt;/div&gt;(mux_ext)" style="rounded=0;whiteSpace=wrap;html=1;" parent="1" vertex="1">
          <mxGeometry x="2990" y="600" width="120" height="60" as="geometry" />
        </mxCell>
        <mxCell id="PWImsXqPBMbIbsKMf3on-3" value="" style="endArrow=classic;html=1;rounded=0;exitX=0.5;exitY=1;exitDx=0;exitDy=0;entryX=0.5;entryY=0;entryDx=0;entryDy=0;" parent="1" source="PWImsXqPBMbIbsKMf3on-2" target="PWImsXqPBMbIbsKMf3on-8" edge="1">
          <mxGeometry width="50" height="50" relative="1" as="geometry">
            <mxPoint x="2920" y="334" as="sourcePoint" />
            <mxPoint x="3050" y="735" as="targetPoint" />
          </mxGeometry>
        </mxCell>
        <mxCell id="PWImsXqPBMbIbsKMf3on-5" value="Priority/Transparency" style="text;html=1;align=center;verticalAlign=middle;whiteSpace=wrap;rounded=0;" parent="1" vertex="1">
          <mxGeometry x="3120" y="495" width="70" height="30" as="geometry" />
        </mxCell>
        <mxCell id="PWImsXqPBMbIbsKMf3on-8" value="&lt;div&gt;Palette RAM&lt;/div&gt;" style="rounded=0;whiteSpace=wrap;html=1;" parent="1" vertex="1">
          <mxGeometry x="2990" y="720" width="120" height="60" as="geometry" />
        </mxCell>
        <mxCell id="PWImsXqPBMbIbsKMf3on-9" value="" style="endArrow=classic;html=1;rounded=0;exitX=0.5;exitY=1;exitDx=0;exitDy=0;entryX=0.5;entryY=0;entryDx=0;entryDy=0;" parent="1" source="PWImsXqPBMbIbsKMf3on-8" target="40SjHxVpbjJjj8Rf09kr-1" edge="1">
          <mxGeometry width="50" height="50" relative="1" as="geometry">
            <mxPoint x="3050" y="795" as="sourcePoint" />
            <mxPoint x="3050" y="850" as="targetPoint" />
          </mxGeometry>
        </mxCell>
        <mxCell id="PWImsXqPBMbIbsKMf3on-10" value="" style="endArrow=classic;html=1;rounded=0;exitX=1;exitY=0.5;exitDx=0;exitDy=0;" parent="1" source="PWImsXqPBMbIbsKMf3on-11" edge="1">
          <mxGeometry width="50" height="50" relative="1" as="geometry">
            <mxPoint x="2920" y="860" as="sourcePoint" />
            <mxPoint x="3050" y="840" as="targetPoint" />
          </mxGeometry>
        </mxCell>
        <mxCell id="PWImsXqPBMbIbsKMf3on-11" value="PPU MASK" style="text;html=1;align=center;verticalAlign=middle;whiteSpace=wrap;rounded=0;" parent="1" vertex="1">
          <mxGeometry x="2820" y="825" width="60" height="30" as="geometry" />
        </mxCell>
        <mxCell id="PWImsXqPBMbIbsKMf3on-12" value="" style="endArrow=classic;html=1;rounded=0;exitX=0.129;exitY=1.012;exitDx=0;exitDy=0;entryX=0.75;entryY=0;entryDx=0;entryDy=0;exitPerimeter=0;" parent="1" source="PWImsXqPBMbIbsKMf3on-23" target="IdrlgetaaiCS8J09bMFq-10" edge="1">
          <mxGeometry width="50" height="50" relative="1" as="geometry">
            <mxPoint x="3083" y="380" as="sourcePoint" />
            <mxPoint x="3083" y="430" as="targetPoint" />
            <Array as="points" />
          </mxGeometry>
        </mxCell>
        <mxCell id="PWImsXqPBMbIbsKMf3on-13" value="Foreground" style="text;html=1;align=right;verticalAlign=middle;whiteSpace=wrap;rounded=0;" parent="1" vertex="1">
          <mxGeometry x="2940" y="385" width="70" height="30" as="geometry" />
        </mxCell>
        <mxCell id="PWImsXqPBMbIbsKMf3on-14" value="Background" style="text;html=1;align=left;verticalAlign=middle;whiteSpace=wrap;rounded=0;" parent="1" vertex="1">
          <mxGeometry x="3090" y="385" width="70" height="30" as="geometry" />
        </mxCell>
        <mxCell id="PWImsXqPBMbIbsKMf3on-15" value="4 bit" style="text;html=1;align=center;verticalAlign=middle;whiteSpace=wrap;rounded=0;" parent="1" vertex="1">
          <mxGeometry x="3020" y="385" width="60" height="30" as="geometry" />
        </mxCell>
        <mxCell id="PWImsXqPBMbIbsKMf3on-17" value="" style="shape=flexArrow;endArrow=classic;startArrow=classic;html=1;rounded=0;" parent="1" edge="1">
          <mxGeometry width="100" height="100" relative="1" as="geometry">
            <mxPoint x="1240" y="310" as="sourcePoint" />
            <mxPoint x="1360" y="633" as="targetPoint" />
            <Array as="points">
              <mxPoint x="1240" y="633" />
            </Array>
          </mxGeometry>
        </mxCell>
        <mxCell id="PWImsXqPBMbIbsKMf3on-18" value="" style="endArrow=classic;startArrow=classic;html=1;rounded=0;exitX=0;exitY=0.5;exitDx=0;exitDy=0;" parent="1" source="40SjHxVpbjJjj8Rf09kr-65" edge="1">
          <mxGeometry width="50" height="50" relative="1" as="geometry">
            <mxPoint x="1090" y="540" as="sourcePoint" />
            <mxPoint x="760" y="410" as="targetPoint" />
            <Array as="points">
              <mxPoint x="880" y="750" />
              <mxPoint x="880" y="410" />
            </Array>
          </mxGeometry>
        </mxCell>
        <mxCell id="PWImsXqPBMbIbsKMf3on-19" value="" style="endArrow=classic;html=1;rounded=0;" parent="1" edge="1">
          <mxGeometry width="50" height="50" relative="1" as="geometry">
            <mxPoint x="2230" y="440" as="sourcePoint" />
            <mxPoint x="1800" y="340" as="targetPoint" />
            <Array as="points">
              <mxPoint x="1960" y="440" />
              <mxPoint x="1960" y="340" />
            </Array>
          </mxGeometry>
        </mxCell>
        <mxCell id="PWImsXqPBMbIbsKMf3on-21" value="" style="endArrow=classic;html=1;rounded=0;" parent="1" edge="1">
          <mxGeometry width="50" height="50" relative="1" as="geometry">
            <mxPoint x="1800" y="260" as="sourcePoint" />
            <mxPoint x="1170" y="-160" as="targetPoint" />
            <Array as="points">
              <mxPoint x="1840" y="260" />
              <mxPoint x="1840" y="-160" />
            </Array>
          </mxGeometry>
        </mxCell>
        <mxCell id="PWImsXqPBMbIbsKMf3on-22" value="" style="endArrow=classic;html=1;rounded=0;entryX=0.5;entryY=0;entryDx=0;entryDy=0;" parent="1" target="k4EhhR3FgZzLffmN_6ZO-3" edge="1">
          <mxGeometry width="50" height="50" relative="1" as="geometry">
            <mxPoint x="1160" y="-200" as="sourcePoint" />
            <mxPoint x="2510" y="-200" as="targetPoint" />
            <Array as="points">
              <mxPoint x="3380" y="-200" />
            </Array>
          </mxGeometry>
        </mxCell>
        <mxCell id="PWImsXqPBMbIbsKMf3on-23" value="&lt;div&gt;Shiftregister&lt;/div&gt;&lt;div&gt;2 bit&lt;/div&gt;" style="rounded=0;whiteSpace=wrap;html=1;" parent="1" vertex="1">
          <mxGeometry x="3070" y="320" width="80" height="60" as="geometry" />
        </mxCell>
        <mxCell id="PWImsXqPBMbIbsKMf3on-24" value="" style="endArrow=classic;html=1;rounded=0;exitX=1;exitY=0.5;exitDx=0;exitDy=0;entryX=0.5;entryY=0;entryDx=0;entryDy=0;" parent="1" source="40SjHxVpbjJjj8Rf09kr-39" target="k4EhhR3FgZzLffmN_6ZO-1" edge="1">
          <mxGeometry width="50" height="50" relative="1" as="geometry">
            <mxPoint x="1860" y="260" as="sourcePoint" />
            <mxPoint x="2180" y="190" as="targetPoint" />
            <Array as="points">
              <mxPoint x="1920" y="295" />
              <mxPoint x="1920" y="40" />
              <mxPoint x="3200" y="40" />
            </Array>
          </mxGeometry>
        </mxCell>
        <mxCell id="PWImsXqPBMbIbsKMf3on-25" value="" style="endArrow=classic;html=1;rounded=0;entryX=0.5;entryY=0;entryDx=0;entryDy=0;exitX=1;exitY=0.5;exitDx=0;exitDy=0;" parent="1" source="k4EhhR3FgZzLffmN_6ZO-17" target="k4EhhR3FgZzLffmN_6ZO-6" edge="1">
          <mxGeometry width="50" height="50" relative="1" as="geometry">
            <mxPoint x="1990" y="740" as="sourcePoint" />
            <mxPoint x="2960" y="310" as="targetPoint" />
            <Array as="points">
              <mxPoint x="2580" y="750" />
              <mxPoint x="2580" y="280" />
              <mxPoint x="2810" y="280" />
            </Array>
          </mxGeometry>
        </mxCell>
        <mxCell id="PWImsXqPBMbIbsKMf3on-27" value="" style="endArrow=classic;html=1;rounded=0;entryX=0.5;entryY=0;entryDx=0;entryDy=0;" parent="1" target="k4EhhR3FgZzLffmN_6ZO-4" edge="1">
          <mxGeometry width="50" height="50" relative="1" as="geometry">
            <mxPoint x="2990" y="-200" as="sourcePoint" />
            <mxPoint x="2919.44" y="359.81999999999994" as="targetPoint" />
          </mxGeometry>
        </mxCell>
        <mxCell id="oJprYZChhMF2hHa2oHan-1" value="" style="group" parent="1" vertex="1" connectable="0">
          <mxGeometry x="3320" y="440" width="85" height="100" as="geometry" />
        </mxCell>
        <mxCell id="oJprYZChhMF2hHa2oHan-2" value="Jannik" style="shape=umlActor;verticalLabelPosition=bottom;verticalAlign=top;html=1;outlineConnect=0;" parent="oJprYZChhMF2hHa2oHan-1" vertex="1">
          <mxGeometry x="55" y="10" width="30" height="60" as="geometry" />
        </mxCell>
        <mxCell id="oJprYZChhMF2hHa2oHan-3" value="" style="endArrow=none;html=1;rounded=0;" parent="oJprYZChhMF2hHa2oHan-1" edge="1">
          <mxGeometry width="50" height="50" relative="1" as="geometry">
            <mxPoint y="100" as="sourcePoint" />
            <mxPoint x="40" y="100" as="targetPoint" />
            <Array as="points">
              <mxPoint x="20" y="80" />
            </Array>
          </mxGeometry>
        </mxCell>
        <mxCell id="oJprYZChhMF2hHa2oHan-4" value="" style="endArrow=none;html=1;rounded=0;" parent="oJprYZChhMF2hHa2oHan-1" edge="1">
          <mxGeometry width="50" height="50" relative="1" as="geometry">
            <mxPoint x="20" y="80" as="sourcePoint" />
            <mxPoint x="70" y="10" as="targetPoint" />
            <Array as="points">
              <mxPoint x="20" />
              <mxPoint x="70" />
            </Array>
          </mxGeometry>
        </mxCell>
        <mxCell id="oJprYZChhMF2hHa2oHan-5" value="" style="group" parent="1" vertex="1" connectable="0">
          <mxGeometry x="3530" y="245" width="85" height="100" as="geometry" />
        </mxCell>
        <mxCell id="oJprYZChhMF2hHa2oHan-6" value="Maileen" style="shape=umlActor;verticalLabelPosition=bottom;verticalAlign=top;html=1;outlineConnect=0;" parent="oJprYZChhMF2hHa2oHan-5" vertex="1">
          <mxGeometry x="55" y="10" width="30" height="60" as="geometry" />
        </mxCell>
        <mxCell id="oJprYZChhMF2hHa2oHan-7" value="" style="endArrow=none;html=1;rounded=0;" parent="oJprYZChhMF2hHa2oHan-5" edge="1">
          <mxGeometry width="50" height="50" relative="1" as="geometry">
            <mxPoint y="100" as="sourcePoint" />
            <mxPoint x="40" y="100" as="targetPoint" />
            <Array as="points">
              <mxPoint x="20" y="80" />
            </Array>
          </mxGeometry>
        </mxCell>
        <mxCell id="oJprYZChhMF2hHa2oHan-8" value="" style="endArrow=none;html=1;rounded=0;" parent="oJprYZChhMF2hHa2oHan-5" edge="1">
          <mxGeometry width="50" height="50" relative="1" as="geometry">
            <mxPoint x="20" y="80" as="sourcePoint" />
            <mxPoint x="70" y="10" as="targetPoint" />
            <Array as="points">
              <mxPoint x="20" />
              <mxPoint x="70" />
            </Array>
          </mxGeometry>
        </mxCell>
        <mxCell id="k4EhhR3FgZzLffmN_6ZO-1" value="&lt;div&gt;Shiftregister&lt;/div&gt;&lt;div&gt;2 bit&lt;/div&gt;" style="rounded=0;whiteSpace=wrap;html=1;" parent="1" vertex="1">
          <mxGeometry x="3160" y="320" width="80" height="60" as="geometry" />
        </mxCell>
        <mxCell id="k4EhhR3FgZzLffmN_6ZO-2" value="&lt;div&gt;Shiftregister&lt;/div&gt;&lt;div&gt;16 bit&lt;/div&gt;" style="rounded=0;whiteSpace=wrap;html=1;" parent="1" vertex="1">
          <mxGeometry x="3250" y="320" width="80" height="60" as="geometry" />
        </mxCell>
        <mxCell id="k4EhhR3FgZzLffmN_6ZO-3" value="&lt;div&gt;Shiftregister&lt;/div&gt;&lt;div&gt;16 bit&lt;/div&gt;" style="rounded=0;whiteSpace=wrap;html=1;" parent="1" vertex="1">
          <mxGeometry x="3340" y="320" width="80" height="60" as="geometry" />
        </mxCell>
        <mxCell id="k4EhhR3FgZzLffmN_6ZO-4" value="&lt;div&gt;Shiftregister&lt;/div&gt;&lt;div&gt;16 bit&lt;/div&gt;" style="rounded=0;whiteSpace=wrap;html=1;" parent="1" vertex="1">
          <mxGeometry x="2950" y="320" width="80" height="60" as="geometry" />
        </mxCell>
        <mxCell id="k4EhhR3FgZzLffmN_6ZO-5" value="&lt;div&gt;Shiftregister&lt;/div&gt;&lt;div&gt;16 bit&lt;/div&gt;" style="rounded=0;whiteSpace=wrap;html=1;" parent="1" vertex="1">
          <mxGeometry x="2860" y="320" width="80" height="60" as="geometry" />
        </mxCell>
        <mxCell id="k4EhhR3FgZzLffmN_6ZO-6" value="&lt;div&gt;Shiftregister&lt;/div&gt;&lt;div&gt;2 bit&lt;/div&gt;" style="rounded=0;whiteSpace=wrap;html=1;" parent="1" vertex="1">
          <mxGeometry x="2770" y="320" width="80" height="60" as="geometry" />
        </mxCell>
        <mxCell id="k4EhhR3FgZzLffmN_6ZO-7" value="&lt;div&gt;Shiftregister&lt;/div&gt;&lt;div&gt;2 bit&lt;/div&gt;" style="rounded=0;whiteSpace=wrap;html=1;" parent="1" vertex="1">
          <mxGeometry x="2680" y="320" width="80" height="60" as="geometry" />
        </mxCell>
        <mxCell id="k4EhhR3FgZzLffmN_6ZO-8" value="High" style="text;html=1;align=left;verticalAlign=middle;whiteSpace=wrap;rounded=0;" parent="1" vertex="1">
          <mxGeometry x="3390" y="250" width="60" height="30" as="geometry" />
        </mxCell>
        <mxCell id="k4EhhR3FgZzLffmN_6ZO-9" value="" style="endArrow=classic;html=1;rounded=0;entryX=0.5;entryY=0;entryDx=0;entryDy=0;" parent="1" target="k4EhhR3FgZzLffmN_6ZO-2" edge="1">
          <mxGeometry width="50" height="50" relative="1" as="geometry">
            <mxPoint x="3290" y="-200" as="sourcePoint" />
            <mxPoint x="3180" y="10" as="targetPoint" />
          </mxGeometry>
        </mxCell>
        <mxCell id="k4EhhR3FgZzLffmN_6ZO-10" value="Low" style="text;html=1;align=left;verticalAlign=middle;whiteSpace=wrap;rounded=0;" parent="1" vertex="1">
          <mxGeometry x="3300" y="250" width="60" height="30" as="geometry" />
        </mxCell>
        <mxCell id="k4EhhR3FgZzLffmN_6ZO-11" value="" style="endArrow=classic;html=1;rounded=0;entryX=0.5;entryY=0;entryDx=0;entryDy=0;" parent="1" target="PWImsXqPBMbIbsKMf3on-23" edge="1">
          <mxGeometry width="50" height="50" relative="1" as="geometry">
            <mxPoint x="3110" y="40" as="sourcePoint" />
            <mxPoint x="3090" y="170" as="targetPoint" />
          </mxGeometry>
        </mxCell>
        <mxCell id="k4EhhR3FgZzLffmN_6ZO-12" value="High" style="text;html=1;align=left;verticalAlign=middle;whiteSpace=wrap;rounded=0;" parent="1" vertex="1">
          <mxGeometry x="3210" y="250" width="60" height="30" as="geometry" />
        </mxCell>
        <mxCell id="k4EhhR3FgZzLffmN_6ZO-13" value="Low" style="text;html=1;align=left;verticalAlign=middle;whiteSpace=wrap;rounded=0;" parent="1" vertex="1">
          <mxGeometry x="3120" y="250" width="60" height="30" as="geometry" />
        </mxCell>
        <mxCell id="k4EhhR3FgZzLffmN_6ZO-14" value="" style="endArrow=classic;html=1;rounded=0;entryX=0.5;entryY=0;entryDx=0;entryDy=0;" parent="1" target="k4EhhR3FgZzLffmN_6ZO-5" edge="1">
          <mxGeometry width="50" height="50" relative="1" as="geometry">
            <mxPoint x="2900" y="-200" as="sourcePoint" />
            <mxPoint x="2970" y="30" as="targetPoint" />
          </mxGeometry>
        </mxCell>
        <mxCell id="k4EhhR3FgZzLffmN_6ZO-15" value="High" style="text;html=1;align=left;verticalAlign=middle;whiteSpace=wrap;rounded=0;" parent="1" vertex="1">
          <mxGeometry x="3000" y="250" width="60" height="30" as="geometry" />
        </mxCell>
        <mxCell id="k4EhhR3FgZzLffmN_6ZO-16" value="Low" style="text;html=1;align=left;verticalAlign=middle;whiteSpace=wrap;rounded=0;" parent="1" vertex="1">
          <mxGeometry x="2910" y="250" width="60" height="30" as="geometry" />
        </mxCell>
        <mxCell id="k4EhhR3FgZzLffmN_6ZO-17" value="&lt;div&gt;OAM RAM&lt;/div&gt;&lt;div&gt;(8 Sprites)&lt;/div&gt;" style="rounded=0;whiteSpace=wrap;html=1;" parent="1" vertex="1">
          <mxGeometry x="1545" y="720" width="120" height="60" as="geometry" />
        </mxCell>
        <mxCell id="k4EhhR3FgZzLffmN_6ZO-18" value="" style="endArrow=classic;html=1;rounded=0;" parent="1" target="k4EhhR3FgZzLffmN_6ZO-7" edge="1">
          <mxGeometry width="50" height="50" relative="1" as="geometry">
            <mxPoint x="2720" y="280" as="sourcePoint" />
            <mxPoint x="2530" y="430" as="targetPoint" />
          </mxGeometry>
        </mxCell>
        <mxCell id="k4EhhR3FgZzLffmN_6ZO-19" value="High" style="text;html=1;align=left;verticalAlign=middle;whiteSpace=wrap;rounded=0;" parent="1" vertex="1">
          <mxGeometry x="2820" y="280" width="60" height="30" as="geometry" />
        </mxCell>
        <mxCell id="k4EhhR3FgZzLffmN_6ZO-20" value="Low" style="text;html=1;align=left;verticalAlign=middle;whiteSpace=wrap;rounded=0;" parent="1" vertex="1">
          <mxGeometry x="2730" y="280" width="60" height="30" as="geometry" />
        </mxCell>
        <mxCell id="k4EhhR3FgZzLffmN_6ZO-22" value="Farbindex" style="text;html=1;align=center;verticalAlign=middle;whiteSpace=wrap;rounded=0;" parent="1" vertex="1">
          <mxGeometry x="3300" y="-250" width="60" height="30" as="geometry" />
        </mxCell>
        <mxCell id="k4EhhR3FgZzLffmN_6ZO-23" value="Farbindex" style="text;html=1;align=center;verticalAlign=middle;whiteSpace=wrap;rounded=0;" parent="1" vertex="1">
          <mxGeometry x="2910" y="-250" width="60" height="30" as="geometry" />
        </mxCell>
        <mxCell id="k4EhhR3FgZzLffmN_6ZO-24" value="Palettenindex" style="text;html=1;align=center;verticalAlign=middle;whiteSpace=wrap;rounded=0;" parent="1" vertex="1">
          <mxGeometry x="3120" width="60" height="30" as="geometry" />
        </mxCell>
        <mxCell id="k4EhhR3FgZzLffmN_6ZO-25" value="Palettenindex" style="text;html=1;align=center;verticalAlign=middle;whiteSpace=wrap;rounded=0;" parent="1" vertex="1">
          <mxGeometry x="2740" y="245" width="60" height="30" as="geometry" />
        </mxCell>
        <mxCell id="k4EhhR3FgZzLffmN_6ZO-27" value="" style="endArrow=classic;html=1;rounded=0;exitX=1;exitY=0.5;exitDx=0;exitDy=0;entryX=0;entryY=0.5;entryDx=0;entryDy=0;" parent="1" source="40SjHxVpbjJjj8Rf09kr-65" target="k4EhhR3FgZzLffmN_6ZO-17" edge="1">
          <mxGeometry width="50" height="50" relative="1" as="geometry">
            <mxPoint x="1220" y="570" as="sourcePoint" />
            <mxPoint x="1270" y="520" as="targetPoint" />
          </mxGeometry>
        </mxCell>
        <mxCell id="TLHdrU3_SPypcTBDsbvv-3" value="Pixel Data Sort" style="text;html=1;align=center;verticalAlign=middle;whiteSpace=wrap;rounded=0;" parent="1" vertex="1">
          <mxGeometry x="3470" y="190" width="60" height="60" as="geometry" />
        </mxCell>
        <mxCell id="TLHdrU3_SPypcTBDsbvv-4" value="Color Pixel Generator" style="text;html=1;align=center;verticalAlign=middle;whiteSpace=wrap;rounded=0;" parent="1" vertex="1">
          <mxGeometry x="3210" y="450" width="60" height="30" as="geometry" />
        </mxCell>
        <mxCell id="blxBa2OFwdB_IvGQRzjm-1" value="s_prio (5 bit)" style="text;html=1;align=left;verticalAlign=middle;whiteSpace=wrap;rounded=0;" parent="1" vertex="1">
          <mxGeometry x="3060" y="540" width="70" height="30" as="geometry" />
        </mxCell>
        <mxCell id="blxBa2OFwdB_IvGQRzjm-2" value="s_ext (5 bit)" style="text;html=1;align=left;verticalAlign=middle;whiteSpace=wrap;rounded=0;" parent="1" vertex="1">
          <mxGeometry x="3060" y="680" width="70" height="30" as="geometry" />
        </mxCell>
        <mxCell id="blxBa2OFwdB_IvGQRzjm-4" value="" style="endArrow=none;dashed=1;html=1;rounded=0;" parent="1" edge="1">
          <mxGeometry width="50" height="50" relative="1" as="geometry">
            <mxPoint x="3200" y="420" as="sourcePoint" />
            <mxPoint x="2920" y="420" as="targetPoint" />
            <Array as="points">
              <mxPoint x="3200" y="820" />
              <mxPoint x="2920" y="820" />
            </Array>
          </mxGeometry>
        </mxCell>
        <mxCell id="blxBa2OFwdB_IvGQRzjm-5" value="" style="endArrow=none;dashed=1;html=1;rounded=0;" parent="1" edge="1">
          <mxGeometry width="50" height="50" relative="1" as="geometry">
            <mxPoint x="2640" y="190" as="sourcePoint" />
            <mxPoint x="2640" y="190" as="targetPoint" />
            <Array as="points">
              <mxPoint x="2640" y="420" />
              <mxPoint x="3460" y="420" />
              <mxPoint x="3460" y="190" />
            </Array>
          </mxGeometry>
        </mxCell>
        <mxCell id="blxBa2OFwdB_IvGQRzjm-7" value="&lt;pre&gt;4bit0&lt;br&gt;-----&lt;br&gt;SAAPP&lt;br&gt;|||||&lt;br&gt;|||++- Pixel value from tile pattern data&lt;br&gt;|++--- Palette number from attributes&lt;br&gt;+----- Background/Sprite select&lt;/pre&gt;" style="text;html=1;align=left;verticalAlign=middle;whiteSpace=wrap;rounded=0;" parent="1" vertex="1">
          <mxGeometry x="3240" y="530" width="280" height="100" as="geometry" />
        </mxCell>
        <mxCell id="blxBa2OFwdB_IvGQRzjm-8" value="" style="endArrow=classic;html=1;rounded=0;dashed=1;dashPattern=1 4;exitX=1;exitY=0.5;exitDx=0;exitDy=0;entryX=0;entryY=0.25;entryDx=0;entryDy=0;" parent="1" source="blxBa2OFwdB_IvGQRzjm-1" target="blxBa2OFwdB_IvGQRzjm-7" edge="1">
          <mxGeometry width="50" height="50" relative="1" as="geometry">
            <mxPoint x="3140" y="570" as="sourcePoint" />
            <mxPoint x="3230" y="555" as="targetPoint" />
            <Array as="points" />
          </mxGeometry>
        </mxCell>
        <mxCell id="blxBa2OFwdB_IvGQRzjm-9" value="" style="endArrow=none;dashed=1;html=1;dashPattern=1 4;strokeWidth=1;rounded=0;exitX=1;exitY=0.5;exitDx=0;exitDy=0;" parent="1" source="blxBa2OFwdB_IvGQRzjm-2" edge="1">
          <mxGeometry width="50" height="50" relative="1" as="geometry">
            <mxPoint x="3140" y="690" as="sourcePoint" />
            <mxPoint x="3150" y="555" as="targetPoint" />
            <Array as="points">
              <mxPoint x="3150" y="695" />
            </Array>
          </mxGeometry>
        </mxCell>
        <mxCell id="blxBa2OFwdB_IvGQRzjm-10" value="" style="endArrow=classic;html=1;rounded=0;entryX=0.25;entryY=0;entryDx=0;entryDy=0;exitX=1;exitY=0.5;exitDx=0;exitDy=0;" parent="1" source="blxBa2OFwdB_IvGQRzjm-11" target="PWImsXqPBMbIbsKMf3on-2" edge="1">
          <mxGeometry width="50" height="50" relative="1" as="geometry">
            <mxPoint x="2880" y="570" as="sourcePoint" />
            <mxPoint x="3240" y="640" as="targetPoint" />
            <Array as="points">
              <mxPoint x="3020" y="570" />
            </Array>
          </mxGeometry>
        </mxCell>
        <mxCell id="blxBa2OFwdB_IvGQRzjm-13" value="4 bit" style="edgeLabel;html=1;align=center;verticalAlign=middle;resizable=0;points=[];" parent="blxBa2OFwdB_IvGQRzjm-10" vertex="1" connectable="0">
          <mxGeometry x="-0.3226" y="-1" relative="1" as="geometry">
            <mxPoint x="23" y="-11" as="offset" />
          </mxGeometry>
        </mxCell>
        <mxCell id="ikwm_vIRJPmemM-eRx1m-4" value="io_ext" style="edgeLabel;html=1;align=center;verticalAlign=middle;resizable=0;points=[];" parent="blxBa2OFwdB_IvGQRzjm-10" vertex="1" connectable="0">
          <mxGeometry x="-0.27" y="-1" relative="1" as="geometry">
            <mxPoint x="18" y="9" as="offset" />
          </mxGeometry>
        </mxCell>
        <mxCell id="blxBa2OFwdB_IvGQRzjm-11" value="&lt;div&gt;EXT-in&lt;/div&gt;(all grounded)" style="text;html=1;align=center;verticalAlign=middle;whiteSpace=wrap;rounded=0;" parent="1" vertex="1">
          <mxGeometry x="2800" y="555" width="80" height="30" as="geometry" />
        </mxCell>
        <mxCell id="blxBa2OFwdB_IvGQRzjm-14" value="" style="group" parent="1" vertex="1" connectable="0">
          <mxGeometry x="1360" y="560" width="480" height="130" as="geometry" />
        </mxCell>
        <mxCell id="WBwW-7SIIHxNUQilmxh3-3" value="" style="rounded=0;whiteSpace=wrap;html=1;" parent="blxBa2OFwdB_IvGQRzjm-14" vertex="1">
          <mxGeometry width="480" height="130" as="geometry" />
        </mxCell>
        <mxCell id="40SjHxVpbjJjj8Rf09kr-66" value="&lt;div&gt;&lt;a href=&quot;https://www.nesdev.org/wiki/PPU_palettes&quot;&gt;Palettes&lt;/a&gt;&lt;/div&gt;&lt;div&gt;for Color&lt;/div&gt;" style="text;html=1;align=center;verticalAlign=middle;whiteSpace=wrap;rounded=0;" parent="blxBa2OFwdB_IvGQRzjm-14" vertex="1">
          <mxGeometry width="480" height="40" as="geometry" />
        </mxCell>
        <mxCell id="40SjHxVpbjJjj8Rf09kr-68" value="" style="shape=image;verticalLabelPosition=bottom;labelBackgroundColor=default;verticalAlign=top;aspect=fixed;imageAspect=0;image=data:image/png,iVBORw0KGgoAAAANSUhEUgAABTQAAADQCAYAAAA5+u49AAAgAElEQVR4Xu29a7AdxXnv3Xw551SZMoGkXpscOEAcDBYH2+KisixsC4KQDAQEYQOWsBAYYQcLIQSWARkJJMRFYCFAYEAYhIwU2CJcHAwICChcLJfMzSEQMHEEBe9rk3K4KFCV5AvvfkbutXv1mpnunpk1PXvPb30B7emZ6f73008//Zu+bDc4OPix4ocCKIACKQocf/zxXX8d8hfohAIo0GIF8AktrnyKjgLECdgACqBASQWII0oKyO0ogAIdBQYGBtR2AE0sAgVQIEsBgg5sAwVQwFQAn4A9oAAK4BOwARRAgaIKEEcUVY77UAAFbAU6QHPiIYehDgqgAAr0KPD//Mkfdf3t337/PiqhAAq0WAF8Qosrn6KjQIoC+ATMAgVQIEQBfEaIWqRFARRIU2Dj448kfwZoYh8ogAK5ChB0YCAogAKmAvgE7AEFUACfgA2gAAoUVYA4oqhy3IcCKKAVAGhiCyiAAl4KEHR4yUQiFGiNAviE1lQ1BUUBLwXwCV4ykQgFUOAPCuAzMAUUQIGyCgA0yyrI/SjQEgUIOlpS0RQTBTwVwCd4CkUyFGiJAviEllQ0xUSBihTAZ1QkJI9BgRYrANBsceVTdBQIUYCgI0Qt0qLA6FcAnzD665gSokCIAviEELVIiwIogM/ABlAABcoqANAsqyD3o0BLFCDoaElFU0wU8FQAn+ApFMlQoCUK4BNaUtEUEwUqUgCfUZGQPAYFWqwAQLPFlU/RUSBEAYKOELVIiwKjXwF8wuivY0qIAiEK4BNC1CItCqAAPgMbQAEUKKsAQLOsgtyPAi1RgKCjJRVNMVHAUwF8gqdQJEOBliiAT2hJRVNMFKhIAXxGRULyGBRosQIAzRZXPkVHgRAFCDpC1CItCox+BfAJo7+OKSEKhCiATwhRi7QogAL4DGwABVCgrAIAzbIKcj8KtEQBgo6WVDTFRAFPBfAJnkKRDAVaogA+oSUVTTFRoCIF8BkVCcljUKDFCgA0W1z5FB0FQhQg6AhRi7QoMPoVwCeM/jqmhCgQogA+IUQt0qIACuAzsAEUQIGyCgA0yyrI/SjQEgUIOlpS0RQTBTwVwCd4CkUyFGiJAviEllQ0xUSBihTAZ1QkJI9BgRYrANBsceVTdBQIUYCgI0Qt0qLA6FcAnzD665gSokCIAviEELVIiwIogM/ABlAABcoqANAsqyD3o0BLFCDoaElFU0wU8FQAn+ApFMlQoCUK4BNaUtEUEwUqUgCfUZGQPAYFWqwAQLPFlU/RUSBEAYKOELVIiwKjXwF8wuivY0qIAiEK4BNC1CItCqAAPgMbQAEUKKsAQLOsgtyPAi1RgKCjmor++uRD1XPPPZv7sE996tPqS+PHqzO+e6YaO3a/al489BTz3fvvf4B6aMNjlT37jS1b1Pz556jB9fdkPnP16lvVB++/r86aO6+y97oeJPlaunSxeuzRR9VHH32YJJ948CHqjDNmJ//lV1wBfEJx7cw78Qn1+gRT+/vuvUedPuvU5E9V+8RqrGNkPQWf0J/6iukjLr5oobp+5bWdgv3b79+vrJDvvfeeuvaaq9XXvjYxsz+OETdsfOJxtXbtT7rihj33/Kw6bPIUNeess9WOO+5YmQZtfxA+o78WILZ8/MCxzpdI/zfl64dXGp/b75bxQZVxt8s3+IxLnMIEJtA+7ZEND6vXX/91crf2HYsuWhz4NJL7KgDQ9FWKdCjQcgUIOqoxAJ+BifmmZVctVzNnbhtwl/31A2jqzlsPeNIGOxLULLjgvKRz/+7sOaquTv2FF55Xx049qgMybf2q1LZs3YzE+/EJ1dQaPqE+n2DX2ITx4zqDDoBmeXvGJ5TXMO0JMX1Ev4CmwIiLFy1M+uc00BErbjh33ly1Zs3qzIqUD85r7lhX6cfm/ljNyHgqPqO/9eQLNHUuBL498OCGSqB9v4Cmyzf4jEv6obq898jDJ3diCvsdVWrbj/yP5GcCNEdy7ZF3FKhRAYKOasQOHZjIWzf/8gW1+x57lM5AP4Cmz2DHtJ26gKYEFvt9cd9MmKnFrPqLcelKGkEPwCdUU1n4hDhAc9Zpp6j777u3U4kAzfL2jE8or2EVQLPKuMGnjw8ttQ/oiBE3mDO288okYOKZTZtDi036FAXwGf01i1CgKbk5euoxatUtt5XOmE87L/ISl2/oh8/yyacdU6TdM2PGTHXV8hU+jyNNgAIAzQCxSIoCbVaAoKOa2ndBRQmor1x2edcXvqo6QNe7i5TQJ3BwBR9F3uu655oVy9XSS4aXdyz4wcJkKY0EWKfMnNG1/DxvmbzrPW2+jk+opvZd7RKfUI3O+inysWP+9+Z1wUy5BtAsrzM+obyGaU+I6SN8+vjQUvuAjhhxgzlj+xOf2F7dtnpNskRWlq7+9XdmdW0XdPOqW9XUY9xLeUO1aVt6fEZ/a9zV1sS2b7/9tq5tJSRHr72+pfQsTde7i5bc5Rv64bNceRUdxx04tpNMoPCyK5cn22xNn3ZC15iuym07XPlqy3WAZltqmnKiQEkFCDpKCviH210DE0lmd4xpA21ZTn3D9depX2zapN5553fJ0yUA33vvvdUJ35iWukzd590CT9atuyMBf/qZh06alLqfp20TpkIyE1N+5t5btoJ2px7ybldtmGWVAYkJLW3YSXDhUjP9Oj6hmG72XT7tMqZPkPYyeNednYBcllxOHtpLbsGFi3oGPE32CaK7LHP94ZXLOj7TrAuAZnl7xieU1zDtCTF9hA8cCOm782akSxv80vgvR4kb5EPHXnsOr4SxPyTbPriu1Sb9sajmPBWf0d+68IWK9uzCtNVLEgs8/NCDXWBfZiuP2WcftWDBwp6VZD7vlna3dMnFasPQnpN6LCPPPP6EE3v287R9UdqYwhWDmFtehbzbVUt6v87/2LpVvfrqq2rLm293brFnfrMyzKVm+HWAZrhm3IECrVSAoKOaavcZmMibTL3tgbbPsqi0WZ2ud7uWS9h7TroChxCgGfpuV23kfcH1CbJcz+d6t42KHoDhYlbhapf6qXX7BNd+UPIB5Z77ftq1l1yTfYLd7iX/22+/fWcQBdAsZr/mXcQJ5TUsCjT7FTe4gGZo310l0Ax9d17tyEfiC86bnySRgxvToINrZlh/an90PxWf0d/69Y137XZu2785ezktx9KfPrHxqS6o6Xq3a597e8/JKoFm6LvL1JJ8SJ1/7vBhqFXMfi2Tn9F4L0BzNNYqZUKBPihA0FGNqD7wIm82lr03pF5KLX//9unf6syslNzae2/mvdsVKOjSm0FOVfCiyLvzasPWzzUw4XCgYraNTyimm31XU32Cz96eMoh5/sWXOjM1m+oTRHNzcCXw8kc3rupaRgrQLG/P+ITyGhYFmv2KG/KAZpG+uyqgWeTdZWrHhjMsOS+j5vC9+IxqdMx6igsq6vvyZmiabU0g49p1dyXg0n62vfdm3rt997k3+2VXm5eP6q4YRGZoFnl30Vqyt7kiziiqZP59AM3+6MpTUWDUKUDQUU2VuuBF2n55GlpKDswvffbG9K7AJevdduduByzmnpN2Z+yavSF5zpvVUObdZQI4ZlqUt2d8QnkN5QlN9AlpAxXZD2rHHXdU9pYN9tLLJvoEDTSvuPxS9f3zLkj2xfPRvpoabs9T8An9qeuYPiKrPZfpu12xSoy4wVVzZh3YH3Jc93I9WwF8Rn+tw9XW0vbQFPs2l0zvu8/enZUMNsjP801577b9ijk5w97j2p6U4IrfXTFImXeH1JZt25xyHqJeWFqAZphepEaB1ipA0FFN1fvMejLfFBI4uwKXrMDDXg5hz+zMWy7hChxcA5My7wZoVmOTRZ+CTyiqXPd9TfQJ5mwN2TPzpZdf7cq0ed3+sNJEn5BVUy5QVE0Nt+cp+IT+1HVMH5HVnsv03a5YJUbckFdz9uw19s+szs7xGdVpmfakIqech9h3UaBpQtK0U9XN6/YWWmWBZpl3h9SWmU8Zy1294loOEgsRMCAtQDNALJKiQJsVIOiopvZDBiZpe9TZuZCvqy+++IJ6+qknuzbVlnT2V82swOPceXPVmjWrO4+290K0N8s3n1sWXpR5N0CzGpss+hR8QlHligPNunyCuV9W2hIpex9f02c00ScANKuxVddT8AkuhYpdjxk3ZLXnMn13WaBZ5t2hNWDDTPsDTujzSN+tAD6jvxYRCjTT4KKdQ3nmr371onrmmae7trmyY4Wsdm6PKdIAqtnG7eeWAZpl3+1bW1m6++jr+w7SDSsA0MQaUAAFvBQg6PCSyZnIZ2Ainfc++/xfNfvMs3pODZQXpJ3Ml/ZiX6Dpkyfz+eYS+LLwosy7AZpOc+trAnxCNfL6tIG6fULePlRppd7w6OOdw4Ga6BMAmtXYqusp+ASXQsWux/QRWe3ZJ09ZcUNZoFnm3b41IHGWvfSVJaO+6vmnw2f4a1UkpQ/QlFUYnxszRh1+xJFq5sxTU18jHzHXrbujC2DaCX2Bpk+ezGfbS+DLAM2y7/atA/Ef8vPZpsf3maTLVgCgiXWgAAp4KUDQ4SWTM1HZJY4yI/PgiV9RH330YeddEmQff8KJaoc/+qOuk/T6BTTNr6l1wwufpTAcCuQ0w0oS4BMqkdG5h6brLf3wCaFAs8pZ26GwwscnADRdVlTNdXxCNTraT4kZN1QFNM12WjfQDPURAiOOPHyyev31X3eqQmDNujvXdw5A609Nt++p+Iz+1rlPW3PlwJ4RLYDx0EmT1BFH/KW66cYb1HPPPZs8ol9AU55trgKpE2ja73ZplXXdtY1P0edy3zYFAJpYAgqggJcCBB1eMjkTlR2YmJ2ivfzUFbj4LDkPXU5VFmiagVLou/PEzgt4XDo5K5EEiQL4hGoMoYk+wVxybu9f5Sp1U31CWr7Lau/Som3X8Qn9qfGydlombvBZch7ad/v0wXl9eL/iBl17pv+Tv4X6wP5Yweh8Kj6jv/Xq09bycmBPELCXTBfZQ9Ne9m0fNORSpAzQLPvurLzJnsJ3/c06tXXr1iTJM5s2dyX1iYtc5eZ6tgIATawDBVDASwGCDi+ZnInKDkz22G2XzuxMO8h2BS5FDwXKK5RPJ50XfLgOFnAKmpHAHJDIicYyg0z/7FOa7T1Di76zbffhE6qp8Sb6hDKzCZrqE9Jqq6z21VjA6HkKPqE/dVnWTsvEDUUPBcpTwhWryL0x4gZ5r71n5rKrlmcuw+1PbbfrqfiM/ta3T1vLy4EdL7/2+pauWcpFgKa8z3UwT16eygDNsu/Oypc9i9U+XPX4gWM7y/XtJfT9tYB2PB2g2Y56ppQoUFoBgo7SEiYPqHJgYn8ptTtU3yXn9hdLmW2x9NLLlYBA+To7f/456v99+2112OQp6qijp3b2ypPy2IMdeecXvjhWffD++539P03b0UtSXnjh+eQ5Zd4dEoTpfT8luDtl5owOFLZhZzW13I6n4BOqqecm+gT70B9pJ8uW/TBp09J2Z5w0Ldlza8KEg9TRRx/TtddvU31CWm2V1b4aCxg9T8En9Kcuy9qpCTRD44YsoFmm77Yhi14SruMCUTFG3GB/YDX3C+9PzfJUfEZ/baBqoGmCOtsH+C45lxLb4xXxAXPOOjuBpRJ/nD13TrKsfcJBX0liDPm7/uX5Bp9xSZl3Z9WWrbOMo9auuyuJjWwozMFA1ds8QLN6TXkiCoxKBQg6qqnWsgMT8yuf5EhDS7vDlGt2MJ73bruDzyqtbB7+5NObOsGFz0l+WXvi6cCo6LvzakQCrf2+uG/XXqNp6W3oW00tt+Mp+IRq6rmpPsFedplVWvujQFN9AkCzGnvNewo+oT8ax/QReTOuy/Tdafv0Snzx0suvJiLGiBvMWWOumgzdl9P1vLZex2f0t+bLAk35yDB50iGdTEp/f9PNP04mLUyfdkLXPrP2zMO8d6ft/Z2lRN5YxrxHjylcMUiZd+fVls/+36LRExufSj3wtb+WMLqfDtAc3fVL6VCgMgUIOqqRsuzARIKLY6celQnqpLPUBwbZS9Jd77aXWtkltvfslOtZ4ND8UmsPiPRzTZhY5N2uGnFpxVIyl4L51/EJ5fTTd7vapestLjsv6hPSDsaw85J26m+TfYKd/7Lau+qmbdfxCf2p8bJ2WsZHuLaQKNp3Zw3+9RYwdccN9qx0V00CNF0K+V3HZ/jpVDRVWaAp781r42Z8IWnNJemud7v8kjwvbTajyzf4xCBF351XD66YKW0MVbReua9bAYAmFoECKOClAEGHl0zORGUHJvIC6Ygvu/SSzn4sMqvhS+PHqwULFqr7779XLb1kcZIP6Tyff/GlzmxKn3fLkqsHf/ZA59nyHIEWstxcLwexC5mWn+MGjleLLtqWD/lJAHL3+kH1zju/S/4twPNHN67q+kpZ5N0uweVL7NKli9Vjjz7atcz8jDNmJ0vq+RVXAJ9QXDvzTp926XpTv3yCBOhrbr9NDd51Z8+Jvyd8Y1rm3nJN9glVa++qmzZdxyf0p7Zj+ggX0JQSF+m7xbfM/968Tt8s8cqB48Z17XddZ9yQBUmyahSgWY2t4zOq0THrKS6o6Pv2tLaoYwBzSwuzXfi8W2L0ldddozZseLgzPtC+IC9Od/kGnxik6LtdmsmKOTNmkjHa5KEx1IILF3UtnXc9h+v+CgA0/bUiJQq0WgGCjlZXP4VHgR4F8AkYBQqggKkAPgF7QAEUCFEAnxGiFmlRAAXSFABoYhcogAJeChB0eMlEIhRojQL4hNZUNQVFAS8F8AleMpEIBVDgDwrgMzAFFECBsgoANMsqyP0o0BIFCDpaUtEUEwU8FcAneApFMhRoiQL4hJZUNMVEgYoUwGdUJCSPQYEWKwDQbHHlU3QUCFGAoCNELdKiwOhXAJ8w+uuYEqJAiAL4hBC1SIsCKIDPwAZQAAXKKgDQLKsg96NASxQg6GhJRVNMFPBUAJ/gKRTJUKAlCuATWlLRFBMFKlIAn1GRkDwGBVqsAECzxZVP0VEgRAGCjhC1SIsCo18BfMLor2NKiAIhCuATQtQiLQqgAD4DG0ABFCirAECzrILcjwItUYCgoyUVTTFRwFMBfIKnUCRDgZYogE9oSUVTTBSoSAF8RkVC8hgUaLECAM0WVz5FR4EQBQg6QtQiLQqMfgXwCaO/jikhCoQogE8IUYu0KIAC+AxsAAVQoKwCAM2yCnI/CrREAYKOllQ0xUQBTwXwCZ5CkQwFWqIAPqElFU0xUaAiBfAZFQnJY1CgxQoANFtc+RQdBUIUIOgIUYu0KDD6FcAnjP46poQoEKIAPiFELdKiAArgM7ABFECBsgoANMsqyP0o0BIFCDpaUtEUEwU8FcAneApFMhRoiQL4hJZUNMVEgYoUwGdUJCSPQYEWKwDQbHHlU3QUCFGAoCNELdKiwOhXAJ8w+uuYEqJAiAL4hBC1SIsCKIDPwAZQAAXKKgDQLKsg96NASxQg6GhJRVNMFPBUAJ/gKRTJUKAlCuATWlLRFBMFKlIAn1GRkDwGBVqsAECzxZVP0VEgRAGCjhC1SIsCo18BfMLor2NKiAIhCuATQtQiLQqgAD4DG0ABFCirAECzrILcjwItUYCgoyUVTTFRwFMBfIKnUCRDgZYogE9oSUVTTBSoSAF8RkVC8hgUaLECAM0WVz5FR4EQBeygY3BwMOR20qIACowyBY4//viuEuETRlkFUxwUCFQAnxAoGMlRoOUK4DNabgAUHwUqVGBgYEBtNzQY+XjiIYdV+FgehQIoMFoUAGiOlpqkHChQjQIMRKrRkaegwGhRAJ8wWmqScqBAPQrgM+rRmbegQBsUAGi2oZYpIwqUUIBlIcPi6antbf4A1HYN2l5+aQ34BHyC2aW0vU20vfz4hO4Aq+320Pbyp4XbaNKrCnFE9sAMe+nVBk3oZ/J8K0CzBOjhVhRogwIEHcAL4AU2YNoAPgF7wCdgA/iE9Aiw7QPvtpcfoOk3MiKOAGj6Wcq2VPgVgCZAM6TFkBYFUKBLAYIOBq7AC2wAeAG8yOoa2z7QaHv5xS6IE+gjtAK0h15PiSa9muAzAJohw23aEEAToBnSYkiLAigA0MywATpUvpJiA8ALAD+BNTbQbQPACYAmQBNAFTJ8wmdgLyH2QuxN3AXQDGkxpEUBFABoAjQzW0Hbg4q2l18Mg4EI8AKghw2YNoBPwB4AmgCqkOETPgN7CbEXYm+AJkAzpMWQFgVQAKAJ0ARoYgOZNsBABHgB0MQGAJrpLrLtA++2lz9v0N3mAyVtXYgjAJohw238CkAToBnSYkiLAigA0ARmATSxAYCmR19AkM02FNgAs7YB/AD+vO4CH9GrDkAToOkRYnWS0IYAmgDNkBZDWhRAAYAmMAugiQ0AND36AoJsgCY2ANAEaAI0AZoeHaaRBKAJ0AyxGPpZgCZAM6TFkBYFUACgCcwCaGIDAE2PvoAgG6CJDQA0AZoATYCmR4cJ0PQSiT6lVyY0AWgCNL3cB4lQAAXSFOArKoE6gzVswLQBfAL2gE/ABvAJ6TFj2wfebS9/3qCbPTSH1SGOyB5z0oYAmi4igY1sU0jrMDAwoLYbHBz8GCfrMh2uo0A7FSDoYOAKvMAGgBfAi6wesO2BddvLL3ZBnEAfoRWgPQBjfEZL+AyApo+d4FeIPfPsBKAZ0opIiwItVoCgg4EKQBMbAGgSVAI0sYEsGyBOoI8APACoQoZK+AzsJcRe+FDSrRZ6bNMDoBnSikiLAi1WgKCDgQpAExsAaAKzAJrYAEDTHQy2faDZ9vKnWQia9KrC2AKg6famxN7EXflWAtAMaUWkRYEWK0DQQYcK0MQGAJrALAJrbACg6Q4G2w6v2l5+gKa7jUgKxhYATT9L2ZYKv9KtFnp02wV7aIa0JtKiQAsVqDro+PrkQ9Vzzz2r/u337484NavqQETT/fc/QD204bFWarDxicfV8QPHqu/OnqMWXbR4RGlQlQ1cfNFCdf3Ka9Xg+nvUxIMPGVEa4BOqB9z4BHwCPmG4XbU9TqCPVGoktwe7Qydu6A1xqo4jsJdejdGkV5OR3LeYpanCp4zkfkZrwQzNETV8JLMoEE+BKoKO9957Ty1dcrHasOFh9c47v0sK84lPbK8OnTRJLbtyudpxxx0rL6A46htuWKnkv+b7FixYqHbfY49C7yvTgbzwwvPqhuuvU489+qj66KMPk/d/6lOfVscNHF8L1Jswfpx6/fVfJ+8tA9HKaHDfvfeodevu6NSJ5GXPPT+rvjf/PDX1mGML1UneTW9s2aJWXndNl92J5l8aP14VtYMy5Ze8XrNiuRq8685OXcjfBGief8EP1Nix+1WugW4Hv9y8ObE7aXcHjhtX6n0j1SfY4urAVv5e9ANDGXuo2yfowU2ekRXRoYwGdfsEKXvVbaJM+evyCXrg4utgQj82jVSfYPtj7R+nTTupcJ9Uxh7qbg9psZn0ybO+/R01c+apvubSla5M+etqD2kFE388eVL3x0Wxhy1vvl1IB/OmkaKJr58QXfbee291wjemFbaTKnxGTHsRrdau/Yn6xaZNnXGNjiWmfP1wNePkUwqPbUaTvUjM/bkxY9ThRxxZ2FaSfvvxR5ImVeQQ6zrHoD5xlu1QQvvbsnrU2c+YcbaPIw0dnwI0fVQlDQqgQOllIRIkHjv1qA7EsyWVwOie+35aKcxZvfpWNf/ceam1V+Z9RTvUvPxIJmUA8cCDGwoHPy4zlc7r9FnDg5PQDqOKwHzWaaeo+++7NzOrR089Rq265TZXUbyvi+YXL1qYa3eLLl4cHGAVtQEJqI48fHIXyLQLs+yq5cH5yRPEZXdF31d2IBLDJ9g6CchYesnw7OAiIK9MUOmqm374BJ/AsogORdtE3T5B6uvceXPVmjWrM5vNzatuDQZZRctfp0/wBRVamNAB1kjzCT7aF+2TitpD3e3B5YflQ5vECqG/ouX3qZOifZZPGbJ8QxXvHCmahPoJ0bVInyH3lfUZsexF3vvt07/V9WE+zb5krHHb6jWFVuCMVnspE9cU1cTl58qMCdPqvelAs+5+xifuNHUMHZ8CNH16N9KgAAqUDjr23Wfvrq+XaZJKJ/fMps2VqO0TkEkH9vyLLwUDxCIdqswSHHfgWGfZZsyYqa5avsKZLjRBWmce2mGUBZoueKOfXwQmpOkhmh888SuZMFPfI3bwxMangmbsFrEBeZ8riJA0RfKTZQ8+dlf0fWUHInX7BFujtDZRdFBWxB586kbyXLVP2GO3XZxtoogORTSo2yeInjbEzhqEhvYNRcpft0/w6RdNPeoGmnX7BB9/LHoUgVlF7KHu9iBQ5qsHjXfGZkV8UJHy190e0tp+ln8sCnbLxk0xNAn1E7qMof5C7isbR/i04aIxTlZc5QNR7Xs3PPp48ISNkdKGithL0fFeUU3q7luaDDTr7mekLQA0Q0ftpEcBFOiLAmWCDntm4IIfLFQPP/RgsoemDBTMWZRlIJtZcNmb0Vxmrr+Q2oNZyctZc9NncWYJWaRDNb/66y+2kkcBB7vsumtn1mJRyJpX6aLDKTNn9ECMMloX0cBc7q6Xs0ndy2Bp06afd2YtFoEpaeW3Z1routbLTswZWqEDtiLll/futefwNgcy82eHT+6QzBSTvK24enmnjooMDNI0MIN9c6aA3Q6KvG+k+QRbH9Me9bWitlfEHmL4BHs5ZZV7GBfRoG6fIG1wvy/u22ln5qwMewASCrGKlD+GT8jrK8z6KAIBRppPMPNr+kfpM8+cfUYH9BXxC0Xsoe72YA9sdR8pH1umTzuhayXB5l++0PePfrHbgx2rSh9trih57fUtwR/AywLNGJrYgCorVhS9zp47p2v7pJdefjVoDFLGZ8TQRgpnji/k3/aWSdLPXnDe/GSMo3+y5DpUmyI+JIYmLnsRf7LxH57oWS1VJO4sokmMMagdT1QZa5X1KXX3MzbQLNKfupwKMzRdCnEdBVAgUaBM0D5ogXoAACAASURBVGE6dr18y9yQ2YQuZgdndwh252dfN+GkmV8bWprBSBHHWqRDNb9O6YGyeQCI+fXQDB7tr1p2YGlfN78CSxCxdOnizCXedQNNs05kcPTGG1s6hwKdPLTPkDmDVXf+dqBk15d93ZxFYXfa9uxfU/NQOyhiA2ZedXBrbtb+xptvdOC+mZ8y7UDApXw8ePvtt9Vps07vgvemPqHlj+UTyrQH05VnfT0vooM8t4g9FPEJaUDOnEloXxc7e/LpTZ1BuAmyi5a1yg89dfsEG+DYs8HFJ8hvl112Gdpj98tB+xoXsYEYPiGr/uw2UWRGUYw4oYxPMPObF18UaStF7KFIeyjjE8xYyAYuNhgJ/fhbpPxF20OZOMFsD2YsKnr83QMPdcUloRrYbW2kaOICVGa57A/HoeCmjM8oai9lYipbm7zl07ZvCl19VKe9VKlJ1tjCXjVVZG/aIprEGIM2GWjW3c8ANAFJKIACjVGgTNDh6kzyCmkvE9CzBOyZRuaAwxWMle1oinSoLniRpYG9LNUcdLhm2dnBlARe+kAgeV+TgGbeKef2kiINhO3lcvbsVim//F599VU185RTe+BEmcNgitiAK/jOO+W8SDtwOQ/zmaEzVPsNNPvRHvQzTd8h7UkfUCbXi4CLfgHNLA1sKGfu8WfPHLHbuNmWpKxbt27tmhn97e+cEbx3pM5nkTaRF1j3wyfY+oQOvvPaVJHyN8Un2P1pkZkzI9EnjCSgmdceivoEVx9o6hPqG+tuD0XjBLNNm8vNdZ/o+jDq6mfN6yNFE1cMnQU0i8xCLDO2iOE/bTvL+/AjfnXGSdPU5MlT1EFf+Wpw31q3vRSNM4vaS5FxSBFN6h6DSrnKjjN9/UoRPYrGXUX7GYCmb22SDgVQoO8KVBV0SEZlsPSLoSXGshzDNaC0O0p7hqc8z14aZztd+x32M+tYSmV2bpLfq1dcmxzQ4zNISFsKefTRx3QtnUzbj0YPVuR9c8+ep77whS8mMyL1r26gaQ6eJL/Hn3BiciCLa/CcNutMlu7YuoR8/bafGQr0igQR9oBfAOb/2fX/JEvOXXVRpB1kOQUp+/zvzeuauet6f9qzYvmEou1BymBDcCm32SZ82mOaFkXsoYxPsD9WmDOedf7SbNpnH6k6D0Gp2yeUnZVcNdBsik8w66EIlNC6jDSfYM/Iu27lDcnhHfaS89DtB0SPIj6haHuwB4zybx+f4Kp3sz5D7aJI+cu0h7Jxgr0sVYMq+8NxaLxo+oyRookPoBK977//3q5lxEVmsJbxGWXspWhMZfahoW0idKBWt70U1cTHXnTZ7bSu+N/WrIgmae/s5xhU8txkoFl3P2P3T0XjbJ/4a2BgQG03ODj48cRDDgttb6RHARRogQJlg460/epENhkoCJzbcccdM1W0v4ja+xrZQZSrIwnpfKuCF1kH1EhAtOSSS51fbs0gSgDlgePGdZ2umPaVWEDNPvv8XzXnrLMTfcuWu2xgbg8Y9POkc7v08mW5G6anfRk097YK3bDftpFQoFckqJLyZp2gKvBp9pln5e5RFtoO0mw3bal1kcG6PZCQf7s+Ttj5KeMTirQHW38N/MrMQuoE6Y8/kvxvSAxVxifYM7elDcm2Anq2qb3UXPLmewiRpC0yMC3SJur2CWZdi8+YNu0kdeWyyzuzVOVvZ5wxu9YTaWP7BLtfCPkwZLfpmHFCEZ/gc7hHnYC/THso4hNsWCc+ccGFi5JqtT96hfr4Iv6gbB9ZJk6w4bbe79DWNfTjZ9m4KYYmtk/wGeIU1aWsz6jbf1YRL/joKWlitKEicWbI2MJuT6H+tagmZeLNIpoUORQoNIYuaiN19zOSz5BDgULHY6YOAE1f70I6FGipAmWDjrQThU0ppVNbsGBhKtCxv7yb96V96Wki0JQ8550sJ5BSlkVr+GibWV6A6fuFMyTocJl50aAi70RKgTDnfG++mjnz1NTXZ3WIoQcp2fVQ5Gth0fK7BtCSl++fd0EqUAltB2ki2m1DAM5NN/+40EEHMX1CkfZgL0/Te0tWMUApag9lfEJewJwWEOqDCmQLhu233z5pa/pjkuTj4kULuw7L2fLm2y430HW9qAZ1+gSzru0tOMzC1AV05Z2xfYI9W8PeazjECEaaT9D6Z530HfqhrAp4VaY9hPqEvD4lrd5DBtxF/UGZ9pA3cHbFCWnLzbUGeXuNhrSPkaJJKNAUX7r00ssLfQgq6zPK2EuRmKqKeMHXZmLYSxFNQscWZTQsqkmdY1Cp3yYDTclfnf0MQNO3xZMOBVCg7wqUDTr0wEG++j/26KM9J27L9bxTVbMG/mkzE5sKNKWM0qleduklXbMrzcpLWzqur6d1QGkzsbKMITToyDOqokGFPFO+Dpqzouz3ZH3pz5phFgIfbDsqcpKv5LdM+XWwc/f6wa79G00dsmZJhbSDtPpLg8LmSc8hjiS2TwhpD2lLzfWepWWCa61XGXso4xPSlpAXhTC2bYV+JS+jQV0+wbbZPHsPnalYpvyxfILtU4vO1tY6jiSfoPvjY6celRqP6DLlHfrRtD5S8hPqE+yTqu14xNx3uw6gqd8vcVyRPrJInGDPWLJ9X1nfWEU/UcZHhGoSCjR1+Yr4jyp8RhltQmOqKuIF3zhrpPQpoWOLMhqW0URvt9TvMai2x+tXXutb1Um6EP9ahU8pGncV6WeYoRlkCiRGARTolwJVBR06f3r6v30oR97yA3vJQBb4ajLQ1OXXJ4gKTJLfRx992Km6rKDQPnVUbggZdIcGHf0arOnn6kGEbQNyPWufKnt5UR4AtvNvL68rCvLkuWWCKjNfujy2Bnl7M/m2g7T6k4HN7nvskSw/nj7thM5SW9fslbRnxfYJIe3BnGFj+40ywXUVQWUZn5C2dOi117cUmnFrD3pDPhRU1Sb67RNsm5X+ZtmVyxO97IFtiG+pqvzynDp9gulPi5w4a/uFkeQT7EGZ1PfadXcl/lH6ylNmzuj0y3XO4jc1LdIeivgE/VHll5s3J2UWLb43/zz1s5/9XddeyyED7ph9ZGicYPYPae3A7mtCl8lW2U8U9REhmvjEiqLJP2x8Qp09d05X/Bq6x2jVPqPf/rOKeMF3nBazDYXEmT72ossca8m5rXk/x6DyLtc41NcGXOmqsJE6+hnXAXSucrquax1Ycu5Siuso0HIFqg46tHOTANlnUJW231wWhGnioUBZQEgGSuvuXK+mnTiQHJIkv6wZVmkDlZCBVkjQ4TL3KjpRnR9ZMn/yyaeogyd+pRMYZ8GUtH1wfGaS2bP5BBiuuWNd7r6deRpUUX4z6JEyvP/++8lBUfqXNvs4pB246rDs7KzYPiGkPYTMzNO6xRi8Sz5DfELa/mG+W1Bk+ST999DnVNEm+u0T7NlrNvy19YxhA3ogVIdPMPUoCmlMOxpJPsH2HzaIseOIUFATqz1U6RPKbEdQRfmL9JFyT0ickPZhzNV3FvkAKM8cKZqExIp2OwrtN6r2Gf32n+bWBK5DgfTKkC+NH6+OOOIv1dcmHhz0sTGWvYTGmSH2EuNQoLT23M8x6EgDmkXirtB+BqDp6lW4jgIoUIsCZYIO05FpUGV2JlIA8/lpg0jzC7pZ4LRZmq7OteyXsyJBhlk+Dao0vHhow2NdB/akQUp7yaypge8sTZcuIYYUqoH5bj0DwuxEF120uOuLZlpQbM+w1Pl1zaSyO14NjPIOonJpEVp+O8DR0NoMvuVvZltJA7Uh7UCC0qVLF6u333pLyb6JV6+4tufwKdMu6xyIlPUJoe2hiUCzrE+QWVWTJx3SY6pZ2yhI+3n4oQfV1q1bk3vsvRLt5/n6FZ2B0DYRwyfYy57svqZM3xBa/hg+wTSWsvXtAuJyPQQI1+0TXHVdtr8MtYcq2kOoT3D1cya8Cd3KIrT8VbWH0Dghbx/jPH2KLK8eKZqE2n6ZWYtlxhZmG64jphJ7sD+Op3141nZj21Ydqx5iaBJiL3b77HecIXVRtm+RZ4TE3rYvC+0LXX7ZvB7qU2L1MwDNkFolLQqgQN8UKBN0mEBJf9E0gab5hTxtuY/9BVjSmEu0bfBjf3G3gwizYwqZ4Vh04C73mTMG9EwYE2iaZUwbONhQztTAd7ZASNDhMqTQTtSuExkM7L7b7kmQoEGaWUa7zuwvxrYNZMG4tFNPV91ym6t4zuuh5ZcHps0Iuv3225Tss6Nt2LQTO1Au2w7sGVj24Dc02I7pE0LbQxOBZlmfYN5vt4c0v2ZrZtuXDXj6PSMthk+wB1N2GeueoVm3TzAdm61F0a0KzGeOJJ9g27vdHsrumxjaR5RtD3ac4eMTJCa44vJLkyqUFSJmLGXHC6H9Q2j5q+gji8QJWaDCFQSEAl553kjRJCRWtNOGzvQu4zNi+E+7vFkf1NM+uob62Bj2EhpnJnY95EekHelf1qopW5Mi25wU0aTuMWiTgWaMfkb0AGi6ehSuowAK1KJAmaAjLeCRWWMSQEsHLwcF3X/fvUk57CDRPnFPgOjfPfBQ1/LktINx7D2Rblu9Jnm2PYgLDdKLBqX24EmA3vxz5yXLS39046qu/QztPKXpJ8tXzOXJPsG1b9DhY1BFggqzQ5NAZu7Z89TSSxYnQPNrX5vYtWeZPbi0Z1YJiDD3gJQ82/fYS6p9NPIpe1EbsG1ZAuHx47+s1qxZnQwkf/WrFxM95GcHekXbga2bti17D015ZyjAiuUTqmoPuq7LzC7RzyjSHsr4hLR7/+kf/zGxJf2z/YgNsMX+Vt5wY7Ltgn3KeV0femL7hLx9E0P9RREbiOETtH2YM41cSyd9/eJI8glp7SFrD826Bt5l2kMRn5DWR95084/VB0Pbn5TdY7nu9mAPmnWflhcnhO6NacPP0D5zJGiSxDeegErSLbjgvM5e3HJv6MzVMj4jlv+04yq95+zUY7ZBvbTDVrL2/M/zrXXbS9E408de0jQJXRVUNPaOMQZ1rQDw7VNd6YrYSN39jO2bi8SXvjqwh6ZLKa6jQMsVKBN0pAWaWXLaUMqeMaO//NmdhR0s2B1Y2vt8Zzba9xbpQOxAIav8aXDWnon1/IsvJfvw2EGVa+mGT9Dha+ZFNPCpE3m/DRKy9mhyfSlPOwU7q3yhHWyR8su7bbvNyo8No/rZDiQPRYLtWD6hqvagtY8FNIv6BHsWkrZd+3lpS899ZiMVPSyrSJuo2ydInaft/ZTWDn325jXvK1L+GD5B57kfMyZGmk/wPXk11sA7q3+w+8gyPsFHg7rKX6Y9FIkT7Fm4rhgqxhLiujWR9/n6Zds+0+JXV0xZ1mfUHVNJeaSvPfLwyV0gN6+cAjwfeHBD0P6ZST08/kjy2ImHHOaSset63ZoUsRfXVlFZBS6qiY+fk3dWNQb1rQO7nCHbtBS1Ed/66lc/Ezre8jF+bRcATR+1SIMCLVagbNDhCgBkEL3o4sVq5szhQ1FcS1nsjd9dS8bM6is6aC/agch9MiPk2KlHdS2XN/OUdlBN2qwLrZE9iHEFk7GBppTVtV+Vvb9l2hfjl15+tSObDSc0CAzd6D+0gy0aVEnGXaDVBeftJV1l2oHkJ3SJmBY/hk+osj2klSPUDvQzitpDEZ+QNltZTmaWnz2oT5vxnjcQS/PDvt1eUQ3q8glmOVxtMHSWUZl+IYZPkHea+yMWAVZpdjHSfIIrLinjH+tqD5LHMj4h7QAQs26L9g9Fy1+kPRSNE+wPPK4lwXZcEQplRoImiS+zZmj69AFFY+qyPqOIvZQdW8g7xRbMwzyzNCqzZ3ud9lJGk1B7iaGJy9dXPQZtMtAsMhYr28/04wOq2eYAmj5emjQogAJdh/aIHKFfkXQAcO01V6u71w+qd975XaKqQDg5AXDBgoVKD8p12q8eNL6TLm02pWuGng7MbrhhZRKgyU+ec+ikST3vC6niMkGGPqjlsUcf7YBNCYoPmzxFzTnr7K4vuPaSuDTY4pqp2uXwPZcR+WhRRgOpC7NO5H1SthO+Ma0LaMvf7QFH2n6p+31x346WelbaG29s6drTx1WmUJBVpvw6mFh1042dL/yS7wPHjVNnnDE7maGqf2l7DukZujqNTzsQW7rh+uuUaXfynmnTTuo5KMillb5exUBEyufrE6puD2nlCLWDTh0UnEkh94f4BHvLjDQQ5TNzWyCiaX9ZftjXFhJfW0KDOnyC2b/oNnjX36xLtj4x+4Yzvntmsgw/9Fem/DF8QpkDwbK0Gak+QdqDaQtSPvGPhx9xZE+f5GsXZewhpD1U4RPSfJCU3+6PfMte1h+EtIeiccJ99z+gJh06sVMk3y0m7Jgk71AYW68yNlGHJk9sfCqJw0MAld46Z/aZZ3XF8L62UoXPCNGmqpjKjL/Wrv2J+sWmTV3jFYnnyviPOttQWU187EVijM+NGRNVk5B4s6wmTQeaiX0FjMXK9jMATV+PSDoUQIG+KlBV0KEzaZ9y3tfMV/zwskGpzo55KFDFWez746rQQAdBVc0O6nuhjRdUUX55nH3KeZ1lKPsufMKwglXZAz5h2+EC+IThg8LKttM678cnVOsT6CNHdh9ZNdDUzxvJcYOtSdU+YzRpU1VcgSa9veBIHoOapanCRkZyP9P5sPCHD+osOa8z4uNdKDACFag66BjJnUkVHYiYAPACeDGSA018QrXwAp8wvNQRoAnQlPbQ9jhhJA80q4qTRnIfCdB0D3aqjiOwl17N0QSgmdcSR3I/A9B0+1hSoAAKGApUHXSMZHGrCtTRYOQqgA1sA/Lmr8g2FCPXArpzjj2UW3I+GuwAG8AnVD1zZiS3C9pDb+2hSa8mxBHZrRx7oQ25+gBsZJtC7KHpshSuowAKJAoQdAwbAh0I8AIbwCcAL4C62EC3DRAnECdoBegjgTE+wyd8BkDTx07wK+kq4WcBmiHth7Qo0HoFCDoYqDB4xwZMG8AnYA/4BGwAn8BAM00BBtoATZ+BE3EEQNPHTgCa9DN5dsIMzZBWRFoUaLECBB0MXIEX2ADwgqAyqxtsO8Boe/nFLogT6CMADwCqkKESPgN7CbEX+tlutdBjmx4AzZBWRFoUaLECBB0MVACa2ABAE6AJ0MQGsmyAOIE+AqAJoAoZKuEzsJcQewHgATTT7AWgGdKKSIsCLVaAoIOBCkATGwBoArMAmtgAQNMdDLZ94N328ucNuicecpjbgFqSgrEFQDPE1PErAE2AZkiLIS0KoECXAgQdwCyAJjYA0ARmATSxAYCmO0Bs+8C77eUHaLrbiKRgbAHQ9LOUbanwKwBNgGZIiyEtCqAAQDPDBuhQCSqwAQYiAH4Ca2yg2waAE3z00grQR/YGkGjSqwk+A6AZMtymDRF3ATRDWgxpUQAFAJoAzcxW0Pagou3lF8NgIAK8AOhhA6YN4BOwB4AmgCpk+ITPwF5C7IXYG6AJ0AxpMaRFARQAaAI0AZrYQKYNMBABXgA0sQGAZrqLbPvAu+3lzxt0s4fmsDrEEQDNkOE2fgWgCdAMaTGkRQEUAGgCswCa2ABA06MvIMhmGwpsgFnbAH4Af153gY/oVQegCdD0CLE6SWhDAE2AZkiLIS0KoABAE5gF0MQGAJoefQFBNkATGwBoAjQBmgBNjw7TSALQBGiGWAz9LEAToBnSYkiLAigA0ARmATSxAYCmR19AkA3QxAYAmgBNgCZA06PDBGh6iUSf0isTmgA0AZpe7oNEKIACaQrwFZVAncEaNmDaAD4Be8AnYAP4hPSYse0D77aXP2/QzR6aw+oQR2SPOWlDAE0XkcBGtimkdRgYGFDbDf37Y5dwXEcBFEABFEABFEABFEABFEABFEABFEABFEABFECB2Ap8/PHHAM3YlcD7UQAFUAAFUAAFUAAFUAAFUAAFUAAFUAAFUAAF/BQAaPrpRCoUQAEUQAEUQAEUQAEUQAEUQAEUQAEUQAEUQIEGKADQbEAlkAUUQAEUQAEUQAEUQAEUQAEUQAEUQAEUQAEUQAE/BRKgOTg4+DEbFfsJRqp4CrABbhzt7Y27//O//jtORhrw1p/ef1+Si6OOntqA3MTJQts1aHv5xer+1//8H13Gh0/AJ7TZL+IT8AmmQ2y7PbS9/GmRGZr0qkIckR3DYy+92qBJtybosU0PrUNyKBBAMw4Y4K1hCgA0w/SqKjVAc1hJOpDhzqOtUBcbAF4ALwissYFuGwBOECdoBegjgTE+4w98BkDTx07wK+kq4WcBmiHth7QNUgCgGacyAJoMVBi8YwOmDTAQwR7wCdgAPoGBZpoCDLQBmj6jFeIIgKaPnQA06Wfy7IQZmiGtiLSNUACgGacaAJoMXIEX2ADwgqAyqwdqO8Boe/nFLoAT9BGABwBVyCgFn4G9hNgL/Wy3WuixTQ+AZkgrIm0jFABoxqkGgCYDFYAmNgDQBGgCNLGBLBsATtBHADQBVCGjFHwG9hJiLwA8gGaavQA0Q1oRaRuhAEAzTjUANBmoADSxAYAmMAugiQ0ANN1xWNsH3m0vf96gu617j6dpAtAEaLq9KbE3cVe+lQA0Q1oRaRuhAEAzTjUANOlQAZrYAEATmEVgjQ0ANN1xWNuBXtvLD9B0txFJAdAEaPpZyrZU+JVutdCj2y445TykNZE2qgIAzTjyAzSBWQBNbACgCcwCaGIDAE13HNb2gWbbyw/QdLcRgGa+RrShXn3QBKCZ51sBmn5+l1QNUACgGacSAJrALIAmNgDQBGYBNLEBgKY7Dmv7wLvt5QdoutsIQBOg6WclxN7EXX5tBaAZ2qJIH00BgGYc6QGadKgATWwAoAnMIrDGBgCa7jis7UCv7eUHaLrbCEDTD9Kw5yqxN3GXX1sBaPr5XVI1QAGAZpxKAGjSoQI0sQGAJjCLwBobAGi647C2A722lx+g6W4jAE0/SAPQJPYm7vJrKwBNP79LqgYoANCMUwkATTpUgCY2ANAEZhFYYwMATXcc1nag1/byAzTdbQSg6QdpAJrE3sRdfm0FoOnnd0nVAAUAmnEqAaBJhwrQxAYAmsAsAmtsAKDpjsPaDvTaXn6ApruNADT9IA1Ak9ibuMuvrQA0/fwuqRqgAEAzTiUANOlQAZrYAEATmEVgjQ0ANN1xWNuBXtvLD9B0txGAph+kAWgSexN3+bUVgKaf3yVVAxSoCmgKoNt//wPUQxsea0Cpmp8FgCYdKkATGwBoArMIrLEBgKY7Zms70Gt7+QGa7jYC0PSDNABNYm/iLr+2UhhoXnzRQnX9ymudXutTn/q0+tyYMeqMM2ariQcf4kzf7wQbn3hcHT9wbOc1g+vvaUS++l3uJjz/65MPVc8992ySlSJAsQzQfOGF59UN11+nHnv0UfXRRx8meRDbPG7geLXoosWZ8ryxZYtaunSx+sWmTeqdd37Xyfu3v3OGmnrMsB2ZDzDL6aN7mg3q95r5lfYTox0BNJvVof7rb36jxoz5nJo37xx16WWX+ZhYpWliDFbWr1+vbr99ddIOP/xwW/vda6+91fSTpqv5879faflcD4tRfsnTqptvVitXrlSvvfZqksWdd95ZHX7EEeqcITv4s898xpXtSq//r//5P7qe95//9d+VPn8kPSyWPZgaiW2ceeZs9cADP1OHTppUu3wxNMAn4BNqN3TPF8ZoD3bWYvqE2OVvkm/Q9RJbExlLrLhmRTIGkt/222+vpkyZombOPCVKnyF5II7Idiix7cXO2UnTp6m7775bxYz1YmqCTxm2iKb5Em0XfQeaZqP47uw5ufDIM1YolQygWUq+UjfHApqrV9+q5p87LzPve+75WfXAgxvUjjvu2JVGIOixU4/qAFD7AUdPPUatuuW2nueWBZqu9y67avlQEHJqqboIuRmgOaxWzA5V5+KrXzlIbd68uTVAUwdSUn6BeLvuuqv64IOtHbAnYPOJjRvVTjvtFGLWhdPGsAFTAynvDjt8Ur3yyisJ3JWBycMbHlEHHHBA4TKF3shApDk+4d1331Wf3fPPE1toC9DEJyiFTwj1WvWlj9FHmKWL7RNilr9pvqEJQFPDbTOGeuutt9Rvf/vbJHvXXbdSzTr99PoayB/eRByRLXnMNmTnSgDWkUcekfy5jUATnzJsEU30JVGApkgSe0YkQLP2PqvzwhhAU2Y6jjtwrLPQM2bMVFctX9GVbt999u7Mysx6wM2rbu2ZqVkGaL733ntqvy/umwlRdT7qbEcAzebAC7NjbcMMTbPz/Mkda5V8gdO/Z599Vk2ZfFgCco477jh1x9p1znZeRYK6A80Lzj9fLV/+wwRc3nnnXZ3ZFDJonTM0K0++mgvo3fLGm1UUz+sZDESa4RPEBg6eOLED99sANPEJSuETvNxUtER19xE2zIztE2KVv4m+ITbQNGHU4iVLula0LFt2hVp44YVJFl955Z9Z6RHNY/S+OFYbsnNixtltBJr4lGGLaKovqRxo/tvv3+9pkQJn1tx+m1p6yfCS3qxZbXX5EYBmXUr3vicG0Dx33ly1Zs3qJDOf+MT26rbVa5ItB2TJ+y5DM73uv+/ezrXnX3ypM0vTntW54AcL1Vlz5ymxn1NmzugAx7Sl82XKec2K5V3tJeu9svxcoGYdP4BmfHgh4GLGjG92lgtJjtoANL/w+c8nsCarrGYHW1dAXneg+Sd/vFMCbdNmUYhd/OnOn04MtE6YBdCM7xNkoPGtU0/twMy6bcDse+psE/gEpfAJdUQ+xd9RZ3swc9kUnxCr/E30DbGBpsyskzgp66OvS7PircB9J3FEtkax2pCZI1lm/dff+XZnm6c2Ak1X+4gxBonlU5rqS2oBmlr0CePHqddf/3Xyz6y9EwXkPPzQg509FiWtLAUes88+asGChWr3PfZIbfkamg7edWfnHQKuDhw3bmh/sSN7lubmAU2ZzXfwxK907bH45NObupYiy/uuveZqdff6wWT2nrxL9qxaduVy9asXX+jan9OEvCbkkqX3u+2+u/rhlcuSZ8hejqfNrHEfmAAAIABJREFUOj0BZvqn3/PIhoc75ZJ0Xxo/PlMPH1hrwil7CwBzX1Spp3V3ru8qq+RNQNr5F/xAjR27X2p92Hs/6n0q55x1tpp24kDte2iauuul2uahQOYsTHPWo2h5xeWXqq1bt6r/vcsuXfDQhKQigg3zywBN814bWtqwU7/Xrne7jdnXQ2EoQDMuvJAOc9as05LlQbLcWH55kM8dRpZLUWegpZfX58E6HRTXBfTqLL8MUOedPTdZXv7r1/8ldVm9Lr89+6JcLeffzUAkrk+QmTXLrriiMztZZunKr642YFtHnW0Cn4BP6Kdvq+LZdbYHnd8m+YQY5RcdmugbdP3E1ESWly+78qquFS46X1ozGcdK/1HnjzgiW+1Y9iI5kg/lF174A/XjW25JMigwXMcYbVtyjk8ZtlHRoom+JBrQTJuhaQLPtOYt0PCJjU/1QE2BfkcePrkD/NLutd+XBf3sZ8k777nvp13gLu99Al+/N/88dfqs4b0Ns4CmACXJh/nTM/Hkb649FCVN2j6KVQJNKY/8NIi2td3w6OM9UDMv3/bz6joUyAU0i3Tes047pTOzU8r1zKbNXY8pAzTzgHNe/Zp5Mu1DbParB43vLJ0XuzZnovqUH6A5rFKMIEMHfd867TR1/fU3dIL2NszQ9LHP0Qw0XeUX4HnQhC8nyZ5+5ue17aPJQCSeT9AzAmQLgssuuzzZ+6zuNmDbZQy/mNc26tajSeXHJ7i8Zv+v120PTfMJdZc/pEbr9g06b03URMDV/vuNTT6W1/lBVGtCHJFtuTHtRW9pIlsZrb/7b9X7wlpavIemy7/gU7ZB8Fi+pBagKbP1bh9acm6ehm6DMHNWoMChtevuSsClDW+KgFBthCYszIJCsgzZhIxpexTaaWwjF1ikT9CWa1lA075PZjHqmaA+MFPfb+/fWCXQdDVge5af796P+rl1AU3TvqR+rl5xbQKdi7xf8m7Pkkw76Koo0LT3+0yzQRMumlDb1l9s6qWXX1Vm+SX/aXt+uuoaoBkPXsib5avY8qtXdGBV2w4FyrNPc3+b0brkPK38Ejz87dCsvPPPP6/2PUQlPwxE4vkEgRerV9+mrh06yEEfhBUroG7iYB2fgE9wxTT9vl43jGiaT6i7/L71GcM3NNFHSp5kOfElQ3tqymqfug9WBGi6LTZmG5LZ3u+/97669LLLkoy2/VCgpo1BmuZTYvuSyoGmq3kKTFp08eKeJeDmkl8btuSBIXuPQwGeemn6fffeo86eO6dr6bjAHfmlQb+1a3/SmXEnadJmP9qwSeDr0ksvT5Zgy7Xp007omc2YBzRNeGtqZx8oI8BMlmvLCdxS5osXLeyUy55tVzXQ1HtO6hml5t6RkmezfDbos+H0mbPP6DpgpwhQ3Pj4I4lUEw85zGVunev2NgL6ggC/JZdc2nOgT9aDbW0lXRWnnNvL3AWa658LaNowNa1N6D1CE90K7rsJ0By2iphBhs4FQHObEuYXwTqXS8W2ARsm6pm73k6xgoQAzWb5BIAmPsFs1viECpxciUfE7iMk6zF9QhPKb1dfrHhB56Mpmuj4Uedr3ND2bPfd/9PU7WxKNAGvW4kjsmVqir1IDgGa6fXUdp/SFF9SO9AUmLJs2Q8z98JMM5c8oGnOltSz0cxnyD6HL7/8T2rK1w9XX/3axM7y6LSZnyb0SZtxJ8+1Z7rZsElmyO21Z/c+n3lAM22mnA1N04CZwFpzWbsJX6sGmjbYtZc1Z5UvbVmza59Hn96vCNCU59qgz3yX5HXmKad2oHFWPuz8i8393QMPpdpzyCnnVQJNyXvWu4ssNddaADSbBS8AmtvqQ+sgS283b/5lbSd0xg4099h9N7Xr0IFmspeNLBWTX90Ag4FIs3xCTHghSsRuE7o28An4BJ9Yst9pmtAeYvqEJpTfruNYvkHnoymayNLhrR98oD74YGvnQLlYUJM4AqAZ4oub0oZixxtN8SlN8SW1A02pgLR9KW1jFnD0q1+9qJ555umuJeD2jL49dtulM1NxxoyZ6qrlK7zaRdpMO/PGzb98IRVSuQBqGkzKA5qvvb6l67Ahud8Gb2n7VEo6s+wm9KwaaNpa2FDXLF9Wnkxtzdm4dc3Q1O+XpfyXXXpJz96l+nraXphm3u2y62tps3ljAk0biut8mtsueDUUIxFAs1nwou1AU76KzjlzdmeT8roPQmlSUCVLgxZeeGFioHXuqcpApFk+ISa8ECVitwl8wrA94hNCI5zq08duD1KimD6hCeXXtRrbNzQFPqRZucy8O/HEE5JtawRqPvnU09U3hpwnEkdki9OkNsQMze56wqf02m1MX1I50LRPepbiCly5//571dJLFndKnzabUmYdrlt3RyZskpttAJZ3eEqeR3YBTZ9lxFkwLg/42ZArTa+8+80yZc1crRpo2nnMy59PfRTdW1KXvegMTVM7PZNW4Lr8zD1P0+CkvldsWfZ2lfvnf29e1xYF9mzdouUsW386r/Yp7C5Y64pgAJrNghdtBpoSSBw8cWIys0BmZv7oxptST+502XSZ600KNKUcegN30eP3//5umaJ538tApFk+ISa8ECVitgl8Qm+zxSd4u7K+JIzZHnSBYvqEJpRfdGiCb9D10RRNbIM3YVWdBwtKPogjst1Pk+wFoDlcT/iUbJuN5UtqAZpZgMUEQDZ8EdAk+6EdccRfqptuvEE999yzyWP6CTTtw3zSZmn6QCqA5rYaz1q276NhXnRZBdCU5wugE3tad+d6Ne3EgY6Nhewxac42tSF40XKWORTI1G3C+HE9+7mm7cfpG8kDNJsFL9oKNOX03m+demoHZj684ZHaTvU220qTAk3J17/+5jdqzJjPJVmsa7YqA5Fm+YSY8EKUiNUm8AnpvTg+wTe66U+6WO3BLE1Mn9CE8jfFN+g6aYImWdYu29jI9jV1rvKQvBBHZPufJtkLQHNbPeFT3P1lDF9SK9C0Z55p4OXaMzIPDPkscU6T3s6LXgY/46RpnUNr0mZgVr3kPG2GZr+XnNv7fNrg0TVDdCQuOTdhnF7Cr4HmQxse6zokyqx3vQfr22+/rSZPntKzpUGebRYFmhq2aru168dnBqd9OJN+VplZmgDNZsGLNgJNCSSmTD4sWRolJ3L++NZbo8DMmPAmL5Soe/DKQKRZPqHu+rdtMcbgC5+QP7io2ybwCfiEpsC7JvmGpmiS5y1ixZT4DICmG5E1w6/iU/xqKoYvqRVo2iBML+214Yu9r6TvoUBpB54IHFx1041q/PgvqyP/8qjkhGf52VBIH85jH7Zjz2hzHQqUtndh3h6aWUv0xx04tmM1acvfbeiZdyiQvW+ifW+VQNMEvk06FMicraj1NIGmWe/mDE3zvrRtEkygbs/sLAM0zffaz7Xbi21D9onu9szjrJmzLjcF0GxGh6pzEaPDMG2kbnhhBxJPbNwY5UTOGAOT9evXq0uWLFFbt36gtrzxZmpTFX0OmvDl5Norr/xzLYcjMRBplk+oG17FBpr4BHyCK26Jeb3uPjKtrDF9QszyN803xIgb9DtlpvbMmScPHZq4OTc2+JM/3in5WHzddSvVrNNPr63pEEcANEOMLZZfwadsWwnWVF9SG9AUiHbxooVdexXqJd02oDGXetuzCe1ZkzacM09RF2h55uwzOjMupcHoZ+fNcssDUTawlBlvSy+9PAGl8swFF5zXs8w3FGhKPu29NgVCzTnr7OQAIVtLG7TZeTRP4hZwd/bcOV31UCXQtOtD9Fm77q5k30nR55SZM7reXdehQGkwff6585Il5z+6cZWaPu2ETr2ZANi+T2DosiuXJ77X3kPT3nuzDNC024TOk61h2vJ423bE5s3ySd6zDprK61QAms2CF20CmtKJjht3YGdmZmyYKZZQZ1Blwsqs5eRy0qAsCdp5550zoWdI0OiTloFIs3xCTHhRd5vAJwx/wMAn+Hir+tPU2UdklS6mT4hV/ib6hphAU96tYWXWcnLzELG6PohqTYgjAJoh3jmGX8GnDNdQU31J5UDT1yhNECMnT0+etG3mpPzk2k03/1h98P77PSBGZpttefPtrtek7RWYlg/znXlAM2v2pn6mOQvRp7xFgKatSd579OxSM425t6Mrj1UCTXmXb31I2rqApoDx/b64bxdMTdNF4O+TT2/qnDzve1/aUu4yQNP3vfYMYnuGsa5b26aLLD0HaDYLXrQJaOqyCqx77vkXos7MjDUw0RrIoT/2vqEnTZ8W5bR3BiLN8gkx4YUoUedAA5+gFD7BFd3GvV5ne8gqaUyfEKv8TfQNseIG/V59QJj8256Buermm9WZZ85Okta9f6a8kzgi20/FakNpOWrzHpr4lGGLaKoviQI0BaY88OCGDjQSmWaddkrXidFmY7KXzNpL0gX+HHn45J6ZkeYz7He69iHM2ysz733yHlnevmbN6uT1NjjyOeVc5zttNqWty6KLFw9N/z21x/fYYMvWQv79+uu/Tv5cNdAUGHvs1KNS4aHU5YHjxnVOsq8LaEo58/Il1wVmrrljnRo7dr8uPV33pdmzPKAM0PTJrz0j1Iag9sxd++AteyuC7C512xWA5rBCTQgy2gI0zdmJLhuV63UdiFO3DZinKko5ZQ/RHXb45NASsleSmavyY6mYj4X0J03d9pBWipjwQvJTlwb4hG21j0/oT1uu6ql1tYe8/Mb0CTHK31TfoOsohib63eaHT/k4vOuuu6q33norOQhIfscdd5y6Y+26qszf+zkAzWypYtqLnau2Ak18Sq99NtGX1Ao0BV5N+frhasbJp3TBTC2VLO+9e/1g16E8J3xjWgLszL0Ks/YAlGW6g3fd2QU25Z36GWaVuICmvWw7DR5de83VnfwKqPurvzpOLbhwUddSZBvYhQBNya9AKnnPIxse7pRLQNWXxo9XCxYsTJZyZ/2kjDfcsLIDDwW8HTZ0sI0sXTdP9a4aaOp8y5JscYAfffSh0qfWS55vv/02df3Ka5Ns1wk05X1Sr0uXLu7kS/5m6iJL+tN+Ug9Ll1ysNgzVwzvv/C5JIvcdf8KJ6qy581LvKQs0s/IrM43POGN2Zz9Y/XJ75rA9e9MGnlInT2x8KteGzIIBNIfVaEKQ0RagaX4N9ImQRyvQ1GWXpWFr71ibnPIuPxmYTJgwQS1evKSWfTPNOmAg0iyfEBNeiBJ1+UV8QrcnxCf49Az1p6mrPeSVLKZPiFH+pvoGXUcxNDHtQ/bjvv321ckYSH6y4kPGk3PPmqsOnTSp/kYy9EbiiGzZY9uLmbO2Ak18Srp9Ns2XlAaaUbxfw19aBchqeBGjZm/j448k7594yGGl8mEeClTqQS25GaDZLHgR2+yaFGjF0KLt5RfNGYjgE8y21/Y20fby4xO6e6K220Pby58Wl6BJryrEESMDaMaIs2lDbtXxKds0Ami6baUrhT74R5aVH/SVr6qvTTy4a7apfSjOjBkz1VXLVwS+heR5CgA049gHQBN4AbzABkwbYCCCPeATsAF8QnpM1vaBZtvLD4zxG6sQRwA0/SylG1wddfTUkNtGbVr8LECzkHHbS9FdDzFPbHel5bqfAlUBTb+3kUorANBk4Aq8wAaAF8CLrF6x7YF128svdgGcoI/QCtAeej0lmvRqgs8AaIaMtGlD3WqhB0AzpP10pbVnYWY9yN53s/ALubFLAYBmHIMAaDJQAWhiAwBNgCZAExvIsgHgBH0EQBNAFTJKwWdgLyH2AsADaKbZC0vOQ1qRkVaWnq9d+xP1yssvdx1CpA/smT79mz2HthR8FbdZCgA045gEQJOBCkATGwBoArMAmtgAQNMdh7V94N328ucNulkuO6wOQBOg6famxN7EXflWAtAMaUWkbYQCAM041QDQpEMFaGIDAE1gFoE1NgDQdMdhbQd6bS8/QNPdRiQFQBOg6Wcp21LhV7rVQo9uuxgYGFDbDQ4Oflz25OgQoyQtChRRAKBZRLXy9wA0gVkATWwAoAnMAmhiAwBNd0zV9oFm28sP0HS3EYBmvka0oV590ASgmedbAZp+fpdUDVAAoBmnEgCawCyAJjYA0ARmATSxAYCmOw5r+8C77eUHaLrbCEAToOlnJcTexF1+bQWgGdqiSB9NAYBmHOljAc1VN9+sVq5cqV577dWk4IdOmqTmnjU3+W/W74Lzz1fLl/9QPfDAz3LTFVWSQJ1lH9hAc5aKvfvuu+qqK69Uf/M369Rvf/tbtf3226spU6aoxYuXqD/7zGeKNvOg+7AHfAI2gE/gox/gIa/jwEf0qtPEJeePPfqoWnHNCiX/ld9ee+2tZs+erWadfnpQXFA2MfbSqyCadGuCHtv0YA/Nst6G+2tXAKBZu+TJC+sGmgIpph59lNq8eXNqga+7bmVXcPGvv/mNeu7555V8nZEg5Mgjj0iA5n7776/+/u//Pvl7VT86EOAFNtAMePHss8+qgeP+KgGZ9k/A5sMbHlEHHHBAVU0/8znYAz4BG8AnADQBmgDNsO62aUDzu989Q/34lltSC3HcccepO9auCytgidT0KQBNl/lgIwBNl41wvaEKADTjVEzdQPOrXzkogZkCJX50400JkNQzsWT2pfz916//i9ppp50SQfSsTPn7mDFjknsl+Lj77ruT6zYALaMiHQjwAhuIDy/EH3x2zz9XH374YTKD4se33prAS/m4MeesOcmHjXHjxqknn3q6THP3uhd7wCdgA/gEgCZAE6Dp1WV2EjUJaOpxhGRu8ZIl6rTTZiVjDFkpdv755yWxRr9WfqWpRp8C0HS1JmwEoOmyEa43VAGAZpyKqRNoLlt2hVp44YUJtEybYaVhpwQc8+d/PxFE4Mbzzz2nHn/88c7S05133ll94xvT1Nj99lN/8Rd/0YGfZRWkAwFeYAPx4YXMwhZoKTDziY0bu9q3CTuffubnfZ+liT3gE7ABfAJAE6AJ0AyLsJsCNGW1x0ETvpw5AULDTtnuSqBmHT/6FICmy86wEYCmy0a43lAFAJpxKqYuoGmCCBNYmqXOCyzkS+qZZ85OIIfsu1nlzEydBzoQ4AU2EBde6G0lpE1mAcu0Dx/98p7YAz4BG8AnADQBmgDNsF62KUBTxwtZwFLHHDLR4vf//m5YIQumpk8BaLpMBxsBaLpshOsNVQCgGadi6gKaGkjmBQ0aaNrLSdevX6++edL0ZJnpfff/VO2/31j1H//xH5Xvo0cHArzABuLCi5OmT0u2k8ibLaEHKPPmnaMuveyyvjpO7AGfgA3gEwCaAE2AZlhX2wSgKdvUjBnzuSTjWR9IzY+o//lf/x1WyIKp6VMAmi7TwUYAmi4b4XpDFQBoxqmYuoDmFz7/+WRmZd7m21lAU4KSY445prOXngQgixdfnMBNvddmFerRgQAvsIF48EJmcf/pzp9OmnLeDGyAZhXezv8ZbW8TbS+/WEosOIFP8G+ndaWkPQBjfGwtls8w86YPApJtqra88WZqtgGaPrXZ/zT4lW6N0SMFaA796eP+myJvQAEUGA0K9OMLpfmV9Cd3rM08mVzPzqrrwA+7vuwAbDTUJ2VAgbIK9MMnpOVJz+KWa//fb3+X+bFij913S04/r2OGJj6hrPVw/2hUAJ8wGmuVMqFA/xSoy2eYJdCxwrdOO01df/0NqYUz44668khc0T8748mjU4GPP/5YbQfQHJ2VS6lQoB8K9KND9w0Y6px5laYdQUY/LIpnjnQF+uET0jTx/aCh22kdp5LiE0a69ZL/fiiAT+iHqjwTBUavAnX5DK2gOZEiL1bIWhnWz5ogruinujx7NCoA0ByNtUqZUKCPCvQj6PANGHQn348Df3wkI8jwUYk0bVOgHz4hTUOfDxrm8rBXXvln9Wef+UxfqwOf0Fd5efgIVQCfMEIrjmyjQCQF6vIZuni+S8l13JG3HVbVkhFXVK0ozxvtCgA0R3sNUz4UqFiBfgQdOmDIW/ZRN6hIk40go2Jj4nGjQoF++IS89pe3LYX+OJK3J1aVouMTqlSTZ40WBfAJo6UmKQcK1KNAXT5Dl0bHCnvttbf61T/+Y2YhY0ykIK6ox+Z4y+hRIAGag4ODH0885LDRUypKMioV4FCgONVax6FAPjOv9ObdruCjnyqxCTOHAmED8Q4A8VlKrg8Xy/s4UqWPwB7wCdgAPsH0KW23h7aXP61/QZNeVWIfCuSzMmz9+vXqmydNTzKft293lTGFPAt76VUUTbo1QY9temgdBgYGAJpVOyKe1x8FAJr90dX11KYATb159+IlS9T8+d93Zbsv1+lACLSwgebCC3NPrKef+bk64IAD+uIHgBcE1thAtw3EghOujxz4hL67wJ4X0EcCY3ysLpbP0HnzAZp63+5DJ01Sss9mXT/aEG3IZWvYCEDTZSNcb6gCAM04FVMH0NRBQ9apxMuWXaEWXnih2n777dWvX/+XzNON+60QHQhAExuIBzT1R42sDfyPPPIIJVtTjBs3Tj351NP9dgddX4ePOnpqLe9r4kva3ibaXn6xyVhwAp/QPI9AewDG+FhlLJ+h86YPI82KF5599ll10IQvJ8nrOGCQj2T5VoNf6dYHPQCaPn6WNA1UAKAZp1LqAJo6sEjb906CiimTD1MffvihygKedSlDBwLQxAbiwQv94SNtc37tQ+oefGAP+ARsAJ8AjBhWgPYA0PSJyWMDTXP2tn2A4LvvvqsOnjhRvfbaq7V+INW60YZoQ642hI0ANF02wvWGKgDQjFMxdQBNCR4+u+efJ9BSYMW1161MZmEKpDj//POSv8fcO5Mgg8EKNjBsA7EGIubBYHrrCfEdV115pVq+/IdJBuvaOxN7wCdgA/iEtKis7QPNtpcfm/Abq8SKI8zc6f37ZXxx7733qj/7zGeSVR7nnHNOAjNlVdjmzb9M/l7njzYE0HTZGzYC0HTZCNcbqgBAM07F1AE0pWTm5tt2SSXYeGLjxmhLzRm4Ai+wgfjwQnKgDwdL84ZpMzf77TUJKpmhiQ3Em6GJT+i3hwt/Pu0BGONjNU0AmjJLc9y4A5NJE/ZPYObDGx6pZS9u+920IdqQqw1hIwBNl41wvaEKADTjVExdQFNKJ8vLL7poUfKFVH4CMqcPnTAY6xAgggyCCmyg1wZiD0Tk48clQ4eDyQwK+cmG/SefPFPJKYd1/wgqAZrYQFygKW0en1C358t+H+2BuMnHGmPHETqPsspjzpmz1cMPP5yATdn66vAjjlBLllwSbRIFbYg25GpD2AhA02UjXG+oAgDNOBVTJ9CMU0L/t9KBAC+wgfjwwr/F9j8l9oBPwAbwCaanabs9tL38ab0OmjTvw2j/o4Pib8BeAJou68FGAJouG+F6QxUAaMapGIDmsO50IMALbAB4Abzo7ova3ibaXn6xhqbMtooTJdEe8In5loePAGiG+CbsBaDpshdsBKDpshGuN1QBgGacigFoAjQZrGADpg0AL7AHfAI2gE9Ij8naPtBse/nTrAJNAJohIzjsBaDpshdsBKDpshGuN1QBgGacigFoMnAFXmADwAvgRVYP1PbAuu3lF7vgIwd9hFaA9gCM8Rmt4DOyVaIN0YZcbQgbAWi6bITrDVUAoBmnYgCaDFQAmtgAQBOgCdDEBrJsADhBHwHQBFCFjFLwGdhLiL0A8LrVQg+AZkj7IW2DFABoxqkMgCYDFYAmNgDQBGYBNLEBgKY7Dmv7QLPt5U+zEDTpVQWgCdB0e1Nib+KufCvRvnVgYEBtNzg4+PHEQw4LsSvSokDtCgA0a5c8eSFAkw4VoIkNADSBWQTW2ABA0x2HtR1etb38AE13G5EUAE2App+lbEuFX+lWCz267QKgGdKaSBtVgaqApgC6/fc/QD204bGo5RkpLwdoArMAmtgAQBOYBdDEBgCa7sit7QPNtpcfoOluIwDNfI1oQ736oAlAM8+3lgaab2zZolZed43atOnn6vXXf9151557flaN2WcfNX36N9XEgw/x8259SLXxicfV8QPHdp48uP6envy899576tprrlZf+9rEqHntQ/FH1SPLAM0XXnhe3XD9deqxRx9VH330YaLLpz71aXXcwPFq0UWLM3US+166dLH6xaZN6p13fpekExj67e+coaYeM2xX5gO+PvlQ9dxzz3prn2aT5s333XuPOn3WqZ131w1iAZrNgln/+pvfqDFjPqfmzTtHXXrZZd52VlXCGEHF+vXr1e23r07a4Ycfbmu/e+21t5p+0nQ1f/73qyqa13NilF8yturmm9XKlSvVa6+9muRz5513VocfcYQ6Z8gO/uwzn/HKe1WJmFnRLJ8gtnHmmbPVAw/8TB06aVJV1ez9nBhtAp+AT/A20JoTxmgPdhFj+oTY5W+Sb9D1ElsTGfusuGZFMgaS3/bbb6+mTJmiZs48JUqfIXkgjsh2TLHtxc7ZSdOnqbvvvlv953/9d83etBmxFj5luB6a5ksqWXK+evWtav6585zGffTUY9SqW25zputHAhfQlDJcvGhhArlcYKkf+eOZ/goUBZouOxX4/sCDG9SOO+7YlRmBoMdOPaoDQO2cZtl11UBzwvhxnY8FMWaWAjSb0aHqXHz1KwepzZs3twZo6kBKQ7xdd91VffDB1g7YE7D5xMaNaqeddvJ3JiVSxgg0TQ2kvDvs8En1yiuvJHBXBiYPb3hEHXDAASVKFXYrA5Hm+IR3331XfXbPP09soS1AE5+gFD4hzGfVmTpGH2GWL7ZPiFn+pvmGJgBNDbfNGOqtt95Sv/3tb5PsXXfdSjXr9NPrbCLJu4gjsiWP2YbsXAnAOvLII5I/txFo4lOGLaKJvqQ00LRBocsTfnf2nNyZcK77+3HdBTv78U6eWVyBIkBTZliOO3Cs86UzZsxUVy1f0ZVu33327szKzHrAzatu7ZmpWSXQnHXaKer+++7tvB6g6azKviaIHWSYHWsbZmianedP7lirZEmB/j377LNqyuTDEpBz3HFuorrhAAATjklEQVTHqTvWrutr3ccamFxw/vlq+fIfJuDyzjvv6symkEHrnKFZefLVXGZrbnnjzVrKz0CkW+aYPkFs4OCJEztwvw1AE5+gFD6hNldX6EVt9wmxyt9E3xArbtDvNWHU4iVLula0LFt2hVp44YVJ0lde+WdWehRq7f25KVYbsktjxtltBJr4lGGLaKovKQ00ZRm3AEH5feIT26tFFy9WRx99TGeWmznzUafZ8ubb/Wn5BZ8K0CwoXKTbigDNc+fNVWvWrO7Y6W2r1yRbEAgY3GVoppeGhWLDz7/4Upf9mrOPF/xgoTpr7rzE5k+ZOaMzazMNMJpAsyiAlG0Q5n9vXhfMlEIUfV6ZKmOG5rB6sYIMARczZnyzs1xIctQGoPmFz38+gTVZZTU72LoC8rpt4E/+eKcE2qbNohC7+NOdP50YaJ0wi5kV8X2CDDS+deqpHZhZtw2YfUqdbQKfoBQ+oUxE0/9762wPZmma4hNilb+JvkHXTyxNZGadxElZH31dmvWztRBHZKsby17MHMky67/+zrc72zy1EWi62keMMUgsn9JUX1IaaJqQI2vprb3U117SbT5Drr3x5htq1U03dpbXylLgWd/+ztAeH9v2DzR/JjSS2Z+77b67+uGVy5IZdbI34mmzTu8AqLQ9NPNm0aVBo2tWLFeDd93ZyZu8Y/LkKWrBhYt6lir3swNo87OLAE2znpddtTyxJfNQIHMWpmmfAi6vuPxStXXrVvW/d9kl2Y5A/0xIKn/7t9+/n2mbRQCktBtty3Z9pz3PBvN2Gvu67GlrlsdlUwDNuPBCOsxZs05LlgfJcmP55UE+V32WvV5noKWX1+fBOh0U1wX06iy/DFDnnT03WV7+69f/JXVZvS6/PfuibD3n3c9AJK5PkJk1y664ojM7WWbpyq+uNmDbRp1tAp+AT+inb6vi2XW2B53fJvmEGOUXHZroG3T9xNRElpcvu/KqrhUuOl9aM9l7WfqPOn/EEdlqx7IXyZF8KL/wwh+oH99yS5JBgeE6xmjbknN8yrCNihZN9CWlgeYeu+3SmaWmZ2imgcc852iCEoGX5qFC5n1pwNQEVQJo9GxRfZ85o64M0JSZckcePjkzb1L2e+77qRo7dr86+4FWvqsfQLOIkOYycLHbZzZt7npMmRmaNnwU+5KlpuaBRGmHAtlL0zW8Ffv96kHjO/fbM1F9yg/QjAsvdND3rdNOU9dff0MnaG/DDE0f+xzNQNNVfgGeB034cpLs6Wd+Xts+mgxE4vkEPSNA+oXLLrs82fus7jYQE2i62oRcr1uPmINPWw98go+F9DdN3fbQNJ9Qd/lDarNu36Dz1kRNBFztv9/Y5GN5nR9EtSbEEc0EmnpLE9nKaP3df6veFw7S4j00Xf4Fn7INgsfyJaWBpg1QpML1qdEnn3yK2n2PPVw2kMyU8/1pQKnT582wlHw8+fSmZOZk1rJy3xmaPvshFoFEvuUm3bACRYDmxRctVNevvDZ5iNTT1SuuTU4MLzJzUp4hM3WXXjJ8Knra3rBVAU3J449uXDU05X9W59T0rHwLuNzvi/t2neD+0suvKrP8kv+0PT9dNgbQjAcv5M3yVWz51Ss6sKpthwLl2ae5v81oXXKeVn4JHv52aFbe+eefV/seoiYw0nmL+dXe5b/6fb3ugarAi9Wrb1PXDh3koA/CihVQN3Gwjk/AJ/S7zbue33afUHf5XfWhr8fwDU30kZInWU58ydCemrLap+6DFbUmAM1sy43ZhmS29/vvva8uveyyJINtPxSoaWOQpvmU2L6kNNCUw1YOnviVzBOg9XJxc19N2yhsUCIzMRcsWJjAUBscCYwy9+C0QaO8b+26u3pAat4+ma49NO3rkr9lVy5PQKkP2PLtZEnnp0ARoJllpwK9l1xyac+BPlk5STsEq4pTzu1tGPRS9++fd4GSmcfy8wWk9hYPkj/zQKHQpeZaC4DmsFXEDDJ0LgCa25QwvwjWuVwqtg3YgwA9c9fPi1aTioFIs3wCQBOfYLZsfEI1fq7oU2L3EZLvmD6hCeW36y5WvNA0+KDjR52vcePGqfvu/2nqdjZF7d/3PuKIbKWa1IYAmun11Haf0hRfUhpoSvW+8MLzasZJ03JPghYQOfOUU1NPODdBiQAmmVFm/uzZZSb8sYFm1syzMkDTnIWalj/X0mNfp046PwWKAE15sg36zLdp+5xz1tm5e6HadiT28HcPPJQ6E9lnVq/Ogw0005TwBZpyb9a7y8wiBmg2C14ANLfVh9ZBlt5u3vzL2k7ojB1o7rH7bmrXoQPNZC8bWSomv7oBBgORZvmEmPBClIjdJnRt4BPwCX7RZH9TNaE9xPQJTSi/XcOxfIPOR1M0kaXDWz/4QH3wwdbOgXKxoCZxBEAzxBM3pQ3Fjjea4lOa4ksqAZpaVAFG5mE+aQaattegCUrSlu7K7LpxB47tPM5cdm6Dm9de35IKpMoAzQnjx3X2zkxb6nvfvfcky5f1zz4cJqShktatQFGgKU8W+H7ZpZf07LWq35pmn2aObLiur+m9Ks20MYGm3WZ0vuwtG9xqD6cAaDYLXrQdaMpX0Tlnzu5sUl73QShNCqpkadDCCy9MDLTOPVUZiDTLJ8SEF6JE7DaBTxi2R3xCSHTTn7Sx24OUKqZPaEL5dc3G9g1NgQ9pli4z70488YRk2xqBmk8+9XR/GkTGU4kjsuVuUhtihmZ3PeFTeu02pi+pFGjqoglM2fgPT6hnnn4q2XPho48+7Cq1DVVcQFNuzkpjQ6MsmFgGaIbs8Sl53fDo4xwO1MfusAzQ1NmSvSb32nOPZD9N+Zk2mgYnTduWrRDk/vnfm9e1lNueZRkyo9JHrtDn2aewu2CtKw8AzWbBizYDTQkkDp44MZlZIDMzf3TjTaknd7psusz1JgWaUg69gbvo8ft/f7dM0bzvZSDSLJ8QE16IEjHbBD6ht9niE7xdWV8SxmwPukAxfUITyi86NME36Ppoiia2wZuwqs6DBSUfxBHZ7qdJ9gLQHK4nfEq2zcbyJX0BmnYxZebmxYsWdqCRPctxtAFNn+XDfYmeWvLQKoCmSCV2J7a47s71atqJA50Dd0L2mNx3n707Wy3Ye2mGAkhX9YU+z5xZrJ9dxjYBms2CF20FmnJ677dOPbUDMx/e8Ehtp3qbbbRJgabk619/8xs1ZsznkizWNVuVgUizfEJMeBETaOIT0qMHfIIrqurv9Sb0ETF9QhPK3xTf0HSgKfmTbWxk+5o6V3kANPN9UBPakM4hQHObEvgUd78Zw5eUApr28tus5d5SdHu2mDmT0gQlM2bMVFctX9GlVsiS837M0DTBUFr+3FVLiioVKAI0TRvTM2g10Hxow2PJEvTjB45NsmkCd7Hbl1/+J/X222+ryZOn9NhmHmQMBZAujUKeZx9WpZ9dZpYmQLNZ8KKNQFMCiSmTD0uWRsmJnD++9dYoMDMmvMnzE3UPXgGazfIJdde/bYsxBl/4hPzIoW6bwCfgE5oC75rkG5qiSZ63iBVT4jOyayVGn5qVG4DmNpjZlDFIk31KDF9SCmjae0em7X+pBTdhjH2wjn0o0JNPb+raB9MGp+aS7jqWnLsOBXKBKK5Xq0ARoGlCaT2T0gSapi2bMzTN+9IOhNpjt106M4/tmZ0hANJHId/n2Se6y7J6c0l9XjvNywdAs1kDlRgdhmkfdQdadiDxxMaNUU7kjBFErF+/Xl2yZInauvUDteWNN1Obqehz0IQvJ9deeeWfazkciYFIs3xC3fAqNtDEJ+ATfGKnWGnq7iPTyhnTJ8Qsf9N8Q4y4Qb9TZmrPnHny0KGJm3Njgz/5452Sj8XXXbdSzTr99NqaDXEEQDPE2GL5FXzKtpVgTfUlpYCmGKAJdOTfAktOPvmUzqnPaYew2EtzbVAiYGjZsh8mz7CXq9tQqR9AUwMfyfvYsfspG9ya+dMnvH9uzBg1YcJB6uijj0k98TqksZI2X4EiQNOG4rJP5vxz5yWzMX904yo1fdoJnYOfzD1e7fvEdpdduTzJoL2Hpr33pi+A9K1v3+fZbWLzL1/oKp+8r8g+rwDNZsGLNgFN6UTHjTuwMzMzNswUS6gzqDJhZdZycjlpUL6g77zzzpnQ09fX+KZjINIsnxATXtTdJvAJwx8w8Am+HqvedHX2EVkli+kTYpW/ib4hJtCUd2tYmbWc3DxErK4PoloT4giAZohnjuFX8CnDNdRUX1IaaNqwz2WUMlvsiY1PdUG/kEN38qCRvLvIknO5Ly0PJjxN248wrawh+y+6tOJ6ugJFgKYc4rPfF/ftOaDKfoPUuTlD2Pe+tKXcvgDSt559npc1a9o+FKvI0nOAZrPgRZuApi6rwLrnnn8h6szMWAMTrYEc+mPvG3rS9GlRTntnINIsnxATXtQNNPEJSuETfKOnOOliDLztksb0CbHK30TfECtu0O/VB4TJv+0ZmKtuvlmdeebsJGnd+2fKO4kjAJohHjqGX8GnDNdQU31JaaApRZRZlDLbzfUTmHnPfT/tOQHcBCUCBH85NC3ePhldnm3P7JS/VTFDM+05uiwakArYOvLwyZ1ZfGllFUj0wIMbupbLuzThergCRYCmvEVm0x479ahMqCkwc80d63rs03VfVr37AMiQ0rueZ8NXezazvY+tORPVJx8AzWGVYnSodh21BWiasxN97LSuA3HqtgHzVEXRQfYQ3WGHTw4tIXslmbkqP5aK+VhIf9LUbQ9ppYgJLyQ/dWmAT9hW+/iE/rTlqp5aV3vIy29MnxCj/E31DbqOYmii321++JSPw7vuuqt66623koOA5HfcccepO9auq8r8vZ8D0MyWKqa92Llq6x6a+JRe+2yiL6kEaEpRZd++ldddkxyg8txzz3ZKLxBz7733VlO+friaMbQUfccdd+xRxj7lXJasz59/TnJQi/wEGM369neG1u2f2nNvVUBTYJAsIZYGKzBV8n3guHFKToXWP0mz5vbb1OBdd3aBTVm2fMI3pqXmz9ujk9BbgaJAU9vp0qWLO/Ws7euwoQN/5px1diaMlrpfuuRitWHDw51TzcUujz/hRHXW3HSY7wKQ3gX+Q0LX8+RQI91m5Bb7RHMbeKbNls7LE0BzWJ0mBBltAZrm10CfNjNagaYuuywNW3vH2uSUd/nJwGTChAlq8eIlteybadYBA5Fm+YSY8EKUqMsv4hO6PSE+wadnqD9NXe0hr2QxfUKM8jfVN+g6iqGJaR+yH/ftt69OxkDykxUfXxo/Xs09a646dNKk+hvJ0BuJI7Jlj20vZs7aCjTxKen22TRfUhnQLOMFbaC56KLFZR7HvaNcgTJA05TGPBRolEtWSfEAms2CF5VUaomHNCnQKlGMwre2vfwiHAMRfILZgNreJtpefnxCd3fSdntoe/nTggs06VWFOGJkAM3CwXLFN9KG6GfyfOvAwIDabnBw8OOJhxxWsem5HwfQdGtEimEFAJpxrAGgCbwAXmADpg0wEMEe8AnYAD4hPSZr+8C77eUHaPqNVYgjAJp+lrItFX4FoAnQDGkxpG2sAlUBzcYWsKEZA2gycAVeYAPAC+BFVhfV9oFG28svdgGcoI/QCtAeej0lmvRqgs8AaIYMe2lDAE2AZkiLIW1jFQBoxqkagCYDFYAmNgDQBGgCNLGBLBsATtBHADQBVCGjFHwG9hJiLwBNgCZAM6TFkLaxCgA041QNQJOBCkATGwBoArMAmtgAQNMdh7V94N328ucNuo86eqrbgFqSAqAJ0AwxdfwKQLOxQDPEkEmLAgDNODYA0ARmATSxAYAmMAugiQ0ANN1xWNsH3m0vP0DT3UYkBUAToOlnKdtS4VcAmgDNkBZD2sYqANCMUzUATWAWQBMbAGgCswCa2ABA0x2HtX3g3fbyAzTdbQSgma8RbahXHzQBaAI0/XwrqRquAEAzTgUBNIFZAE1sAKAJzAJoYgMATXcc1vaBd9vLD9B0txGAJkDTz0qIvYm7/NrKwMCA2m5wcPDjiYccFmpbpEeBWhUAaNYqd+dlAE06VIAmNgDQBGYRWGMDAE13HNZ2oNf28gM03W0EoOkHadhzldibuMuvrQA0/fwuqRqgAEAzTiUANOlQAZrYAEATmEVgjQ0ANN1xWNuBXtvLD9B0txGAph+kAWgSexN3+bUVgKaf3yVVAxQAaMapBIAmHSpAExsAaAKzCKyxAYCmOw5rO9Bre/kBmu42AtD0gzQATWJv4i6/tgLQ9PO7pGqAAgDNOJUA0KRDBWhiAwBNYBaBNTYA0HTHYW0Hem0vP0DT3UYAmn6QBqBJ7E3c5ddWAJp+fpdUDVAAoBmnEgCadKgATWwAoAnMIrDGBgCa7jis7UCv7eUHaLrbCEDTD9IANIm9ibv82gpA08/vkqoBCgA041QCQJMOFaCJDQA0gVkE1tgAQNMdh7Ud6LW9/ABNdxsBaPpBGoAmsTdxl19bAWj6+V1SNUABgGacSgBo0qECNLEBgCYwi8AaGwBouuOwtgO9tpcfoOluIwBNP0gD0CT2Ju7yaysdoOnnfkiFAiiAAiiAAiiAAiiAAiiAAiiAAiiAAiiAAiiAAvEUAGjG0543owAKoAAKoAAKoAAKoAAKoAAKoAAKoAAKoAAKBCqQAM2Ph36B95EcBVAABVAABVAABVAABVAABVAABVAABVAABVAABaIo8P8D44yWXfxA70QAAAAASUVORK5CYII=;" parent="blxBa2OFwdB_IvGQRzjm-14" vertex="1">
          <mxGeometry x="6.430000000000064" y="50" width="467.15" height="72.95" as="geometry" />
        </mxCell>
        <mxCell id="m9NkSREISDHaVlhaHW30-9" value="" style="endArrow=classic;html=1;rounded=0;exitX=0.75;exitY=1;exitDx=0;exitDy=0;" parent="1" source="PWImsXqPBMbIbsKMf3on-2" edge="1">
          <mxGeometry width="50" height="50" relative="1" as="geometry">
            <mxPoint x="3050" y="680" as="sourcePoint" />
            <mxPoint x="3240" y="680" as="targetPoint" />
            <Array as="points">
              <mxPoint x="3080" y="680" />
            </Array>
          </mxGeometry>
        </mxCell>
        <mxCell id="m9NkSREISDHaVlhaHW30-14" value="4 bit" style="edgeLabel;html=1;align=center;verticalAlign=middle;resizable=0;points=[];" parent="m9NkSREISDHaVlhaHW30-9" vertex="1" connectable="0">
          <mxGeometry x="0.4141" relative="1" as="geometry">
            <mxPoint x="-4" y="-10" as="offset" />
          </mxGeometry>
        </mxCell>
        <mxCell id="ikwm_vIRJPmemM-eRx1m-5" value="io_ext" style="edgeLabel;html=1;align=center;verticalAlign=middle;resizable=0;points=[];" parent="m9NkSREISDHaVlhaHW30-9" vertex="1" connectable="0">
          <mxGeometry x="0.349" relative="1" as="geometry">
            <mxPoint y="10" as="offset" />
          </mxGeometry>
        </mxCell>
        <mxCell id="m9NkSREISDHaVlhaHW30-10" value="&lt;div&gt;EXT-out&lt;/div&gt;" style="text;html=1;align=center;verticalAlign=middle;whiteSpace=wrap;rounded=0;" parent="1" vertex="1">
          <mxGeometry x="3240" y="665" width="60" height="30" as="geometry" />
        </mxCell>
        <mxCell id="m9NkSREISDHaVlhaHW30-11" value="i_background" style="text;html=1;align=left;verticalAlign=middle;whiteSpace=wrap;rounded=0;" parent="1" vertex="1">
          <mxGeometry x="3090" y="430" width="80" height="30" as="geometry" />
        </mxCell>
        <mxCell id="m9NkSREISDHaVlhaHW30-12" value="i_foreground" style="text;html=1;align=right;verticalAlign=middle;whiteSpace=wrap;rounded=0;" parent="1" vertex="1">
          <mxGeometry x="2930" y="430" width="80" height="30" as="geometry" />
        </mxCell>
        <mxCell id="ikwm_vIRJPmemM-eRx1m-1" value="" style="endArrow=classic;html=1;rounded=0;entryX=0;entryY=0.5;entryDx=0;entryDy=0;exitX=1;exitY=0.5;exitDx=0;exitDy=0;" parent="1" source="ikwm_vIRJPmemM-eRx1m-2" target="PWImsXqPBMbIbsKMf3on-2" edge="1">
          <mxGeometry width="50" height="50" relative="1" as="geometry">
            <mxPoint x="2880" y="630" as="sourcePoint" />
            <mxPoint x="3140" y="580" as="targetPoint" />
          </mxGeometry>
        </mxCell>
        <mxCell id="ikwm_vIRJPmemM-eRx1m-3" value="1 bit" style="edgeLabel;html=1;align=center;verticalAlign=middle;resizable=0;points=[];" parent="ikwm_vIRJPmemM-eRx1m-1" vertex="1" connectable="0">
          <mxGeometry x="0.332" relative="1" as="geometry">
            <mxPoint x="7" y="-10" as="offset" />
          </mxGeometry>
        </mxCell>
        <mxCell id="ikwm_vIRJPmemM-eRx1m-2" value="PPUCTRL&lt;br&gt;Bit 6" style="text;html=1;align=center;verticalAlign=middle;whiteSpace=wrap;rounded=0;" parent="1" vertex="1">
          <mxGeometry x="2810" y="615" width="70" height="30" as="geometry" />
        </mxCell>
      </root>
    </mxGraphModel>
  </diagram>
  <diagram id="DCHOVInUbRBSqteCegiK" name="VHDL Entities">
    <mxGraphModel dx="1979" dy="1096" grid="1" gridSize="10" guides="1" tooltips="1" connect="1" arrows="1" fold="1" page="1" pageScale="1" pageWidth="1169" pageHeight="827" math="0" shadow="0">
      <root>
        <mxCell id="0" />
        <mxCell id="1" parent="0" />
        <mxCell id="1pIpbDeQOVRZc3YFr_L--1" value="&lt;a href=&quot;data:page/id,Pk12lQZyQbp6iktpiviH&quot;&gt;TopLevel PPU&lt;/a&gt;" style="rounded=0;whiteSpace=wrap;html=1;" parent="1" vertex="1">
          <mxGeometry x="600" y="280" width="440" height="360" as="geometry" />
        </mxCell>
        <mxCell id="1pIpbDeQOVRZc3YFr_L--2" value="&lt;div&gt;Cartridge Dummy&lt;/div&gt;&lt;div&gt;(Pattern Tables)&lt;/div&gt;" style="rounded=0;whiteSpace=wrap;html=1;" parent="1" vertex="1">
          <mxGeometry x="320" y="40" width="240" height="160" as="geometry" />
        </mxCell>
        <mxCell id="1pIpbDeQOVRZc3YFr_L--4" value="TopLevel CPU" style="rounded=0;whiteSpace=wrap;html=1;" parent="1" vertex="1">
          <mxGeometry x="40" y="280" width="240" height="200" as="geometry" />
        </mxCell>
        <mxCell id="1pIpbDeQOVRZc3YFr_L--5" value="VGA Encoder" style="rounded=0;whiteSpace=wrap;html=1;" parent="1" vertex="1">
          <mxGeometry x="1280" y="430" width="120" height="60" as="geometry" />
        </mxCell>
        <mxCell id="RVyaZWpaY8lGxb51BtZF-1" value="" style="endArrow=classic;html=1;rounded=0;entryX=0.545;entryY=-0.006;entryDx=0;entryDy=0;entryPerimeter=0;exitX=1;exitY=0.375;exitDx=0;exitDy=0;exitPerimeter=0;" parent="1" source="1pIpbDeQOVRZc3YFr_L--2" target="1pIpbDeQOVRZc3YFr_L--1" edge="1">
          <mxGeometry width="50" height="50" relative="1" as="geometry">
            <mxPoint x="570" y="100" as="sourcePoint" />
            <mxPoint x="840" y="270" as="targetPoint" />
            <Array as="points">
              <mxPoint x="840" y="100" />
            </Array>
          </mxGeometry>
        </mxCell>
        <mxCell id="RVyaZWpaY8lGxb51BtZF-2" value="s_pattern_color" style="edgeLabel;html=1;align=left;verticalAlign=middle;resizable=0;points=[];" parent="RVyaZWpaY8lGxb51BtZF-1" vertex="1" connectable="0">
          <mxGeometry x="-0.331" relative="1" as="geometry">
            <mxPoint x="-83" y="-10" as="offset" />
          </mxGeometry>
        </mxCell>
        <mxCell id="DIQWg9bIRB0jyBD0whw3-1" value="" style="endArrow=classic;html=1;rounded=0;exitX=0.455;exitY=0;exitDx=0;exitDy=0;exitPerimeter=0;entryX=1.005;entryY=0.619;entryDx=0;entryDy=0;entryPerimeter=0;" parent="1" source="1pIpbDeQOVRZc3YFr_L--1" target="1pIpbDeQOVRZc3YFr_L--2" edge="1">
          <mxGeometry width="50" height="50" relative="1" as="geometry">
            <mxPoint x="630" y="210" as="sourcePoint" />
            <mxPoint x="680" y="160" as="targetPoint" />
            <Array as="points">
              <mxPoint x="800" y="140" />
            </Array>
          </mxGeometry>
        </mxCell>
        <mxCell id="FEK_6QdcVA4cDB52UvcB-1" value="s_pattern_select" style="edgeLabel;html=1;align=left;verticalAlign=middle;resizable=0;points=[];" parent="DIQWg9bIRB0jyBD0whw3-1" vertex="1" connectable="0">
          <mxGeometry x="0.4731" y="1" relative="1" as="geometry">
            <mxPoint x="-31" y="-10" as="offset" />
          </mxGeometry>
        </mxCell>
        <mxCell id="FEK_6QdcVA4cDB52UvcB-6" value="" style="group" parent="1" vertex="1" connectable="0">
          <mxGeometry x="280" y="305" width="320" height="30" as="geometry" />
        </mxCell>
        <mxCell id="NReCXw3mfXVJ6Cyip5_j-1" value="" style="endArrow=none;html=1;rounded=0;" parent="FEK_6QdcVA4cDB52UvcB-6" edge="1">
          <mxGeometry width="50" height="50" relative="1" as="geometry">
            <mxPoint x="180" y="30" as="sourcePoint" />
            <mxPoint x="200" y="10" as="targetPoint" />
          </mxGeometry>
        </mxCell>
        <mxCell id="NReCXw3mfXVJ6Cyip5_j-3" value="8" style="text;html=1;align=center;verticalAlign=middle;whiteSpace=wrap;rounded=0;" parent="FEK_6QdcVA4cDB52UvcB-6" vertex="1">
          <mxGeometry x="180" width="20" height="20" as="geometry" />
        </mxCell>
        <mxCell id="FEK_6QdcVA4cDB52UvcB-2" value="" style="endArrow=classic;html=1;rounded=0;exitX=1;exitY=0.5;exitDx=0;exitDy=0;entryX=0;entryY=0.278;entryDx=0;entryDy=0;entryPerimeter=0;" parent="FEK_6QdcVA4cDB52UvcB-6" edge="1">
          <mxGeometry width="50" height="50" relative="1" as="geometry">
            <mxPoint y="19.58000000000004" as="sourcePoint" />
            <mxPoint x="320" y="19.660000000000196" as="targetPoint" />
          </mxGeometry>
        </mxCell>
        <mxCell id="FEK_6QdcVA4cDB52UvcB-3" value="&lt;div align=&quot;left&quot;&gt;s_ppu_mask&lt;/div&gt;" style="edgeLabel;html=1;align=left;verticalAlign=middle;resizable=0;points=[];" parent="FEK_6QdcVA4cDB52UvcB-2" vertex="1" connectable="0">
          <mxGeometry x="0.1594" y="-1" relative="1" as="geometry">
            <mxPoint x="-86" y="-11" as="offset" />
          </mxGeometry>
        </mxCell>
        <mxCell id="FEK_6QdcVA4cDB52UvcB-7" value="" style="group" parent="1" vertex="1" connectable="0">
          <mxGeometry x="280" y="325" width="320" height="30" as="geometry" />
        </mxCell>
        <mxCell id="FEK_6QdcVA4cDB52UvcB-8" value="" style="endArrow=none;html=1;rounded=0;" parent="FEK_6QdcVA4cDB52UvcB-7" edge="1">
          <mxGeometry width="50" height="50" relative="1" as="geometry">
            <mxPoint x="180" y="30" as="sourcePoint" />
            <mxPoint x="200" y="10" as="targetPoint" />
          </mxGeometry>
        </mxCell>
        <mxCell id="FEK_6QdcVA4cDB52UvcB-9" value="8" style="text;html=1;align=center;verticalAlign=middle;whiteSpace=wrap;rounded=0;" parent="FEK_6QdcVA4cDB52UvcB-7" vertex="1">
          <mxGeometry x="180" width="20" height="20" as="geometry" />
        </mxCell>
        <mxCell id="FEK_6QdcVA4cDB52UvcB-10" value="" style="endArrow=classic;html=1;rounded=0;exitX=1;exitY=0.5;exitDx=0;exitDy=0;entryX=0;entryY=0.278;entryDx=0;entryDy=0;entryPerimeter=0;" parent="FEK_6QdcVA4cDB52UvcB-7" edge="1">
          <mxGeometry width="50" height="50" relative="1" as="geometry">
            <mxPoint y="19.58000000000004" as="sourcePoint" />
            <mxPoint x="320" y="19.660000000000196" as="targetPoint" />
          </mxGeometry>
        </mxCell>
        <mxCell id="FEK_6QdcVA4cDB52UvcB-11" value="s_ppu_status" style="edgeLabel;html=1;align=left;verticalAlign=middle;resizable=0;points=[];" parent="FEK_6QdcVA4cDB52UvcB-10" vertex="1" connectable="0">
          <mxGeometry x="0.1594" y="-1" relative="1" as="geometry">
            <mxPoint x="-86" y="-11" as="offset" />
          </mxGeometry>
        </mxCell>
        <mxCell id="FEK_6QdcVA4cDB52UvcB-12" value="" style="group" parent="1" vertex="1" connectable="0">
          <mxGeometry x="280" y="285" width="320" height="30" as="geometry" />
        </mxCell>
        <mxCell id="FEK_6QdcVA4cDB52UvcB-13" value="" style="endArrow=none;html=1;rounded=0;" parent="FEK_6QdcVA4cDB52UvcB-12" edge="1">
          <mxGeometry width="50" height="50" relative="1" as="geometry">
            <mxPoint x="180" y="30" as="sourcePoint" />
            <mxPoint x="200" y="10" as="targetPoint" />
          </mxGeometry>
        </mxCell>
        <mxCell id="FEK_6QdcVA4cDB52UvcB-14" value="8" style="text;html=1;align=center;verticalAlign=middle;whiteSpace=wrap;rounded=0;" parent="FEK_6QdcVA4cDB52UvcB-12" vertex="1">
          <mxGeometry x="180" width="20" height="20" as="geometry" />
        </mxCell>
        <mxCell id="FEK_6QdcVA4cDB52UvcB-15" value="" style="endArrow=classic;html=1;rounded=0;exitX=1;exitY=0.5;exitDx=0;exitDy=0;entryX=0;entryY=0.278;entryDx=0;entryDy=0;entryPerimeter=0;" parent="FEK_6QdcVA4cDB52UvcB-12" edge="1">
          <mxGeometry width="50" height="50" relative="1" as="geometry">
            <mxPoint y="19.58000000000004" as="sourcePoint" />
            <mxPoint x="320" y="19.660000000000196" as="targetPoint" />
          </mxGeometry>
        </mxCell>
        <mxCell id="FEK_6QdcVA4cDB52UvcB-16" value="&lt;div align=&quot;left&quot;&gt;s_ppu_ctrl&lt;/div&gt;" style="edgeLabel;html=1;align=left;verticalAlign=middle;resizable=0;points=[];" parent="FEK_6QdcVA4cDB52UvcB-15" vertex="1" connectable="0">
          <mxGeometry x="0.1594" y="-1" relative="1" as="geometry">
            <mxPoint x="-86" y="-11" as="offset" />
          </mxGeometry>
        </mxCell>
        <mxCell id="-vPebN01mm_8Fy2NM2jn-1" value="" style="group" parent="1" vertex="1" connectable="0">
          <mxGeometry x="280" y="445" width="320" height="30" as="geometry" />
        </mxCell>
        <mxCell id="-vPebN01mm_8Fy2NM2jn-2" value="" style="endArrow=none;html=1;rounded=0;" parent="-vPebN01mm_8Fy2NM2jn-1" edge="1">
          <mxGeometry width="50" height="50" relative="1" as="geometry">
            <mxPoint x="180" y="30" as="sourcePoint" />
            <mxPoint x="200" y="10" as="targetPoint" />
          </mxGeometry>
        </mxCell>
        <mxCell id="-vPebN01mm_8Fy2NM2jn-3" value="8" style="text;html=1;align=center;verticalAlign=middle;whiteSpace=wrap;rounded=0;" parent="-vPebN01mm_8Fy2NM2jn-1" vertex="1">
          <mxGeometry x="180" width="20" height="20" as="geometry" />
        </mxCell>
        <mxCell id="-vPebN01mm_8Fy2NM2jn-4" value="" style="endArrow=classic;html=1;rounded=0;exitX=1;exitY=0.5;exitDx=0;exitDy=0;entryX=0;entryY=0.278;entryDx=0;entryDy=0;entryPerimeter=0;" parent="-vPebN01mm_8Fy2NM2jn-1" edge="1">
          <mxGeometry width="50" height="50" relative="1" as="geometry">
            <mxPoint y="19.58000000000004" as="sourcePoint" />
            <mxPoint x="320" y="19.660000000000196" as="targetPoint" />
          </mxGeometry>
        </mxCell>
        <mxCell id="-vPebN01mm_8Fy2NM2jn-5" value="s_oam_dma" style="edgeLabel;html=1;align=left;verticalAlign=middle;resizable=0;points=[];" parent="-vPebN01mm_8Fy2NM2jn-4" vertex="1" connectable="0">
          <mxGeometry x="0.1594" y="-1" relative="1" as="geometry">
            <mxPoint x="-86" y="-11" as="offset" />
          </mxGeometry>
        </mxCell>
        <mxCell id="FEK_6QdcVA4cDB52UvcB-18" value="" style="endArrow=none;html=1;rounded=0;" parent="1" edge="1">
          <mxGeometry width="50" height="50" relative="1" as="geometry">
            <mxPoint x="460" y="375" as="sourcePoint" />
            <mxPoint x="480" y="355" as="targetPoint" />
          </mxGeometry>
        </mxCell>
        <mxCell id="FEK_6QdcVA4cDB52UvcB-19" value="8" style="text;html=1;align=center;verticalAlign=middle;whiteSpace=wrap;rounded=0;" parent="1" vertex="1">
          <mxGeometry x="460" y="345" width="20" height="20" as="geometry" />
        </mxCell>
        <mxCell id="FEK_6QdcVA4cDB52UvcB-20" value="" style="endArrow=classic;html=1;rounded=0;exitX=1;exitY=0.5;exitDx=0;exitDy=0;entryX=0;entryY=0.278;entryDx=0;entryDy=0;entryPerimeter=0;" parent="1" edge="1">
          <mxGeometry width="50" height="50" relative="1" as="geometry">
            <mxPoint x="280" y="364.58000000000004" as="sourcePoint" />
            <mxPoint x="600" y="364.6600000000002" as="targetPoint" />
          </mxGeometry>
        </mxCell>
        <mxCell id="FEK_6QdcVA4cDB52UvcB-21" value="s_oam_addr" style="edgeLabel;html=1;align=left;verticalAlign=middle;resizable=0;points=[];" parent="FEK_6QdcVA4cDB52UvcB-20" vertex="1" connectable="0">
          <mxGeometry x="0.1594" y="-1" relative="1" as="geometry">
            <mxPoint x="-86" y="-11" as="offset" />
          </mxGeometry>
        </mxCell>
        <mxCell id="FEK_6QdcVA4cDB52UvcB-22" value="" style="group" parent="1" vertex="1" connectable="0">
          <mxGeometry x="280" y="385" width="320" height="30" as="geometry" />
        </mxCell>
        <mxCell id="FEK_6QdcVA4cDB52UvcB-23" value="" style="endArrow=none;html=1;rounded=0;" parent="FEK_6QdcVA4cDB52UvcB-22" edge="1">
          <mxGeometry width="50" height="50" relative="1" as="geometry">
            <mxPoint x="180" y="30" as="sourcePoint" />
            <mxPoint x="200" y="10" as="targetPoint" />
          </mxGeometry>
        </mxCell>
        <mxCell id="FEK_6QdcVA4cDB52UvcB-24" value="8" style="text;html=1;align=center;verticalAlign=middle;whiteSpace=wrap;rounded=0;" parent="FEK_6QdcVA4cDB52UvcB-22" vertex="1">
          <mxGeometry x="180" width="20" height="20" as="geometry" />
        </mxCell>
        <mxCell id="FEK_6QdcVA4cDB52UvcB-25" value="" style="endArrow=classic;html=1;rounded=0;exitX=1;exitY=0.5;exitDx=0;exitDy=0;entryX=0;entryY=0.278;entryDx=0;entryDy=0;entryPerimeter=0;" parent="FEK_6QdcVA4cDB52UvcB-22" edge="1">
          <mxGeometry width="50" height="50" relative="1" as="geometry">
            <mxPoint y="19.58000000000004" as="sourcePoint" />
            <mxPoint x="320" y="19.660000000000196" as="targetPoint" />
          </mxGeometry>
        </mxCell>
        <mxCell id="FEK_6QdcVA4cDB52UvcB-26" value="s_ppu_scroll" style="edgeLabel;html=1;align=left;verticalAlign=middle;resizable=0;points=[];" parent="FEK_6QdcVA4cDB52UvcB-25" vertex="1" connectable="0">
          <mxGeometry x="0.1594" y="-1" relative="1" as="geometry">
            <mxPoint x="-86" y="-11" as="offset" />
          </mxGeometry>
        </mxCell>
        <mxCell id="FEK_6QdcVA4cDB52UvcB-27" value="" style="group" parent="1" vertex="1" connectable="0">
          <mxGeometry x="280" y="405" width="320" height="30" as="geometry" />
        </mxCell>
        <mxCell id="FEK_6QdcVA4cDB52UvcB-28" value="" style="endArrow=none;html=1;rounded=0;" parent="FEK_6QdcVA4cDB52UvcB-27" edge="1">
          <mxGeometry width="50" height="50" relative="1" as="geometry">
            <mxPoint x="180" y="30" as="sourcePoint" />
            <mxPoint x="200" y="10" as="targetPoint" />
          </mxGeometry>
        </mxCell>
        <mxCell id="FEK_6QdcVA4cDB52UvcB-29" value="8" style="text;html=1;align=center;verticalAlign=middle;whiteSpace=wrap;rounded=0;" parent="FEK_6QdcVA4cDB52UvcB-27" vertex="1">
          <mxGeometry x="180" width="20" height="20" as="geometry" />
        </mxCell>
        <mxCell id="FEK_6QdcVA4cDB52UvcB-30" value="" style="endArrow=classic;html=1;rounded=0;exitX=1;exitY=0.5;exitDx=0;exitDy=0;entryX=0;entryY=0.278;entryDx=0;entryDy=0;entryPerimeter=0;" parent="FEK_6QdcVA4cDB52UvcB-27" edge="1">
          <mxGeometry width="50" height="50" relative="1" as="geometry">
            <mxPoint y="19.58000000000004" as="sourcePoint" />
            <mxPoint x="320" y="19.660000000000196" as="targetPoint" />
          </mxGeometry>
        </mxCell>
        <mxCell id="FEK_6QdcVA4cDB52UvcB-31" value="s_ppu_addr" style="edgeLabel;html=1;align=left;verticalAlign=middle;resizable=0;points=[];" parent="FEK_6QdcVA4cDB52UvcB-30" vertex="1" connectable="0">
          <mxGeometry x="0.1594" y="-1" relative="1" as="geometry">
            <mxPoint x="-86" y="-11" as="offset" />
          </mxGeometry>
        </mxCell>
        <mxCell id="FEK_6QdcVA4cDB52UvcB-32" value="" style="group" parent="1" vertex="1" connectable="0">
          <mxGeometry x="280" y="365" width="320" height="30" as="geometry" />
        </mxCell>
        <mxCell id="FEK_6QdcVA4cDB52UvcB-33" value="" style="endArrow=none;html=1;rounded=0;" parent="FEK_6QdcVA4cDB52UvcB-32" edge="1">
          <mxGeometry width="50" height="50" relative="1" as="geometry">
            <mxPoint x="180" y="30" as="sourcePoint" />
            <mxPoint x="200" y="10" as="targetPoint" />
          </mxGeometry>
        </mxCell>
        <mxCell id="FEK_6QdcVA4cDB52UvcB-34" value="8" style="text;html=1;align=center;verticalAlign=middle;whiteSpace=wrap;rounded=0;" parent="FEK_6QdcVA4cDB52UvcB-32" vertex="1">
          <mxGeometry x="180" width="20" height="20" as="geometry" />
        </mxCell>
        <mxCell id="FEK_6QdcVA4cDB52UvcB-35" value="" style="endArrow=classic;html=1;rounded=0;exitX=1;exitY=0.5;exitDx=0;exitDy=0;entryX=0;entryY=0.278;entryDx=0;entryDy=0;entryPerimeter=0;" parent="FEK_6QdcVA4cDB52UvcB-32" edge="1">
          <mxGeometry width="50" height="50" relative="1" as="geometry">
            <mxPoint y="19.58000000000004" as="sourcePoint" />
            <mxPoint x="320" y="19.660000000000196" as="targetPoint" />
          </mxGeometry>
        </mxCell>
        <mxCell id="FEK_6QdcVA4cDB52UvcB-36" value="s_oam_data" style="edgeLabel;html=1;align=left;verticalAlign=middle;resizable=0;points=[];" parent="FEK_6QdcVA4cDB52UvcB-35" vertex="1" connectable="0">
          <mxGeometry x="0.1594" y="-1" relative="1" as="geometry">
            <mxPoint x="-86" y="-11" as="offset" />
          </mxGeometry>
        </mxCell>
        <mxCell id="FEK_6QdcVA4cDB52UvcB-37" value="" style="group" parent="1" vertex="1" connectable="0">
          <mxGeometry x="280" y="425" width="320" height="30" as="geometry" />
        </mxCell>
        <mxCell id="FEK_6QdcVA4cDB52UvcB-38" value="" style="endArrow=none;html=1;rounded=0;" parent="FEK_6QdcVA4cDB52UvcB-37" edge="1">
          <mxGeometry width="50" height="50" relative="1" as="geometry">
            <mxPoint x="180" y="30" as="sourcePoint" />
            <mxPoint x="200" y="10" as="targetPoint" />
          </mxGeometry>
        </mxCell>
        <mxCell id="FEK_6QdcVA4cDB52UvcB-39" value="8" style="text;html=1;align=center;verticalAlign=middle;whiteSpace=wrap;rounded=0;" parent="FEK_6QdcVA4cDB52UvcB-37" vertex="1">
          <mxGeometry x="180" width="20" height="20" as="geometry" />
        </mxCell>
        <mxCell id="FEK_6QdcVA4cDB52UvcB-40" value="" style="endArrow=classic;html=1;rounded=0;exitX=1;exitY=0.5;exitDx=0;exitDy=0;entryX=0;entryY=0.278;entryDx=0;entryDy=0;entryPerimeter=0;" parent="FEK_6QdcVA4cDB52UvcB-37" edge="1">
          <mxGeometry width="50" height="50" relative="1" as="geometry">
            <mxPoint y="19.58000000000004" as="sourcePoint" />
            <mxPoint x="320" y="19.660000000000196" as="targetPoint" />
          </mxGeometry>
        </mxCell>
        <mxCell id="FEK_6QdcVA4cDB52UvcB-41" value="s_ppu_data" style="edgeLabel;html=1;align=left;verticalAlign=middle;resizable=0;points=[];" parent="FEK_6QdcVA4cDB52UvcB-40" vertex="1" connectable="0">
          <mxGeometry x="0.1594" y="-1" relative="1" as="geometry">
            <mxPoint x="-86" y="-11" as="offset" />
          </mxGeometry>
        </mxCell>
        <mxCell id="-vPebN01mm_8Fy2NM2jn-6" value="" style="endArrow=none;html=1;rounded=0;" parent="1" edge="1">
          <mxGeometry width="50" height="50" relative="1" as="geometry">
            <mxPoint x="720" y="150" as="sourcePoint" />
            <mxPoint x="740" y="130" as="targetPoint" />
          </mxGeometry>
        </mxCell>
        <mxCell id="-vPebN01mm_8Fy2NM2jn-7" value="14" style="text;html=1;align=center;verticalAlign=middle;whiteSpace=wrap;rounded=0;" parent="1" vertex="1">
          <mxGeometry x="720" y="120" width="20" height="20" as="geometry" />
        </mxCell>
        <mxCell id="-vPebN01mm_8Fy2NM2jn-8" value="" style="endArrow=none;html=1;rounded=0;" parent="1" edge="1">
          <mxGeometry width="50" height="50" relative="1" as="geometry">
            <mxPoint x="720" y="110" as="sourcePoint" />
            <mxPoint x="740" y="90" as="targetPoint" />
          </mxGeometry>
        </mxCell>
        <mxCell id="-vPebN01mm_8Fy2NM2jn-9" value="16" style="text;html=1;align=center;verticalAlign=middle;whiteSpace=wrap;rounded=0;" parent="1" vertex="1">
          <mxGeometry x="720" y="80" width="20" height="20" as="geometry" />
        </mxCell>
        <mxCell id="-vPebN01mm_8Fy2NM2jn-10" value="" style="group" parent="1" vertex="1" connectable="0">
          <mxGeometry x="1040" y="440" width="240" height="30" as="geometry" />
        </mxCell>
        <mxCell id="-vPebN01mm_8Fy2NM2jn-11" value="" style="endArrow=none;html=1;rounded=0;" parent="-vPebN01mm_8Fy2NM2jn-10" edge="1">
          <mxGeometry width="50" height="50" relative="1" as="geometry">
            <mxPoint x="135" y="30" as="sourcePoint" />
            <mxPoint x="150" y="10" as="targetPoint" />
          </mxGeometry>
        </mxCell>
        <mxCell id="-vPebN01mm_8Fy2NM2jn-12" value="?" style="text;html=1;align=center;verticalAlign=middle;whiteSpace=wrap;rounded=0;" parent="-vPebN01mm_8Fy2NM2jn-10" vertex="1">
          <mxGeometry x="135" width="15" height="20" as="geometry" />
        </mxCell>
        <mxCell id="-vPebN01mm_8Fy2NM2jn-13" value="" style="endArrow=classic;html=1;rounded=0;exitX=1;exitY=0.5;exitDx=0;exitDy=0;entryX=0;entryY=0.278;entryDx=0;entryDy=0;entryPerimeter=0;" parent="-vPebN01mm_8Fy2NM2jn-10" edge="1">
          <mxGeometry width="50" height="50" relative="1" as="geometry">
            <mxPoint y="19.58000000000004" as="sourcePoint" />
            <mxPoint x="240" y="19.660000000000196" as="targetPoint" />
          </mxGeometry>
        </mxCell>
        <mxCell id="-vPebN01mm_8Fy2NM2jn-14" value="s_pixel" style="edgeLabel;html=1;align=left;verticalAlign=middle;resizable=0;points=[];" parent="-vPebN01mm_8Fy2NM2jn-13" vertex="1" connectable="0">
          <mxGeometry x="0.1594" y="-1" relative="1" as="geometry">
            <mxPoint x="-69" y="-11" as="offset" />
          </mxGeometry>
        </mxCell>
        <mxCell id="eij8HSFzitUk1GyOosHZ-1" value="TODO" style="text;html=1;align=center;verticalAlign=middle;whiteSpace=wrap;rounded=0;fontColor=light-dark(#000000,#FF0000);" parent="1" vertex="1">
          <mxGeometry x="1140" y="400" width="60" height="30" as="geometry" />
        </mxCell>
      </root>
    </mxGraphModel>
  </diagram>
  <diagram id="Pk12lQZyQbp6iktpiviH" name="VHDL TopLevel PPU">
    <mxGraphModel dx="1979" dy="1096" grid="1" gridSize="10" guides="1" tooltips="1" connect="1" arrows="1" fold="1" page="1" pageScale="1" pageWidth="1169" pageHeight="827" math="0" shadow="0">
      <root>
        <mxCell id="0" />
        <mxCell id="1" parent="0" />
        <mxCell id="hPt4BLlKm_qN6CiMeyY9-1" value="PPU Control Unit" style="rounded=0;whiteSpace=wrap;html=1;" parent="1" vertex="1">
          <mxGeometry x="80" y="280" width="120" height="200" as="geometry" />
        </mxCell>
        <mxCell id="Z5fIt5IhvxwGMcnhJf5K-1" value="" style="endArrow=classic;html=1;rounded=0;entryX=0;entryY=0.2;entryDx=0;entryDy=0;entryPerimeter=0;" parent="1" target="hPt4BLlKm_qN6CiMeyY9-1" edge="1">
          <mxGeometry width="50" height="50" relative="1" as="geometry">
            <mxPoint x="40" y="320" as="sourcePoint" />
            <mxPoint x="61.200000000000045" y="290.00000000000006" as="targetPoint" />
          </mxGeometry>
        </mxCell>
        <mxCell id="Z5fIt5IhvxwGMcnhJf5K-2" value="" style="endArrow=classic;html=1;rounded=0;entryX=0;entryY=0.3;entryDx=0;entryDy=0;entryPerimeter=0;" parent="1" target="hPt4BLlKm_qN6CiMeyY9-1" edge="1">
          <mxGeometry width="50" height="50" relative="1" as="geometry">
            <mxPoint x="40" y="340" as="sourcePoint" />
            <mxPoint x="60" y="380" as="targetPoint" />
          </mxGeometry>
        </mxCell>
        <mxCell id="FncVV1wCi4xkJpTZ8Jhk-1" value="" style="endArrow=classic;html=1;rounded=0;entryX=0;entryY=0.4;entryDx=0;entryDy=0;entryPerimeter=0;" parent="1" target="hPt4BLlKm_qN6CiMeyY9-1" edge="1">
          <mxGeometry width="50" height="50" relative="1" as="geometry">
            <mxPoint x="40" y="360" as="sourcePoint" />
            <mxPoint x="70" y="390" as="targetPoint" />
          </mxGeometry>
        </mxCell>
        <mxCell id="FncVV1wCi4xkJpTZ8Jhk-2" value="" style="endArrow=classic;html=1;rounded=0;entryX=0;entryY=0.5;entryDx=0;entryDy=0;" parent="1" target="hPt4BLlKm_qN6CiMeyY9-1" edge="1">
          <mxGeometry width="50" height="50" relative="1" as="geometry">
            <mxPoint x="40" y="380" as="sourcePoint" />
            <mxPoint x="70" y="413" as="targetPoint" />
          </mxGeometry>
        </mxCell>
        <mxCell id="FncVV1wCi4xkJpTZ8Jhk-3" value="" style="endArrow=classic;html=1;rounded=0;entryX=0;entryY=0.6;entryDx=0;entryDy=0;entryPerimeter=0;" parent="1" target="hPt4BLlKm_qN6CiMeyY9-1" edge="1">
          <mxGeometry width="50" height="50" relative="1" as="geometry">
            <mxPoint x="40" y="400" as="sourcePoint" />
            <mxPoint x="60" y="430" as="targetPoint" />
          </mxGeometry>
        </mxCell>
        <mxCell id="FncVV1wCi4xkJpTZ8Jhk-4" value="" style="endArrow=classic;html=1;rounded=0;entryX=0;entryY=0.7;entryDx=0;entryDy=0;entryPerimeter=0;" parent="1" target="hPt4BLlKm_qN6CiMeyY9-1" edge="1">
          <mxGeometry width="50" height="50" relative="1" as="geometry">
            <mxPoint x="40" y="420" as="sourcePoint" />
            <mxPoint x="60" y="470" as="targetPoint" />
          </mxGeometry>
        </mxCell>
        <mxCell id="FncVV1wCi4xkJpTZ8Jhk-5" value="" style="endArrow=classic;html=1;rounded=0;entryX=0;entryY=0.8;entryDx=0;entryDy=0;entryPerimeter=0;" parent="1" target="hPt4BLlKm_qN6CiMeyY9-1" edge="1">
          <mxGeometry width="50" height="50" relative="1" as="geometry">
            <mxPoint x="40" y="440" as="sourcePoint" />
            <mxPoint x="90" y="450" as="targetPoint" />
          </mxGeometry>
        </mxCell>
        <mxCell id="FncVV1wCi4xkJpTZ8Jhk-7" value="" style="endArrow=classic;html=1;rounded=0;entryX=0;entryY=0.9;entryDx=0;entryDy=0;entryPerimeter=0;" parent="1" target="hPt4BLlKm_qN6CiMeyY9-1" edge="1">
          <mxGeometry width="50" height="50" relative="1" as="geometry">
            <mxPoint x="40" y="460" as="sourcePoint" />
            <mxPoint x="90" y="440" as="targetPoint" />
          </mxGeometry>
        </mxCell>
        <mxCell id="FncVV1wCi4xkJpTZ8Jhk-8" value="" style="endArrow=classic;html=1;rounded=0;entryX=0;entryY=0.1;entryDx=0;entryDy=0;entryPerimeter=0;" parent="1" target="hPt4BLlKm_qN6CiMeyY9-1" edge="1">
          <mxGeometry width="50" height="50" relative="1" as="geometry">
            <mxPoint x="40" y="300" as="sourcePoint" />
            <mxPoint x="70" y="300" as="targetPoint" />
          </mxGeometry>
        </mxCell>
        <mxCell id="V-xhT5LjxObgMXBtw4nB-1" value="Name tables" style="rounded=0;whiteSpace=wrap;html=1;" parent="1" vertex="1">
          <mxGeometry x="400" y="280" width="120" height="60" as="geometry" />
        </mxCell>
        <mxCell id="F0PMAWxZK5Zxnnyj_fu4-1" value="Attribute tables" style="rounded=0;whiteSpace=wrap;html=1;" parent="1" vertex="1">
          <mxGeometry x="400" y="360" width="120" height="60" as="geometry" />
        </mxCell>
        <mxCell id="F0PMAWxZK5Zxnnyj_fu4-3" value="" style="endArrow=classic;html=1;rounded=0;entryX=0;entryY=0.5;entryDx=0;entryDy=0;" parent="1" target="V-xhT5LjxObgMXBtw4nB-1" edge="1">
          <mxGeometry width="50" height="50" relative="1" as="geometry">
            <mxPoint x="200" y="309.83" as="sourcePoint" />
            <mxPoint x="380" y="309.83" as="targetPoint" />
          </mxGeometry>
        </mxCell>
        <mxCell id="UqD-lUkbTBe4NKrkjUxH-1" value="Text" style="edgeLabel;html=1;align=left;verticalAlign=middle;resizable=0;points=[];" parent="F0PMAWxZK5Zxnnyj_fu4-3" vertex="1" connectable="0">
          <mxGeometry x="-0.046" y="-1" relative="1" as="geometry">
            <mxPoint x="-16" y="-11" as="offset" />
          </mxGeometry>
        </mxCell>
        <mxCell id="UqD-lUkbTBe4NKrkjUxH-2" value="" style="endArrow=classic;html=1;rounded=0;exitX=1;exitY=0.5;exitDx=0;exitDy=0;" parent="1" source="V-xhT5LjxObgMXBtw4nB-1" edge="1">
          <mxGeometry width="50" height="50" relative="1" as="geometry">
            <mxPoint x="580" y="380" as="sourcePoint" />
            <mxPoint x="640" y="310" as="targetPoint" />
          </mxGeometry>
        </mxCell>
        <mxCell id="sId8vM98vSg7ZaaHcBkY-1" value="" style="endArrow=classic;html=1;rounded=0;exitX=1.003;exitY=0.546;exitDx=0;exitDy=0;exitPerimeter=0;entryX=0;entryY=0.5;entryDx=0;entryDy=0;" parent="1" source="hPt4BLlKm_qN6CiMeyY9-1" target="F0PMAWxZK5Zxnnyj_fu4-1" edge="1">
          <mxGeometry width="50" height="50" relative="1" as="geometry">
            <mxPoint x="340" y="390" as="sourcePoint" />
            <mxPoint x="390" y="400" as="targetPoint" />
          </mxGeometry>
        </mxCell>
        <mxCell id="sId8vM98vSg7ZaaHcBkY-3" value="Text" style="edgeLabel;html=1;align=left;verticalAlign=middle;resizable=0;points=[];" parent="sId8vM98vSg7ZaaHcBkY-1" vertex="1" connectable="0">
          <mxGeometry x="-0.0976" y="1" relative="1" as="geometry">
            <mxPoint x="-10" y="-9" as="offset" />
          </mxGeometry>
        </mxCell>
        <mxCell id="sId8vM98vSg7ZaaHcBkY-2" value="" style="endArrow=classic;html=1;rounded=0;exitX=1;exitY=0.5;exitDx=0;exitDy=0;" parent="1" source="F0PMAWxZK5Zxnnyj_fu4-1" edge="1">
          <mxGeometry width="50" height="50" relative="1" as="geometry">
            <mxPoint x="340" y="400" as="sourcePoint" />
            <mxPoint x="640" y="390" as="targetPoint" />
          </mxGeometry>
        </mxCell>
        <mxCell id="m98vGV-R4jrSIljLvuui-1" value="Sprite Control Unit" style="rounded=0;whiteSpace=wrap;html=1;" parent="1" vertex="1">
          <mxGeometry x="1100" y="384" width="120" height="60" as="geometry" />
        </mxCell>
        <mxCell id="ACfstS_xk-I5XzraiATe-1" value="Paletten RAM" style="rounded=0;whiteSpace=wrap;html=1;" parent="1" vertex="1">
          <mxGeometry x="1169" y="810" width="120" height="60" as="geometry" />
        </mxCell>
        <mxCell id="ACfstS_xk-I5XzraiATe-3" value="OAM" style="rounded=0;whiteSpace=wrap;html=1;" parent="1" vertex="1">
          <mxGeometry x="940" y="384" width="120" height="60" as="geometry" />
        </mxCell>
        <mxCell id="ACfstS_xk-I5XzraiATe-4" value="OAM RAM" style="rounded=0;whiteSpace=wrap;html=1;" parent="1" vertex="1">
          <mxGeometry x="1100" y="560" width="120" height="60" as="geometry" />
        </mxCell>
        <mxCell id="ACfstS_xk-I5XzraiATe-5" value="Color Pixel Generator" style="rounded=0;whiteSpace=wrap;html=1;" parent="1" vertex="1">
          <mxGeometry x="1349" y="810" width="120" height="60" as="geometry" />
        </mxCell>
        <mxCell id="w0wVo5ab4qcGDqKw7DYl-1" value="Pixel Data Sort" style="rounded=0;whiteSpace=wrap;html=1;" parent="1" vertex="1">
          <mxGeometry x="1349" y="327.5" width="120" height="112.5" as="geometry" />
        </mxCell>
        <mxCell id="w0wVo5ab4qcGDqKw7DYl-2" value="Background Control Unit" style="rounded=0;whiteSpace=wrap;html=1;" parent="1" vertex="1">
          <mxGeometry x="640" y="280" width="200" height="150" as="geometry" />
        </mxCell>
        <mxCell id="w0wVo5ab4qcGDqKw7DYl-3" value="Internal Registers" style="rounded=0;whiteSpace=wrap;html=1;" parent="1" vertex="1">
          <mxGeometry x="680" y="490" width="120" height="60" as="geometry" />
        </mxCell>
        <mxCell id="w0wVo5ab4qcGDqKw7DYl-5" value="" style="endArrow=classic;html=1;rounded=0;entryX=0.5;entryY=0;entryDx=0;entryDy=0;" parent="1" target="w0wVo5ab4qcGDqKw7DYl-2" edge="1">
          <mxGeometry width="50" height="50" relative="1" as="geometry">
            <mxPoint x="740" y="40" as="sourcePoint" />
            <mxPoint x="730" y="190" as="targetPoint" />
          </mxGeometry>
        </mxCell>
        <mxCell id="w0wVo5ab4qcGDqKw7DYl-6" value="" style="endArrow=classic;html=1;rounded=0;exitX=0.5;exitY=0;exitDx=0;exitDy=0;entryX=0.5;entryY=1;entryDx=0;entryDy=0;" parent="1" source="w0wVo5ab4qcGDqKw7DYl-3" target="w0wVo5ab4qcGDqKw7DYl-2" edge="1">
          <mxGeometry width="50" height="50" relative="1" as="geometry">
            <mxPoint x="700" y="470" as="sourcePoint" />
            <mxPoint x="750" y="420" as="targetPoint" />
          </mxGeometry>
        </mxCell>
        <mxCell id="w0wVo5ab4qcGDqKw7DYl-7" value="" style="endArrow=classic;html=1;rounded=0;exitX=1;exitY=0.5;exitDx=0;exitDy=0;entryX=0;entryY=0.25;entryDx=0;entryDy=0;" parent="1" source="w0wVo5ab4qcGDqKw7DYl-2" target="w0wVo5ab4qcGDqKw7DYl-1" edge="1">
          <mxGeometry width="50" height="50" relative="1" as="geometry">
            <mxPoint x="700" y="470" as="sourcePoint" />
            <mxPoint x="750" y="420" as="targetPoint" />
          </mxGeometry>
        </mxCell>
        <mxCell id="w0wVo5ab4qcGDqKw7DYl-8" value="" style="endArrow=classic;html=1;rounded=0;exitX=0.5;exitY=1;exitDx=0;exitDy=0;entryX=0.5;entryY=0;entryDx=0;entryDy=0;" parent="1" source="w0wVo5ab4qcGDqKw7DYl-1" target="ACfstS_xk-I5XzraiATe-5" edge="1">
          <mxGeometry width="50" height="50" relative="1" as="geometry">
            <mxPoint x="1089" y="470" as="sourcePoint" />
            <mxPoint x="1139" y="420" as="targetPoint" />
          </mxGeometry>
        </mxCell>
        <mxCell id="w0wVo5ab4qcGDqKw7DYl-9" value="" style="endArrow=classic;html=1;rounded=0;exitX=1;exitY=0.5;exitDx=0;exitDy=0;entryX=0;entryY=0.5;entryDx=0;entryDy=0;" parent="1" source="ACfstS_xk-I5XzraiATe-1" target="ACfstS_xk-I5XzraiATe-5" edge="1">
          <mxGeometry width="50" height="50" relative="1" as="geometry">
            <mxPoint x="1089" y="660" as="sourcePoint" />
            <mxPoint x="1139" y="610" as="targetPoint" />
          </mxGeometry>
        </mxCell>
        <mxCell id="w0wVo5ab4qcGDqKw7DYl-10" value="VGA Encoder" style="rounded=0;whiteSpace=wrap;html=1;" parent="1" vertex="1">
          <mxGeometry x="1349" y="920" width="120" height="60" as="geometry" />
        </mxCell>
        <mxCell id="w0wVo5ab4qcGDqKw7DYl-11" value="" style="endArrow=classic;html=1;rounded=0;exitX=0.5;exitY=1;exitDx=0;exitDy=0;entryX=0.5;entryY=0;entryDx=0;entryDy=0;" parent="1" source="ACfstS_xk-I5XzraiATe-5" target="w0wVo5ab4qcGDqKw7DYl-10" edge="1">
          <mxGeometry width="50" height="50" relative="1" as="geometry">
            <mxPoint x="1089" y="690" as="sourcePoint" />
            <mxPoint x="1199" y="940" as="targetPoint" />
          </mxGeometry>
        </mxCell>
        <mxCell id="w0wVo5ab4qcGDqKw7DYl-12" value="" style="endArrow=classic;html=1;rounded=0;exitX=1;exitY=0.5;exitDx=0;exitDy=0;entryX=0;entryY=0.5;entryDx=0;entryDy=0;" parent="1" source="ACfstS_xk-I5XzraiATe-3" target="m98vGV-R4jrSIljLvuui-1" edge="1">
          <mxGeometry width="50" height="50" relative="1" as="geometry">
            <mxPoint x="900" y="670" as="sourcePoint" />
            <mxPoint x="950" y="620" as="targetPoint" />
          </mxGeometry>
        </mxCell>
        <mxCell id="w0wVo5ab4qcGDqKw7DYl-14" value="" style="endArrow=classic;html=1;rounded=0;entryX=0;entryY=0.75;entryDx=0;entryDy=0;exitX=1;exitY=0.5;exitDx=0;exitDy=0;" parent="1" source="m98vGV-R4jrSIljLvuui-1" target="w0wVo5ab4qcGDqKw7DYl-1" edge="1">
          <mxGeometry width="50" height="50" relative="1" as="geometry">
            <mxPoint x="900" y="670" as="sourcePoint" />
            <mxPoint x="950" y="620" as="targetPoint" />
          </mxGeometry>
        </mxCell>
        <mxCell id="w0wVo5ab4qcGDqKw7DYl-15" value="" style="endArrow=classic;startArrow=classic;html=1;rounded=0;entryX=0.5;entryY=1;entryDx=0;entryDy=0;exitX=0.5;exitY=0;exitDx=0;exitDy=0;" parent="1" source="ACfstS_xk-I5XzraiATe-4" target="m98vGV-R4jrSIljLvuui-1" edge="1">
          <mxGeometry width="50" height="50" relative="1" as="geometry">
            <mxPoint x="900" y="630" as="sourcePoint" />
            <mxPoint x="950" y="580" as="targetPoint" />
          </mxGeometry>
        </mxCell>
        <mxCell id="w0wVo5ab4qcGDqKw7DYl-16" value="s_patterns" style="text;html=1;align=center;verticalAlign=middle;whiteSpace=wrap;rounded=0;" parent="1" vertex="1">
          <mxGeometry x="750" y="80" width="60" height="160" as="geometry" />
        </mxCell>
        <mxCell id="w0wVo5ab4qcGDqKw7DYl-17" value="legt alle zu einem Pixel gehörenden Bits nebeneinander und timet die Sprites nach ihrer x-Koordinate" style="text;html=1;align=center;verticalAlign=middle;whiteSpace=wrap;rounded=0;" parent="1" vertex="1">
          <mxGeometry x="1490" y="375" width="140" height="30" as="geometry" />
        </mxCell>
        <mxCell id="w0wVo5ab4qcGDqKw7DYl-18" value="Wählt Background oder Foreground aus und erhält durch Paletten RAM eine bestimmte Farbe" style="text;html=1;align=center;verticalAlign=middle;whiteSpace=wrap;rounded=0;" parent="1" vertex="1">
          <mxGeometry x="1500" y="825" width="130" height="30" as="geometry" />
        </mxCell>
        <mxCell id="w0wVo5ab4qcGDqKw7DYl-19" value="Anschluss an Fernseher" style="text;html=1;align=center;verticalAlign=middle;whiteSpace=wrap;rounded=0;" parent="1" vertex="1">
          <mxGeometry x="1515" y="935" width="100" height="30" as="geometry" />
        </mxCell>
        <mxCell id="w0wVo5ab4qcGDqKw7DYl-20" value="wählt jede Scanline Sprites aus OAM für OAM RAM aus und wählt richtige Pixel je nach y-Koordinate für Pixel Data Sort aus" style="text;html=1;align=center;verticalAlign=middle;whiteSpace=wrap;rounded=0;" parent="1" vertex="1">
          <mxGeometry x="1189" y="480" width="160" height="30" as="geometry" />
        </mxCell>
        <mxCell id="w0wVo5ab4qcGDqKw7DYl-21" value="gibt richtige Patternbits und Attribute bits je nach Position im VRAM an Pixel Data Sort" style="text;html=1;align=center;verticalAlign=middle;whiteSpace=wrap;rounded=0;" parent="1" vertex="1">
          <mxGeometry x="860" y="250" width="150" height="30" as="geometry" />
        </mxCell>
        <mxCell id="w0wVo5ab4qcGDqKw7DYl-22" value="Wie kommen Paletten ins Paletten RAM?" style="text;html=1;align=center;verticalAlign=middle;whiteSpace=wrap;rounded=0;" parent="1" vertex="1">
          <mxGeometry x="260" y="750" width="310" height="30" as="geometry" />
        </mxCell>
        <mxCell id="w0wVo5ab4qcGDqKw7DYl-23" value="WIe kommuniziert CPU und PPU nach und vor Rendering?" style="text;html=1;align=center;verticalAlign=middle;whiteSpace=wrap;rounded=0;" parent="1" vertex="1">
          <mxGeometry x="280" y="780" width="350" height="30" as="geometry" />
        </mxCell>
        <mxCell id="w0wVo5ab4qcGDqKw7DYl-26" value="" style="endArrow=none;dashed=1;html=1;dashPattern=1 3;strokeWidth=2;rounded=0;" parent="1" edge="1">
          <mxGeometry width="50" height="50" relative="1" as="geometry">
            <mxPoint x="1030" y="900" as="sourcePoint" />
            <mxPoint x="1670" y="900" as="targetPoint" />
          </mxGeometry>
        </mxCell>
        <mxCell id="w0wVo5ab4qcGDqKw7DYl-27" value="&lt;b&gt;&lt;span style=&quot;color: rgb(255, 0, 0);&quot;&gt;TODO:&lt;/span&gt;&lt;/b&gt;" style="text;html=1;align=center;verticalAlign=middle;whiteSpace=wrap;rounded=0;" parent="1" vertex="1">
          <mxGeometry x="1080" y="797" width="60" height="30" as="geometry" />
        </mxCell>
        <mxCell id="w0wVo5ab4qcGDqKw7DYl-28" value="" style="endArrow=classic;startArrow=classic;html=1;rounded=0;entryX=0.25;entryY=1;entryDx=0;entryDy=0;" parent="1" target="w0wVo5ab4qcGDqKw7DYl-2" edge="1">
          <mxGeometry width="50" height="50" relative="1" as="geometry">
            <mxPoint x="204" y="460" as="sourcePoint" />
            <mxPoint x="720" y="520" as="targetPoint" />
            <Array as="points">
              <mxPoint x="690" y="460" />
            </Array>
          </mxGeometry>
        </mxCell>
        <mxCell id="w0wVo5ab4qcGDqKw7DYl-29" value="" style="endArrow=classic;startArrow=classic;html=1;rounded=0;entryX=0.127;entryY=0.99;entryDx=0;entryDy=0;entryPerimeter=0;exitX=0.5;exitY=1;exitDx=0;exitDy=0;" parent="1" source="hPt4BLlKm_qN6CiMeyY9-1" target="m98vGV-R4jrSIljLvuui-1" edge="1">
          <mxGeometry width="50" height="50" relative="1" as="geometry">
            <mxPoint x="670" y="570" as="sourcePoint" />
            <mxPoint x="720" y="520" as="targetPoint" />
            <Array as="points">
              <mxPoint x="140" y="600" />
              <mxPoint x="1010" y="600" />
              <mxPoint x="1010" y="530" />
              <mxPoint x="1115" y="530" />
            </Array>
          </mxGeometry>
        </mxCell>
        <mxCell id="w0wVo5ab4qcGDqKw7DYl-30" value="" style="endArrow=classic;startArrow=classic;html=1;rounded=0;entryX=0;entryY=0.5;entryDx=0;entryDy=0;exitX=0.75;exitY=1;exitDx=0;exitDy=0;" parent="1" source="hPt4BLlKm_qN6CiMeyY9-1" target="w0wVo5ab4qcGDqKw7DYl-3" edge="1">
          <mxGeometry width="50" height="50" relative="1" as="geometry">
            <mxPoint x="180" y="520" as="sourcePoint" />
            <mxPoint x="720" y="520" as="targetPoint" />
            <Array as="points">
              <mxPoint x="170" y="520" />
            </Array>
          </mxGeometry>
        </mxCell>
        <mxCell id="w0wVo5ab4qcGDqKw7DYl-32" value="" style="endArrow=classic;html=1;rounded=0;exitX=0.25;exitY=1;exitDx=0;exitDy=0;entryX=0;entryY=0.5;entryDx=0;entryDy=0;" parent="1" source="hPt4BLlKm_qN6CiMeyY9-1" target="ACfstS_xk-I5XzraiATe-1" edge="1">
          <mxGeometry width="50" height="50" relative="1" as="geometry">
            <mxPoint x="670" y="640" as="sourcePoint" />
            <mxPoint x="720" y="590" as="targetPoint" />
            <Array as="points">
              <mxPoint x="110" y="840" />
            </Array>
          </mxGeometry>
        </mxCell>
        <mxCell id="w0wVo5ab4qcGDqKw7DYl-33" value="" style="endArrow=classic;html=1;rounded=0;entryX=0.25;entryY=1;entryDx=0;entryDy=0;" parent="1" target="ACfstS_xk-I5XzraiATe-3" edge="1">
          <mxGeometry width="50" height="50" relative="1" as="geometry">
            <mxPoint x="160" y="483" as="sourcePoint" />
            <mxPoint x="720" y="520" as="targetPoint" />
            <Array as="points">
              <mxPoint x="160" y="580" />
              <mxPoint x="970" y="580" />
            </Array>
          </mxGeometry>
        </mxCell>
        <mxCell id="w0wVo5ab4qcGDqKw7DYl-34" value="" style="endArrow=classic;html=1;rounded=0;entryX=0.5;entryY=0;entryDx=0;entryDy=0;" parent="1" edge="1">
          <mxGeometry width="50" height="50" relative="1" as="geometry">
            <mxPoint x="1159" y="30" as="sourcePoint" />
            <mxPoint x="1159.23" y="384" as="targetPoint" />
          </mxGeometry>
        </mxCell>
        <mxCell id="w0wVo5ab4qcGDqKw7DYl-35" value="s_patterns" style="text;html=1;align=center;verticalAlign=middle;whiteSpace=wrap;rounded=0;" parent="1" vertex="1">
          <mxGeometry x="1169" y="80" width="60" height="160" as="geometry" />
        </mxCell>
      </root>
    </mxGraphModel>
  </diagram>
  <diagram id="QfLsV9eqtgLnsYe_lz0B" name="Color-Pixel-Generator">
    <mxGraphModel dx="1682" dy="932" grid="1" gridSize="10" guides="1" tooltips="1" connect="1" arrows="1" fold="1" page="1" pageScale="1" pageWidth="1169" pageHeight="827" math="0" shadow="0">
      <root>
        <mxCell id="0" />
        <mxCell id="1" parent="0" />
        <mxCell id="azecRrqxCaPdr5Pnbggw-1" value="" style="rounded=0;whiteSpace=wrap;html=1;" vertex="1" parent="1">
          <mxGeometry x="280" y="160" width="680" height="600" as="geometry" />
        </mxCell>
        <mxCell id="azecRrqxCaPdr5Pnbggw-2" value="" style="endArrow=classic;html=1;rounded=0;" edge="1" parent="1">
          <mxGeometry width="50" height="50" relative="1" as="geometry">
            <mxPoint x="450" y="80" as="sourcePoint" />
            <mxPoint x="450" y="160" as="targetPoint" />
          </mxGeometry>
        </mxCell>
        <mxCell id="azecRrqxCaPdr5Pnbggw-4" value="4 bit" style="edgeLabel;html=1;align=center;verticalAlign=middle;resizable=0;points=[];" vertex="1" connectable="0" parent="azecRrqxCaPdr5Pnbggw-2">
          <mxGeometry x="-0.2208" y="-1" relative="1" as="geometry">
            <mxPoint x="1" as="offset" />
          </mxGeometry>
        </mxCell>
        <mxCell id="azecRrqxCaPdr5Pnbggw-3" value="" style="endArrow=classic;html=1;rounded=0;entryX=0.75;entryY=0;entryDx=0;entryDy=0;" edge="1" parent="1" target="azecRrqxCaPdr5Pnbggw-1">
          <mxGeometry width="50" height="50" relative="1" as="geometry">
            <mxPoint x="790" y="80" as="sourcePoint" />
            <mxPoint x="610" y="400" as="targetPoint" />
          </mxGeometry>
        </mxCell>
        <mxCell id="azecRrqxCaPdr5Pnbggw-5" value="4 bit" style="edgeLabel;html=1;align=center;verticalAlign=middle;resizable=0;points=[];" vertex="1" connectable="0" parent="azecRrqxCaPdr5Pnbggw-3">
          <mxGeometry x="-0.3708" y="3" relative="1" as="geometry">
            <mxPoint x="-3" y="5" as="offset" />
          </mxGeometry>
        </mxCell>
        <mxCell id="azecRrqxCaPdr5Pnbggw-6" value="&lt;div&gt;&lt;b&gt;Sprite&lt;/b&gt;&lt;/div&gt;&lt;div&gt;Att H, Att L, Palette H, Palette L&lt;/div&gt;" style="text;html=1;align=center;verticalAlign=middle;whiteSpace=wrap;rounded=0;" vertex="1" parent="1">
          <mxGeometry x="350" y="50" width="200" height="30" as="geometry" />
        </mxCell>
        <mxCell id="azecRrqxCaPdr5Pnbggw-7" value="&lt;div&gt;&lt;b&gt;&lt;font style=&quot;font-size: 14px;&quot;&gt;Background&lt;/font&gt;&lt;/b&gt;&lt;/div&gt;&lt;div&gt;Att H, Att L, Palette H, Palette L&lt;/div&gt;" style="text;html=1;align=center;verticalAlign=middle;whiteSpace=wrap;rounded=0;" vertex="1" parent="1">
          <mxGeometry x="690" y="50" width="200" height="30" as="geometry" />
        </mxCell>
        <mxCell id="azecRrqxCaPdr5Pnbggw-8" value="" style="endArrow=classic;html=1;rounded=0;exitX=0.25;exitY=1;exitDx=0;exitDy=0;" edge="1" parent="1" source="azecRrqxCaPdr5Pnbggw-1">
          <mxGeometry width="50" height="50" relative="1" as="geometry">
            <mxPoint x="470" y="870" as="sourcePoint" />
            <mxPoint x="450" y="840" as="targetPoint" />
          </mxGeometry>
        </mxCell>
        <mxCell id="azecRrqxCaPdr5Pnbggw-9" value="" style="endArrow=classic;html=1;rounded=0;exitX=0.75;exitY=1;exitDx=0;exitDy=0;" edge="1" parent="1" source="azecRrqxCaPdr5Pnbggw-1">
          <mxGeometry width="50" height="50" relative="1" as="geometry">
            <mxPoint x="470" y="540" as="sourcePoint" />
            <mxPoint x="790" y="840" as="targetPoint" />
          </mxGeometry>
        </mxCell>
        <mxCell id="azecRrqxCaPdr5Pnbggw-10" value="" style="endArrow=classic;html=1;rounded=0;entryX=-0.004;entryY=0.4;entryDx=0;entryDy=0;entryPerimeter=0;" edge="1" parent="1" target="azecRrqxCaPdr5Pnbggw-1">
          <mxGeometry width="50" height="50" relative="1" as="geometry">
            <mxPoint x="200" y="400" as="sourcePoint" />
            <mxPoint x="520" y="560" as="targetPoint" />
          </mxGeometry>
        </mxCell>
      </root>
    </mxGraphModel>
  </diagram>
</mxfile>
